<svg xmlns="http://www.w3.org/2000/svg" viewBox="0 0 137.75 150"><defs><style>.cls-1{fill:none;}.cls-2{fill:#ffe800;}.cls-3{fill:#fff;}.cls-4{fill:#febb36;}.cls-5{fill:#3284bf;}</style></defs><title>footer-logo</title><g id="Layer_2" data-name="Layer 2"><g id="Layer_1-2" data-name="Layer 1"><path class="cls-1" d="M80.83,58a2.26,2.26,0,0,0,.31-1.32l-1.06-5.83a4.27,4.27,0,0,0-1.5.31l1,5.78-.31.49c-.28.26-.7.08-.93-.18l-1.06-5.65c-.31-.44-1.11,0-1.63.1l1.06,6a2.44,2.44,0,0,0,1.37,1.11A2.78,2.78,0,0,0,80.83,58Z"/><path class="cls-1" d="M89.1,48.24l.18.18A16.27,16.27,0,0,0,89.91,51a.23.23,0,0,1-.31.18l-2.13-2.44-1.35.49,2,6.92c.31.42,1.14,0,1.63-.13L89,53.4l.18-.23,2.18,2.36,1.56-.44c-.83-2.39-1.58-4.82-2.23-7.29A4.55,4.55,0,0,0,89.1,48.24Z"/><path class="cls-1" d="M85.73,57.21c-.83-2.49-1.09-5-1.92-7.41-.52.13-1,.26-1.56.36l1.92,7.41A7.63,7.63,0,0,0,85.73,57.21Z"/><path class="cls-1" d="M73.91,53.16l-.54-.75c-1-1.4-2.39-.18-3.63-.18l.88,7.39,1.5-.13c.05-.7-.41-1.37.1-1.92l1.06,1.87L75,59.25a17.07,17.07,0,0,1-1.61-3.42A2.53,2.53,0,0,0,73.91,53.16ZM72.18,55c-.86.13-.42-.93-.62-1.37-.08-.26.13-.29.26-.44.39,0,.6.23.73.57A1,1,0,0,1,72.18,55Z"/><path class="cls-1" d="M97.5,52.46a2.44,2.44,0,0,0-.88-2.8c-.78-.67-2.38-.44-2.41-1.87.23-.78,1.09-.49,1.61-.54l.05-1.06a2.57,2.57,0,0,0-2.54.36,2,2,0,0,0-.62,1.87c.31,1.63,2.23,1.92,3.29,2.8a.81.81,0,0,1-.24.93c-.28.13-.67.31-.93.08-.41.31-.26,1-.39,1.48a2.82,2.82,0,0,0,1.74,0A2.16,2.16,0,0,0,97.5,52.46Z"/><path class="cls-1" d="M81.73,4.43c-.22-.23-.55-.19-.78-.49-.08,0-.15,0-.21,0l.84.37Z"/><path class="cls-1" d="M58.46,23.78l0,0h0Z"/><path class="cls-1" d="M97.85,2.38l-.08,0,.15.1Z"/><path class="cls-1" d="M95.9,30c.14-.21-.16-.31-.18-.48l-.18-.14.35.62Z"/><path class="cls-1" d="M100.65,6.23l0-.11,0,.32A.87.87,0,0,0,100.65,6.23Z"/><path class="cls-1" d="M70.47,4.49a1.4,1.4,0,0,0-.48,0l.46.11Z"/><path class="cls-1" d="M60.5,1.93l0,0Z"/><path class="cls-1" d="M58.68,3.29c-.28.18-.28.55-.64.65-.17.1-.14.18-.09.27l.81-1S58.71,3.29,58.68,3.29Z"/><path class="cls-1" d="M59.54,2.4l-.06,0c-.15.05-.17.25-.31.24A.71.71,0,0,0,59,3l.49-.58Z"/><path class="cls-1" d="M65.56,1.55a.37.37,0,0,0-.15-.13v0Z"/><path class="cls-1" d="M94.16,2a.44.44,0,0,0-.2.22l.81-.08C94.64,1.93,94.34,2,94.16,2Z"/><path class="cls-1" d="M93.22,25.35a.91.91,0,0,0-.45-.55l0,.23Z"/><path class="cls-1" d="M67.65,3.31l.15.14A.44.44,0,0,0,67.65,3.31Z"/><path class="cls-1" d="M69.06,4.23a1.12,1.12,0,0,0-.25,0l.77.18C69.44,4.31,69.32,4.12,69.06,4.23Z"/><path class="cls-1" d="M65.24,1A.24.24,0,0,0,65,.83l.16.23A.17.17,0,0,1,65.24,1Z"/><path class="cls-1" d="M68,3.61h0l.1.09Z"/><path class="cls-1" d="M63.7.78,64.18.7C64,.63,63.86.56,63.7.78Z"/><path class="cls-1" d="M66.19,2a.33.33,0,0,0-.15,0l.94.77A5.57,5.57,0,0,0,66.19,2Z"/><path class="cls-1" d="M82.21,4.34c0,.19-.2.14-.34.15l.54.26A1,1,0,0,1,82.21,4.34Z"/><path class="cls-1" d="M75.27,2.8h-.06l.17.23A.33.33,0,0,0,75.27,2.8Z"/><path class="cls-1" d="M63.21.86l.17,0Z"/><path class="cls-1" d="M90.58,3.9l.91-.63A1.67,1.67,0,0,0,90.58,3.9Z"/><path class="cls-1" d="M84.48,5.6c-.11,0-.26-.06-.35,0l1.41.81A9.52,9.52,0,0,0,84.48,5.6Z"/><path class="cls-2" d="M63.41,35.13h.05L63.32,35A1,1,0,0,1,63.41,35.13Z"/><path class="cls-2" d="M87,24.54h0Z"/><path class="cls-2" d="M56,33.92l.12.08a.73.73,0,0,1-.08-.09Z"/><path class="cls-2" d="M95.34,14.75a2.6,2.6,0,0,0-.24.25l.52-.18A.25.25,0,0,0,95.34,14.75Z"/><polygon class="cls-2" points="83.12 13.02 83.11 13.01 83.13 13.02 83.12 13.02"/><path class="cls-2" d="M64.09,37.88l.17.06-.14-.09Z"/><path class="cls-3" d="M81.94,18.76l-.29.66c0,.16.22.29.24.31s.13-.1.22-.07c.26-.19.71-.24.54-.69-.16-.12,0-.37-.14-.54C82.19,18.28,82.16,18.66,81.94,18.76Z"/><path class="cls-3" d="M68.24,20.66l.27.47a.83.83,0,0,0-.26-.47Z"/><path class="cls-3" d="M89.26,28.25c.13-.06.08-.22.11-.33a1.88,1.88,0,0,0-.58-.83c-.14.26.13.49.25.72S89.07,28.19,89.26,28.25Z"/><path class="cls-3" d="M73.76,18.76c.23,0,.23-.3.37-.4S73.94,18,74,17.9c-.09-.15,0-.54-.25-.45-.15.38-.71.58-.52,1.11C73.37,18.73,73.57,18.74,73.76,18.76Z"/><path class="cls-4" d="M76.32,3l0-.14-.46-.2-.11.3C75.87,3.21,76.12,3,76.32,3Z"/><path class="cls-4" d="M79,2.72c.47-.37-.21-.7-.32-1.05-.22.17.18.56-.16.71s-.4-.09-.56-.21-.21-.5-.48-.37c-.15.37.15.75.4,1A2.09,2.09,0,0,0,79,2.72Z"/><path class="cls-4" d="M60.54,15h.07c0-.2.26-.33.21-.53-.18,0-.26.16-.35.27S60.62,15,60.54,15Z"/><path class="cls-4" d="M59.71,17.32c-.19-.87.68-1.13,1-1.68-.08-.48-.31-.05-.6-.22a3.81,3.81,0,0,0-.92,2.25C59.44,17.67,59.53,17.44,59.71,17.32Z"/><path class="cls-4" d="M60.45,17.9c.23-.3,0-.61-.08-.9l-.24.27A2.25,2.25,0,0,1,60.45,17.9Z"/><path class="cls-3" d="M73.78,46a2.14,2.14,0,0,0-.49,1.66.58.58,0,0,0,.57.26c.75,0,.36-.91.55-1.37A.56.56,0,0,0,73.78,46Z"/><path class="cls-3" d="M72.23,45.39a2.44,2.44,0,0,0-.67,1.42c.1.18.36.49.67.36.36-.31.42-.88.62-1.29C72.72,45.67,72.64,45.18,72.23,45.39Z"/><path class="cls-3" d="M77,48.5a.61.61,0,0,0,.75-.21c-.08-.55.21-1.53-.52-1.79-.34-.08-.31.31-.49.49C76.82,47.41,76.51,48.13,77,48.5Z"/><path class="cls-3" d="M75.55,46.5a1.4,1.4,0,0,0-.39.93c.08.34.05,1.09.62.8a2.24,2.24,0,0,0,.13-1.37A.42.42,0,0,0,75.55,46.5Z"/><path class="cls-3" d="M67.64,44.38A2.64,2.64,0,0,0,68.7,43c0-.18-.21-.15-.31-.23-.41.34-1.37.85-1.19,1.55Z"/><path class="cls-3" d="M65.9,42.27c-.26.29-.05.62.18.86.68,0,1-.73,1.3-1.17l0-.13C66.84,41.94,66.24,41.81,65.9,42.27Z"/><path class="cls-3" d="M61.6,60.37v-.44a19.89,19.89,0,0,0-4.23-.8c-2.54.21-4.51-1.35-7-1.3-1,.15-2.13-.26-3.24-.21,2.13-1.37,5.24-1.09,7.52-.23,1.22.91,3,.8,4.48.8.65-.26.57-1,.57-1.68-.31-2.59-1.29-5.31-3.73-6.66h-.39c.47.8,1.37,1.4,1.37,2.38a.35.35,0,0,1-.44.23c-1.71-1.58-3.47-3-5.83-3-3.71,2.13-6.17,6.07-8.79,9.33-1,1.84-3.71,2.8-2.85,5.29.78.62.36,1.92,1.55,2.23,5,2.1,11.38,1.19,16.85,1.24a.75.75,0,0,0,.8-.62C57.89,64.21,59.47,62,61.6,60.37Z"/><path class="cls-3" d="M65.15,41.45h.23V41H65.2C65.15,41.14,65,41.32,65.15,41.45Z"/><path class="cls-3" d="M61.29,62.05c.52.54,1.35.54,1.92,1.06.44,0,1,.65,1.24.05a5.25,5.25,0,0,0-2.85-1.61A.48.48,0,0,0,61.29,62.05Z"/><path class="cls-3" d="M78.45,46.63c-.31.28-.16.85-.1,1.24.1.15.23.54.54.41s.26-.41.26-.67C78.92,47.28,79.15,46.47,78.45,46.63Z"/><path class="cls-3" d="M68.63,45.62c.18.16.41,0,.57-.13.08-.62.91-.8.75-1.55-.6-1-1.14.47-1.56.83S68.34,45.41,68.63,45.62Z"/><path class="cls-3" d="M70.44,46.55c.59-.26.62-1,.8-1.56-.78-1.27-1,.7-1.43,1.06A.7.7,0,0,0,70.44,46.55Z"/><path class="cls-3" d="M80,45.93c-.23.08-.26.34-.31.57.21.52-.18,1.45.7,1.29a.53.53,0,0,0,.31-.62C80.45,46.79,80.58,46,80,45.93Z"/><path class="cls-3" d="M68.07,19.63c.42.28.51.68.72,1.1-.23.4.25.51.13.88a.19.19,0,0,1-.15,0l.31.53.49-.16c.15,0,.16.14.29.14a5.9,5.9,0,0,1,1.32-.56l.16-.22c-.24-.15,0-.34-.09-.6A3.53,3.53,0,0,1,70.75,19,7.81,7.81,0,0,1,71,17.47a4,4,0,0,1,2.17-2.36c.9-.21,1.5.61,1.92,1.22,0,0,.08,0,.1,0,.27-.22.08-.58,0-.83-.54-.51-.35-1.47-1.09-1.84-.34-.57-.92-.94-1.27-1.44a3.33,3.33,0,0,1-.56.31c-.1.06-.18-.09-.26-.14-.57-.34-1.07.2-1.6.29a1.35,1.35,0,0,1-.64.4c-.25.07-.12.36-.39.36-.35.41-.49.93-1,1.27-.26.61-.47,1.25-.69,1.89A8.72,8.72,0,0,0,68,18.93C67.94,19.14,68.13,19.37,68.07,19.63Z"/><path class="cls-4" d="M92.1,7.82a1.08,1.08,0,0,0,1-.22,1.58,1.58,0,0,0,1-.36c.07-.12.08-.3.19-.36-.29-.31-.52.12-.79.21-.11-.09,0-.26,0-.38-.41-.39-.7.36-1,.54C92.42,7.48,92,7.51,92.1,7.82Z"/><path class="cls-4" d="M91.45,7.49a1.23,1.23,0,0,0,.71-.92c-.13-.28-.4,0-.53.07,0,.26-.36.32-.32.61C91.35,7.34,91.29,7.53,91.45,7.49Z"/><path class="cls-3" d="M84.36,44.87c.29-.08.26-.42.26-.68-.31-.41-.6-1-1.12-1.11-.15,0-.31.23-.18.36C83.53,44,83.66,44.76,84.36,44.87Z"/><path class="cls-3" d="M110.93,68.15h.18c.29-.16.18-.57.21-.75C110.93,67.42,111,67.89,110.93,68.15Z"/><path class="cls-3" d="M82.13,44.5c.28.49.13,1.29.88,1.42.18,0,.26-.26.31-.44C82.88,45.15,82.83,43.39,82.13,44.5Z"/><path class="cls-3" d="M81.15,44.95c-.34.57,0,1.37.36,1.87.16.26.44.05.57-.13a6,6,0,0,0-.7-1.74Z"/><path class="cls-3" d="M86.35,41.76c0-.39-.57-.46-.8-.23,0,.11-.05.23.05.31S86.2,42.15,86.35,41.76Z"/><path class="cls-3" d="M85.5,43.52c.21-.1.18-.39.18-.52-.23-.44-.65-1-1.24-1.12a.69.69,0,0,0-.31.44A1.85,1.85,0,0,0,85.5,43.52Z"/><path class="cls-3" d="M59.3,30.55s.27,0,.22.17-.12.13-.12.13,0,.11.31.3a3.35,3.35,0,0,1,.57.47,5.62,5.62,0,0,1,.88,1,4.48,4.48,0,0,0,1.12,1.15A6.73,6.73,0,0,1,63.32,35l.14.14c.65.25,1.37.18,2,.42.28-.1.6.22.75-.15.92.1,1.66.67,2.65.72a6.37,6.37,0,0,0,1.35,0c1.21.16,2.58,0,3.79.2.16-.13.34,0,.48.06.06.33.49.25.77.27s.56-.24.89-.2c0,.33.31.06.34.36.49,0,1.05-.1,1.56,0,.29-.14.77,0,1.06-.18A11,11,0,0,0,80.9,36c.38,0,.62-.58.94-.05a16,16,0,0,1,1.61-.39c.87-.18,1.67-.58,2.52-.79,1.29-.69,2.76-1,3.73-2.29a3.05,3.05,0,0,1,.36-.61c0-.77.6-1.29.61-2.11a.11.11,0,0,0-.17-.06l-.12.12A3.75,3.75,0,0,1,90,30.88H90a1.05,1.05,0,0,1,.13-.47c0-.35.26-.75.07-1.1.09-.17,0-.46.28-.52-.08-.25.15-.46-.09-.67a5,5,0,0,0-.8-1.87c-.17,0-.12-.23-.27-.27A15,15,0,0,0,88,25.08a2.28,2.28,0,0,1-1-.53h0c-.22.18-.56.09-.8.07-.29-.22-.38-.13-.65-.4-.26,0-.41-.32-.66-.29-.1-.19-.33,0-.43-.16-.49-.06-.78.27-1.3.11-.21-.18-.15-.73-.52-.58-.37-.08-.67.09-1.06-.13a.42.42,0,0,1-.44-.09.5.5,0,0,0-.11-.23c.17-.13.44,0,.64-.13a.91.91,0,0,0,1-.42c-.18-.15-.41.13-.64.09s-.63.13-.87-.18C81,22.42,81,22,80.8,22c0-.19-.22-.11-.28-.25a4.68,4.68,0,0,0-.65-.88,3.7,3.7,0,0,1,.37-3.41l0-.14A3.53,3.53,0,0,1,82,15.85c.47-.21.91.16,1.23.4a1.15,1.15,0,0,1,.55.55,5.39,5.39,0,0,0,.38.57c.33-.15-.21-.7.31-.76a.73.73,0,0,0-.12-.67.26.26,0,0,1-.3-.07c0-.36-.32-.89.08-1.13.12-.42-.28-.61-.32-1s-.54-.4-.63-.74h0a4.6,4.6,0,0,0-1.88-.41c-.5,0-1.11-.26-1.45.26-.05.42-.55.58-.78.91-.24.62-1.16.66-1.25,1.37-.22.28-.26.66-.53.9.21.28-.21.38-.28.58,0,.77-.28,1.24-.36,2a2.82,2.82,0,0,1-.05.93c.06.23,0,.51.19.68l-.1.27c-.1-.35-.37,0-.59,0s-.18.19-.11.3a1.11,1.11,0,0,0,.58.07c1,.36,2.19-.12,2.79.95.25.17.35.41.58.59a4.6,4.6,0,0,1,.66,1.09,1.54,1.54,0,0,1-.44,1.61,3.32,3.32,0,0,0-.66.54c-.41.12-.65.55-1.11.52-.86.4-1.83.39-2.7.8l-.77.36c-.14.27-.05.64-.09,1,.08,1,.06,1.93.08,2.89.17.27.65.17.89.39a6.59,6.59,0,0,0,1,.39,4.52,4.52,0,0,0,.48.4c.14,0,.19.19.31,0a1.56,1.56,0,0,1,.27.15.84.84,0,0,0,.63.11c.23-.07.31-.15.42-.13s.18,0,.18.12.12.21.21.27c.66-.2.86.8,1.6.55a18.09,18.09,0,0,0,3.5-1.88c1.38-1.05,2.87-1.89,4.26-3,.07-.14-.06-.24-.1-.36a2.23,2.23,0,0,1-1.28-.86l0-.3c.18-.08.34.27.46,0,0-.37.33-.14.46-.32a.68.68,0,0,1,.08-.62c.39-.07.23.4.58.32.12.38.42.44.59.8a1.58,1.58,0,0,1,.21,1.69c-.23,0-.28-.42-.5-.13a1.31,1.31,0,0,1-.52.55c-.21-.19-.3.14-.47.15.05.07,0,.16,0,.24-.24.05,0,.3-.13.47-.47.12-.86.52-1.33.63a1.94,1.94,0,0,1-.86.48c-.67.79-1.74.84-2.48,1.56-.63,0-1.09.63-1.73.75-.22.23-.08.47-.42.6a2.3,2.3,0,0,0-1.52-.26c-.21-.18-.61,0-.8-.27s-.75-.13-1.06-.41-1.17-.28-1.58-.65a3.93,3.93,0,0,1-1.3-.69c-.27-.09-.45-.09-.61-.39s.2-.48-.08-.74-.19.13-.33.17c0,.2.27.24.15.47a3.89,3.89,0,0,1-1.32.35c-.69.22-1.39.44-2.07.7-.34.15-.71.21-1,.39-.23,0-.42.15-.65.16-.27.17-.64.08-.85.38a2,2,0,0,1-1.21.19c-.11-.23-.32-.29-.5-.38a.9.9,0,0,1-.72-.09c-.14.23-.34,0-.42.29l-.24,0c-.32-.38-.55-1-1.12-1-.13-.15-.08-.39-.21-.51L63.6,32a.54.54,0,0,1-.16-.4c-.3-.34-.45-.81-.84-1-.19-.35-.62-.54-.75-.89s-.27.05-.39-.16-.52-.31-.55-.62c-.21-.34-.7-.58-.74-1a.58.58,0,0,1-.32-.21c.16-.11,0-.5.32-.41.27-.35.8-.22,1-.64a2.58,2.58,0,0,1,.32-.37l.63-.06.6.49c0,.09-.08.11-.06.2-.26-.07-.47-.21-.75-.13s0,.29-.25.28c.06,0,0,.12,0,.18s-.1.05-.15.08v.07c-.09,0-.21,0-.22.15l.05.11s.08-.08.14,0,0,.13-.06.2a22.88,22.88,0,0,1,2.6,3c.07.49.45.71.65,1.16a6.19,6.19,0,0,1,.38.78c.15.27.44.15.67.22.34-.45.83.21,1.26-.09.59-.09,1.39.16,1.72-.43a9.38,9.38,0,0,0,1.87-.8c.73-.12,1.26-.6,2-.79L74,30a10.94,10.94,0,0,0-.16-2.58c-.06-.11-.23-.1-.29-.11a13,13,0,0,0-2.06-1c-.57-.32-1.29-.53-1.61-1.18s-1-1.15-.7-1.89c0-.24.28-.5.06-.75-.4.09-.93,0-1.37.1-.08.07-.2.12-.17.26s.23.09.14.26c-.34-.13-.46.2-.63.34a1.14,1.14,0,0,0-.83,0c-.08-.22-.34,0-.47-.13a1.41,1.41,0,0,0-1.08.31c-.19.07-.48.32-.7.08-.18,0-.07.23-.21.29a3.37,3.37,0,0,1-1.17.51l0,.06c-.09,0,.11,0,0-.1-.26,0-.38.35-.62.23-.15.27-.51.2-.72.46-.41.48-1.25.92-1.68,1.49l0,0c-.41.11-.14.54-.5.7,0,.06-.13.89-.26,1.68a2,2,0,0,1-.08.67.94.94,0,0,0,.07.8C59,30.5,59.25,30.6,59.3,30.55Z"/><path class="cls-3" d="M73.57,34.49c.53.23,1.18-.2,1.46.23a3,3,0,0,1-1.76.18c-.37-.38-.87-.58-1.24-1C72.6,33.44,73.17,34.13,73.57,34.49Z"/><path class="cls-3" d="M65.33,60.94a13.38,13.38,0,0,0,2.49,1.3l.26-.13c-.36-1.06-1.61-1.25-2.49-1.61A.36.36,0,0,0,65.33,60.94Z"/><path class="cls-3" d="M65.64,56.95l-.05,1.19c0,.08.1.23.23.18a.94.94,0,0,0,.39-.93C66.08,57.21,66,56.82,65.64,56.95Z"/><path class="cls-3" d="M109.63,67.84a.54.54,0,0,0,.31-.62A.41.41,0,0,0,109.63,67.84Z"/><path class="cls-3" d="M110.88,64.72a6.34,6.34,0,0,0-.62,1.92c.86-.13.62-1.14.93-1.74C111.14,64.78,111,64.67,110.88,64.72Z"/><path class="cls-3" d="M65,61.87c-.67-.05-.67-.91-1.3-1.06-.31-.21-.93-.21-1,.23a3.21,3.21,0,0,0,2.31,1Z"/><path class="cls-3" d="M109.32,65.4a4.36,4.36,0,0,0-.57,1.63,3.36,3.36,0,0,0,1.19-1.87C109.71,64.91,109.48,65.19,109.32,65.4Z"/><path class="cls-3" d="M59.47,65.22a.42.42,0,0,0,0,.62A13.59,13.59,0,0,1,61.65,67c.16-.08.13-.23.13-.39C61,66.33,60.41,65.29,59.47,65.22Z"/><path class="cls-3" d="M121.69,53.34c-.73-1.87-2.85-1.94-4.22-3.06-3.09-1.43-6-3.4-9.15-4.59a39.69,39.69,0,0,1-4.54-1.76c-.55-.1-1.27-.62-1.74.08-.18.49.31.86.31,1.37.41,2,1.37,4.51.36,6.53l-.18-.13c-.6-2.62-.75-5.44-1.56-8-.13-.41-.41-.91-.93-.88l-.13.36a12.83,12.83,0,0,1,1.5,6c.31,1.84-.1,3.45.13,5.42.49-.13.34-.83.8-.93.23,1-.16,1.71-.05,2.67.8,0,.93-.88,1.61-1.24.49,1.06-.83,1.69-.8,2.72.83.75,2.2.59,3.29.88,3.84.08,6.74-2.25,10.32-2.54-.26.72-1.19.86-1.79,1.3v.13c1,.28,2.23.13,3.11.8l-.13.26c-2.23.39-4.69.16-6.84.93l-.36.36a8.71,8.71,0,0,0,.18,3.47,12.05,12.05,0,0,1,6.09,2.8h.36c1-1.3,1.82-2.67,2.7-4A16.15,16.15,0,0,0,121.69,53.34Z"/><path class="cls-3" d="M59.55,67.08a1.55,1.55,0,0,0,1.43.75v-.26c-.44-.24-.78-.78-1.3-.8Z"/><path class="cls-3" d="M71.81,53.21c-.13.15-.34.18-.26.44.21.44-.23,1.5.62,1.37a1,1,0,0,0,.36-1.25C72.41,53.45,72.2,53.19,71.81,53.21Z"/><path class="cls-3" d="M59.79,64.36c.49.52,1.32.47,1.81,1.12.26,0,.6.41.75,0-.86-.41-1.45-1.35-2.44-1.43Z"/><path class="cls-3" d="M63.34,64.46c.18-.18,0-.41-.18-.54a6.82,6.82,0,0,1-2-1.11c-.31-.21-1-.23-.93.36a2.62,2.62,0,0,0,1.43.67C62.22,64.05,62.74,65,63.34,64.46Z"/><path class="cls-3" d="M96.17,69.24c1.61-3.27,4.34,3.24,4.31-.6a6.73,6.73,0,0,0-.31-2.72c-.62.6-.8,1.53-1.38,2.18-.41-.65,0-1.42.13-2.07a67.28,67.28,0,0,0,1.42-12.13c-.13-3.32.41-7.1-.93-10-1.06-2.26-3.73-2.23-5.73-3.11-1.74-.28-3.24-1.22-5.16-1.11-1.37,0-.78,1.71-1.55,2.41-.73,2.67-3.27,3.68-5.11,5.6-3.21,2.54-8.27,1.45-11.43-.49-2.69-1-4.54-3.29-6.09-5.65a4.21,4.21,0,0,0-2.44.68,27.16,27.16,0,0,0-7.6,4,.47.47,0,0,0,.18.44A8.34,8.34,0,0,1,58,48.11c.13.13.41.36.13.49-2-.26-3.5-1.74-5.65-1.35-.49.29-.6.86-.88,1.3.6.6,1.66.36,2.44.67l.31-.1c-.28-.47-.75-.52-1.14-.75-.08-.18.13-.18.21-.26A10.38,10.38,0,0,1,58,50.23a9.93,9.93,0,0,1,3,8.22l.26.23a4.39,4.39,0,0,0,2.44.18c.08-1.94.08-4.25,0-6.22l.18-.31c1.37-.08,2.72-.26,3.6,1a2.62,2.62,0,0,1-.26,2.8A2.39,2.39,0,0,1,67.56,59c-.21.54-1.3.57-.8,1.24a6.72,6.72,0,0,1,3.68,2.49c-.36,1.55,1.45,1.53,2.18,2.31,1.79,1.58,3.23,1.33,3.1,4.08"/><path class="cls-3" d="M73.29,59.44l-1.06-1.87c-.52.54-.05,1.22-.1,1.92l-1.5.13-.88-7.39c1.24,0,2.64-1.22,3.63.18l.54.75a2.53,2.53,0,0,1-.49,2.67A17.07,17.07,0,0,0,75,59.25Z"/><path class="cls-3" d="M83.82,49.79c.83,2.38,1.09,4.93,1.92,7.41a7.63,7.63,0,0,1-1.55.36l-1.92-7.41C82.78,50.05,83.3,49.92,83.82,49.79Z"/><path class="cls-3" d="M76.71,57.7l-1.06-6c.52-.13,1.32-.54,1.63-.1l1.06,5.65c.23.26.65.44.93.18l.31-.49-1-5.78a4.27,4.27,0,0,1,1.5-.31l1.06,5.83A2.26,2.26,0,0,1,80.83,58a2.78,2.78,0,0,1-2.75.8A2.44,2.44,0,0,1,76.71,57.7Z"/><path class="cls-3" d="M91.33,55.52l-2.18-2.36L89,53.4,89.73,56c-.49.13-1.32.55-1.63.13l-2-6.92,1.35-.49,2.13,2.44a.23.23,0,0,0,.31-.18,16.27,16.27,0,0,1-.62-2.57l-.18-.18a4.55,4.55,0,0,1,1.56-.44c.65,2.46,1.4,4.9,2.23,7.29Z"/><path class="cls-3" d="M94.44,53.71c.13-.49,0-1.16.39-1.48.26.23.65.05.93-.08a.81.81,0,0,0,.24-.93c-1.06-.88-3-1.17-3.29-2.8a2,2,0,0,1,.62-1.87,2.57,2.57,0,0,1,2.54-.36l-.05,1.06c-.52.05-1.38-.23-1.61.54,0,1.43,1.64,1.19,2.41,1.87a2.44,2.44,0,0,1,.88,2.8,2.16,2.16,0,0,1-1.32,1.24A2.82,2.82,0,0,1,94.44,53.71Z"/><path class="cls-3" d="M115.85,70.33c.62-.36.54-1.22.75-1.87h-.13A2.21,2.21,0,0,0,115.85,70.33Z"/><path class="cls-3" d="M65.64,53.78a2,2,0,0,0,0,1.43c.1-.08.23,0,.31-.13a1,1,0,0,0,.18-.93C66,54,65.9,53.71,65.64,53.78Z"/><path class="cls-3" d="M112.35,64.91c-.83.29-.72,1.45-.8,2.18a3.17,3.17,0,0,0,1-1.92Z"/><path class="cls-3" d="M113.29,65.4c-.36.8-.54,1.68-.93,2.49a.88.88,0,0,0,0,.93l.31-.23c.18-1,1.22-1.74,1.19-2.88A.51.51,0,0,0,113.29,65.4Z"/><path class="cls-3" d="M114.53,66.54a9.88,9.88,0,0,0-1,2.85c0,.1.15.29.31.26.39-1,.91-2,1.35-2.93C115.13,66.43,114.72,66.17,114.53,66.54Z"/><path class="cls-3" d="M115.78,67.21a11.58,11.58,0,0,0-.8,2.13l.13.1a4.22,4.22,0,0,0,.93-2.23Z"/><path class="cls-5" d="M93.95,10.75a.31.31,0,0,0,0,.32.4.4,0,0,0,.43-.13c.24,0,.46,0,.64.19V11c.14-.44-.5-.19-.71-.35C94.22,10.75,94,10.55,93.95,10.75Zm2.67,38.91c-.78-.67-2.39-.44-2.41-1.87.23-.77,1.09-.49,1.61-.55l.06-1.05a2.57,2.57,0,0,0-2.54.36,2,2,0,0,0-.63,1.87c.31,1.64,2.23,1.93,3.3,2.8a.8.8,0,0,1-.24.93c-.28.13-.67.32-.93.08-.41.31-.26,1-.39,1.48a2.91,2.91,0,0,0,1.74,0,2.24,2.24,0,0,0,1.33-1.24A2.47,2.47,0,0,0,96.62,49.66ZM95.26,11.27c.07,0,.2,0,.17-.15s-.08-.12-.16-.13S95.18,11.2,95.26,11.27Zm-.32-5.35V6c-.09,0-.17.2-.29.13-.2-.27-.55,0-.8-.2-.42-.1-.85.3-1.28,0s-.81.4-1.21.12a3.4,3.4,0,0,0-.63,1.17,8.37,8.37,0,0,0-.22,2.54c.06.41-.18.66,0,1,.12.18.29.09.45,0a2.18,2.18,0,0,1,.64.64c.14.08.27-.18.43,0A5.75,5.75,0,0,1,93,12.7a1.18,1.18,0,0,0,.34.22l-.08-.08c0-.17-.27-.4,0-.45v-.07a7.38,7.38,0,0,0-1-1.35c.13-.45.46.11.75-.07.07-.22-.18-.31-.21-.48l-.12.06c-.24-.59-.85-.24-1.24-.26-.07,0-.18-.13-.12-.23a1.86,1.86,0,0,1,1.14-.45c.23.31.48.26.9.33a.44.44,0,0,0,.31.28c.46-.3,1-.11,1.46-.06l.07-.06c0-.59-.69-.38-.91-.78-.06-.22.22-.27.33-.4-.06-.16-.28-.09-.3-.26s.37-.24.47-.5l-.38,0c-.06-.08-.11-.22,0-.31.3-.22.49-.51.8-.63s.12-.31.24-.43a.73.73,0,0,0-.25-.52C95,6.11,95.12,5.88,94.94,5.92Zm-3.5,1.57c-.16,0-.09-.15-.14-.24,0-.28.3-.35.32-.62.13-.1.4-.34.53-.07A1.23,1.23,0,0,1,91.44,7.49Zm2.67-.26a1.57,1.57,0,0,1-1,.37,1,1,0,0,1-1,.21c-.14-.31.33-.34.43-.57.27-.18.55-.93,1-.53,0,.12-.1.29,0,.38.27-.09.51-.52.79-.21C94.18,6.94,94.18,7.11,94.11,7.23Zm-5,41,.18.18A16.17,16.17,0,0,0,89.91,51a.24.24,0,0,1-.31.18l-2.13-2.43-1.35.49,2,6.92c.32.41,1.15,0,1.63-.13L89,53.4l.18-.24,2.18,2.35,1.55-.44c-.82-2.39-1.58-4.82-2.22-7.29A4.57,4.57,0,0,0,89.1,48.24ZM62,8.43c.17-.07.3.06.44.09a3.48,3.48,0,0,1,1-.32v.06c.25.06.41-.18.65-.15s.27.1.35.15c-.09.12-.07.34-.28.38,0,0,0,.21-.18.25,0,.2-.13.32-.19.43s-.15.53-.39.61l0,0c.4.26.39-.14.71-.33.39.06.18-.41.51-.48.46.12,1-.26,1.36-.59,0-.15,0-.35.15-.43s.33.17.54.17.37,0,.53-.11.27-.27.26-.49-.35-.22-.5-.41c0-.43-.31-.73-.42-1.12a12.85,12.85,0,0,0-.73-1.06s0,0-.07,0c-.33-.17-.34-.64-.74-.71-.26-.31-.42-.59-.9-.58-.13-.12-.13-.3-.34-.28-.09.59-1,.09-1.13.72-.23-.08-.35.19-.57.18-.15-.25-.14.11-.3.06a.34.34,0,0,1-.41,0c-.18.08-.11.3-.3.38s-.25,0-.19.15-.29.3-.2.45c.12.35-.28.43-.48.6s.19.2.22.42c.07.06-.08.24.11.19a.52.52,0,0,1,.24-.43.23.23,0,0,1,.23.13l1.31-.8a.84.84,0,0,1,.74-.12c-.07.64-.83,1-1.34,1.25-.06.18-.41.25-.22.39-.15.24-.11.53-.24.77.31,0,.39-.24.68-.37,0-.11.13-.18.26-.18a1.34,1.34,0,0,1,.87-.61c0,.26.29.15.29.39-.07,0-.13.13-.23.14A8,8,0,0,1,62,8.43Zm12,45.18a3.08,3.08,0,0,0-.14-.44l-.54-.76c-1-1.39-2.39-.18-3.63-.18l.19,1.62.69,5.77,1.5-.13c.06-.7-.41-1.37.11-1.91l1.06,1.87L75,59.25a17.78,17.78,0,0,1-1.61-3.42A2.66,2.66,0,0,0,74.05,53.6ZM72.17,55c-.86.13-.41-.93-.63-1.38-.07-.25.13-.28.26-.44a.73.73,0,0,1,.73.57A1,1,0,0,1,72.17,55Zm10.09-4.88,1.91,7.42a7.6,7.6,0,0,0,1.56-.37c-.84-2.49-1.1-5-1.92-7.41C83.29,49.93,82.77,50.06,82.26,50.15Zm-2.19.7a7.17,7.17,0,0,0-1.15.18,2.21,2.21,0,0,0-.35.14l1,5.78-.31.5c-.28.26-.7.07-.93-.18L77.28,51.6c-.31-.44-1.11,0-1.63.11l.27,1.56.79,4.43a2.4,2.4,0,0,0,1.37,1.11,2.78,2.78,0,0,0,2.75-.8,2.29,2.29,0,0,0,.31-1.32ZM122.83,53a7.22,7.22,0,0,0-1.95-2.19c-5-2.28-9.36-6-14.85-7a6.61,6.61,0,0,0-3-1.11c-1.71-1-3.78-1.09-5.47-2.13-.52-.08-.88-.63-1.48-.5-.87-.57-2.12-.35-2.87-1.11l-1.88-.4a5.84,5.84,0,0,0,1.31-.18c.45-.52.88-1.08,1.28-1.57.19-.5.67-.83.86-1.32.38-.25.32-.76.72-1-.06-.5.4-.79.7-1.16,0-.11.18-.32,0-.44-.13.09-.2.4-.45.25.19-.37-.06-.91.41-1,0-.4.13-.94.11-1.37l.08-.11a.89.89,0,0,0-.07-.8c.26-.43-.28-.7-.18-1.14.07,0,.12-.1.19-.1a.23.23,0,0,0-.06-.32l-1.09-.7c-.18-.15-.44-.31-.34-.59a1.13,1.13,0,0,1,.61-.16c.37-.23,0-.58,0-.86-.22-.12-.53-.15-.64-.43-.45.13-.44-.41-.61-.64s-.51.19-.79,0c-.44-.08-.18-.54-.24-.83l.08-.09a6,6,0,0,1,.4-1.84c.52-.26.06-.75.18-1.14.42-.35.16-1,0-1.45-.37-.33,0-.82.08-1.16a.53.53,0,0,0,.5-.43c.14-.08,0-.31.23-.35.13-.41-.38-.4-.54-.63s-.45-.45-.15-.71c.37,0,.53.39.87.46.19-.06.07-.2.07-.3.15,0,.21-.13.2-.21.21-.08.66.11.66-.22-.25-.31-.7,0-1-.17s-.25-.27-.18-.44a1.2,1.2,0,0,0,.5-.39h0a1.34,1.34,0,0,1,.22-.24c.1-.06.2,0,.28.07l0,0c.9.67.76-.93,1.61-.59.33-.41.79-.37,1.16-.69a.7.7,0,0,1,.47-.46c.66,0,.37-1,1-.87.15-.13.31-.3.27-.49,0-.5.59-.5.54-1,.14,0,.07-.2.1-.31.23-.46.07-.78.2-1.25,0-.11.18,0,.25-.07.23-.31-.13-.62,0-1a.44.44,0,0,1,.3-.13c-.12-.41.23-1-.12-1.3,0-.34-.17-.65-.18-1-.31-.35.22-.83-.13-1.17,0-.14.06-.31-.06-.43-.06-.59-.51-.85-.83-1.35A4.24,4.24,0,0,1,99,2.35c-.17-.12-.42-.12-.51-.34-.38-.72-1.12-.46-1.76-.54-.25.09-.47-.17-.7,0a11.46,11.46,0,0,0-1.66.14c-.54-.15-1,.21-1.44.46-.32.21-.43-.2-.7-.22-.53.4-1.19.94-1.7,1.42-.44-.17-.57.34-.87.54h-.1c-.38.08-.21.67-.57.88-.52-.17-.31.48-.6.65a4.75,4.75,0,0,1-1,1.19A5.81,5.81,0,0,1,86.78,6c-.25,0-.1.34-.34.31-.24-.5-.76-.7-1.16-1a4.34,4.34,0,0,0-.88-.74c-.32.34-.55-.19-.81-.2s-.15.09-.26.18c-.34,0-.76-.22-1.12-.25h0c-.73-.65-1.65-1-2-2-.24-.22-.25-.57-.38-.85a2.74,2.74,0,0,1-.78-1l0-.27c0-.13-.17-.12-.25-.16s-.11.25-.17.39-.13,0-.2,0S78.4.4,78.41.35L78.19.28c-.32.45.23,1-.18,1.37-.4-.2-.44-.83-.86-.88a4.57,4.57,0,0,0-.16,1l-.07.06a2.31,2.31,0,0,0-.58-.38c-.28.25.11.57.07.87-.06.07-.14,0-.21,0A1.88,1.88,0,0,0,74.56,2c-.13.08-.48-.09-.54.21a5.64,5.64,0,0,0-2.11.32c.06.18-.07.33-.11.51a4.93,4.93,0,0,1-1.56.25c0,.06-.11.21,0,.28s0,.27-.08.4c-.3,0-.71.21-.93,0s-.28,0-.45,0a1.8,1.8,0,0,1-.39-1.19c-.11-.13-.06-.43-.31-.39s.11.48-.2.49a.69.69,0,0,1-.24-.34c-.15-.27-.29-.63-.59-.77-.27.15-.27-.4-.58-.38C66.3.64,65.3.8,65.25.07l0,0A.47.47,0,0,1,64.8,0a2.13,2.13,0,0,1-1.45,0L63,.19l0,0a1.75,1.75,0,0,1-1.16.19c-.2.23-.52.16-.77.28s-.42-.11-.38.2c-.08,0-.22.15-.29.2.19.08.43-.06.45.2a.18.18,0,0,1-.18,0c-.27.24-.59-.06-.95.12a5.18,5.18,0,0,0-.68.19c.17.8-.67.9-1,1.37,0,.45-.35.71-.61,1s.27.48.07.82A5.3,5.3,0,0,0,56.8,6,11.38,11.38,0,0,0,56,8.15c.08.24,0,.65.3.7.14.26.54.47.39.8a1.67,1.67,0,0,0,.51,1.11,2,2,0,0,0,.12.78c.14.19.28.44.57.38.08.13.35.07.32.28l.66.51c0,.12.08.28.2.33,0,.25.25.12.31.31s.19.11.24,0c.13.17.17-.11.26-.09.12.2.42-.07.45.26,0,.07-.06.18-.17.23.17.16-.22.2-.12.42-.38.32-.45.84-.8,1.12s0,1-.41,1.36c-.19.36,0,.93-.42,1.13,0,.15-.14.33-.06.47s0,.16-.1.2,0,.29,0,.38A1.07,1.07,0,0,1,58.52,20c-.37.54-.19,1.34-.34,1.9.16.21,0,.54,0,.77s.11.19.21.24a1.74,1.74,0,0,1,.31.14c.24-.21,0-.57.13-.81.15-.09.2-.23.38-.24.23-.74.07-1.54.27-2.35l.07-.06,0,0a.64.64,0,0,0-.39-.54,1.33,1.33,0,0,1,.74-1.25l0,0c.15-.06.24.14.36.21s-.06.15,0,.25.18-.17.33-.17c-.11.34.38.64.19,1h.1a1.69,1.69,0,0,0,.1.53c-.14.27.26.72.26.72s.1,0,.14,0,.14-.08.15-.15a2.58,2.58,0,0,1,.1-.45c-.06,0-.13.12-.18,0a.37.37,0,0,1,.06-.16c0-.07.07-.18,0-.29a1,1,0,0,1,0-.23c0-.28.12-.47,0-.73,0-.11,0-.25,0-.27l0,0c0-.06,0-.08-.06-.12s.09-.14.2-.18.16-.2,0-.34c.19-.13-.06-.29.06-.48.38-.13-.07-.34.06-.51-.33-.21.18-.45-.06-.63l.08-.06,0,0a1,1,0,0,1,.35-.61c-.1-.2.12-.32.24-.46s.26,0,.26-.21c.31,0,.11-.28.26-.38s.12-.21,0-.24-.25,0-.36.09a12.21,12.21,0,0,1-1.22,1.39c-.12,0-.25,0-.29-.14s0-.16.09-.19c-.06,0-.14,0-.17-.06,0-.26.28-.4.43-.6a7.81,7.81,0,0,1,.83-1.08l0,0c.13-.44.58-.74.67-1.16-.06,0-.07.08-.12.12-.4-.24.15-.57-.07-.84-.08,0-.17-.12-.22-.09s-.31,0-.26-.18c-.41.26-.87.65-1.27.94l0,0a.29.29,0,0,1-.15.42c-.15.08-.24-.18-.36-.18-.32.07-.22-.34-.39-.51-.22.07-.29-.21-.51-.09-.17,0-.06-.21-.1-.32-.24-.19-.33.09-.57.07-.28-.19.06-.41-.17-.61a.34.34,0,0,1-.45-.31c-.13-.33.26-.57.08-.89-.07-.13,0-.4-.2-.36a.5.5,0,0,1-.14-.27c-.16-.08-.19.07-.32.14a.25.25,0,0,1-.23-.14c.08-.38-.39-.23-.44-.6a12.11,12.11,0,0,0,.26-1.25h0c0-.19.08-.39-.07-.52a.44.44,0,0,1,0-.48c-.17-.29.14-.47.22-.71h0c.06-.43.58-.59.65-1.06-.14,0-.33.2-.41,0a.39.39,0,0,0-.09-.26c0-.08-.08-.17.09-.26.36-.09.36-.47.64-.65h0l0,0A.33.33,0,0,0,58.94,3a.79.79,0,0,1,.23-.36c.13,0,.16-.15.27-.21s0,0,0,0h.06a5.38,5.38,0,0,0,1-.47l0,0a2,2,0,0,1,.33-.14c.23-.27.61-.06.81-.34s0-.33.19-.44.37,0,.5,0a2.73,2.73,0,0,0,.84-.1l.16,0a.84.84,0,0,1,.3,0l0,0c.16-.21.31-.14.48-.08a.47.47,0,0,0,.29,0v0c.11,0,.22.06.27,0A.6.6,0,0,0,65,.83c.09,0,.19,0,.23.14a.22.22,0,0,0-.07.08c0,.12.19.2.23.34h0a.54.54,0,0,1,.14.13c.07.09.14.2.24.23,0,.18.13.18.25.18a.19.19,0,0,1,.14,0,5.12,5.12,0,0,1,.79.74,1.3,1.3,0,0,1,.19.32c.09.13.34.07.38.26,0,0,.07,0,.11,0l.15.14a.32.32,0,0,0,.18.15l.09.08a1.54,1.54,0,0,1,.49.63l.24,0a1,1,0,0,1,.26,0c.26-.12.38.07.52.2a.32.32,0,0,0,.34.1H70a1.62,1.62,0,0,1,.47,0l.43,0,.06-.44c.07-.31.34-.32.58-.46.17.08.37-.17.53-.09.09-.09.26,0,.33-.14h.31l.91-.62a3.34,3.34,0,0,0,.77-.07l0,0c.24-.24.53,0,.79,0l.07,0a.32.32,0,0,1,.11.21s0,.07,0,.11c-.24.22-.54.14-.83.21s-.31.21-.46.12a.75.75,0,0,0-.5.28c.08.33-.42.33-.38.64s.47,0,.71.06a16.4,16.4,0,0,1,2.48-.7c.35-.07.76-.07,1.06-.17h1.8c.45,0,.72.37,1.09.52,0,.08-.06.18,0,.25-.89.22-1.85-.38-2.8,0-.28.12-.81-.17-.87.27.58.31,1.15,0,1.75.15,0,.37-.45.13-.67.19s-.16.13-.2.21c.11.35.63.3.92.37.32.27.9.26,1,.78.06,0,.11,0,.14,0s.39.06.39.28l.31,0c.06-.24-.19-.4-.17-.64l-.48-.24c-.15-.16-.48-.14-.51-.41.41-.15.67,0,1.11,0,.34.37.47.12.92.19l0-.14c-.07-.45-.61-.83-.43-1.38h0c0-.07.13,0,.21,0,.21.27.53.26.76.47h0s.06,0,.07.07h.08c.14,0,.28,0,.32-.14a1.06,1.06,0,0,0,.2.4,4.37,4.37,0,0,0,.55.54c0,.07,0,.19.14.17.26.26.73.25,1,.4,0,0,0-.12,0-.18a.15.15,0,0,1,0-.06c.08-.09.24,0,.34,0a10.25,10.25,0,0,1,1.06.84,3.5,3.5,0,0,1,.34.39c0,.27.27.51.44.71.34,0,.46.42.58.66.57.21.18-.61.65-.78a.12.12,0,0,0,.18,0c.74.47.41-.66,1-.67A12.42,12.42,0,0,0,90.52,4.4c-.06-.1-.12-.24,0-.32a.47.47,0,0,1,.08-.19,1.67,1.67,0,0,1,.91-.63A3.09,3.09,0,0,0,92,3c.35-.3.85-.27,1.24-.53.25,0,.43-.19.67-.12A1,1,0,0,0,94,2.2a.46.46,0,0,1,.2-.23c.18,0,.49,0,.61.14a.63.63,0,0,1,0,.08s.08,0,.11,0c.37.29.93.08,1.32.27.25,0,.2-.18.28-.34a6.91,6.91,0,0,0,1.23.25h0l.07,0,.07.08,0,0a6.53,6.53,0,0,1,1.39,1.56c.4.19.35.7.53,1a1.42,1.42,0,0,1,.76,1.06l0,.11a1.23,1.23,0,0,1,0,.21.22.22,0,0,1-.11.19c-.11.1-.19,0-.26-.13S100.16,6,100,6c0,.85.55,1.55.59,2.4a7.85,7.85,0,0,0-.12,1.47c-.14.12-.2.31-.35.38s-.14-.3-.31-.28,0,.11-.06.16c.26.65-.15,1.13-.48,1.64-.49.38-.76,1-1.35,1.31-.15.08-.26-.06-.37-.14,0-.26.22-.38.18-.58h-.11c-.56.6-1.09,1.33-2,1.31-.11-.15-.34-.06-.43-.26s.07-.18.11-.26-.21-.11-.27,0,.09.26.19.4a2.21,2.21,0,0,1-.47.94c-.22,0-.52.11-.75,0-.19.39-.7,0-.7.53-.15,0-.19-.13-.33-.11-.27.23.11.47,0,.7a5.19,5.19,0,0,0-.06.74c-.08.12,0,.38-.25.36-.16-.58-.23-1.19-.36-1.78-.2-.32,0-.67-.31-.9-.11-.13-.23,0-.37,0a8.48,8.48,0,0,1,.27,1.35,2.38,2.38,0,0,1,0,2,.32.32,0,0,1-.37-.12c.17-.55-.14-1.11-.06-1.64-.43,0-.36-.51-.58-.66a4.13,4.13,0,0,1-.06,1.58,2.36,2.36,0,0,1,.18,1.35c-.16.32.2.58.3.87a2.13,2.13,0,0,0,.18.53c-.07.15-.06.34-.22.42s-.22-.08-.33-.14a4.47,4.47,0,0,1-.18,1.39,1.12,1.12,0,0,0,.28.8l.07-.06a7.91,7.91,0,0,1,.12-1.17c.33-.33.27-.86.4-1.3s-.31-.63-.26-.94l.14,0c.15-.21.36.14.54.1,0-.22-.25-.4-.07-.63l.21,0c.08.08.24.17.2.34a11.05,11.05,0,0,1,.4,1.23c-.11.52.08.89,0,1.38-.18.11-.51,0-.55.34.27.12.09.47.15.64-.09.78.22,1.61-.12,2.28-.1.45.19.64.48.84a.94.94,0,0,1,.45.56.82.82,0,0,1,0,.18,2.37,2.37,0,0,1,.46.54,1.39,1.39,0,0,1,.21,1,2.22,2.22,0,0,1,.48.83c.26.12.28.47.54.59a1.32,1.32,0,0,0,.6.83,1.61,1.61,0,0,1,.18.14c0,.16.32.26.18.47h0c-.45.32.29.48,0,.89a.4.4,0,0,1-.38.24c-.25.27-.14.7-.13,1s-.18.55-.51.41c-.14.07-.08.3-.12.37.2.66-.71.94-.44,1.55-.27.74-.65,1.43-1,2.16a1.52,1.52,0,0,1-.86,1.13.55.55,0,0,1-.19-.47A3.37,3.37,0,0,0,92.92,36h-.07a5.8,5.8,0,0,1-.73.91c-.25.19-.42.48-.75.46-.06-.13-.16-.24-.08-.4.25-.22.45-.58.72-.8.08-.19.38-.34.28-.56-.29.21-.69.4-.83.77s-.38.32-.46.6c-.34.08-.64.6-1,.25a.57.57,0,0,0-.32.34c.22,0,.39-.17.64-.07s.08.22.13.33l-.32.26a.42.42,0,0,0-.09.06c-.11.06-.21.13-.32.18l-.13.06-.66.29c-.34.19-.53-.15-.79-.29l0,0,.08-.06c-.11-.33.35-.25.47-.42.44,0,.57-.44,1-.54v-.07c0-.2-.19-.17-.31-.25-.11-.28.27-.47.44-.71.16,0,.25-.09.37-.19-.08-.12,0-.27,0-.39a.85.85,0,0,1-.39,0c-.13,0-.08-.24-.25-.2a3.63,3.63,0,0,1-1,1.32c-.25.21.09.52-.15.68s-.21.09-.37.13a.09.09,0,0,1,0,.1c-.21.15-.5.11-.7.32-.14-.07-.19-.29-.38-.28s-.33.18-.5.27l-.18.09h0l-.19.34a.83.83,0,0,0,0,.17,1.65,1.65,0,0,1,.67-.32h0a.17.17,0,0,1,.08,0l.08,0,0,0,0,0c-.21.6-.89.71-1.43.86-.31-.45-.67.06-1,0a4.61,4.61,0,0,1-1.89.41c-.18-.1-.2-.32-.25-.44a3.5,3.5,0,0,1-1,.14c-.46.21-.9.67-1.42.51a.21.21,0,0,1-.13-.25,1.17,1.17,0,0,1-.21-.25,3.39,3.39,0,0,0-.55.21l-.11,0a.69.69,0,0,0-.15.15c-.42,0-.94.1-1.44.17a.74.74,0,0,0-.25.38.38.38,0,0,1,0,.36,1,1,0,0,1-.89.13c-.49,0-1,.35-1.55.26-.51.32-1.12.09-1.64.06-.35.31-.79.08-1.26.12-.39-.43-.87.18-1.25-.19s-.79-.54-1.18-.84c-.27-.06-.38-.31-.64-.4-.33-.36-.89-.34-1.19-.73,0-.42-.44-.44-.76-.57a.55.55,0,0,1-.33-.25.54.54,0,0,1-.09-.21,4.76,4.76,0,0,1-1.37-.45c-.31-.47-1-.38-1.28-.85-.27.22-.32-.24-.57-.21-.39.25-.72-.19-1-.29-.08.09-.1-.08-.15,0s-.07,0,0-.09c-.3-.14-.26.28-.57.09a7.48,7.48,0,0,0-1.38-.59,11.41,11.41,0,0,0-1.23-.71c-.79.13-1-.87-1.51-1.23-.29.08-.15-.27-.36-.33s-.08.24-.21.3a1,1,0,0,1-.34-.33l.12-.08c.33-.21,0-.55-.07-.82.15,0,.15-.2.21-.32.09.13.41.19.29.39,0,0,.08,0,.09,0l0,0,.11,0c.28.2.39.53.66.73h.11a1,1,0,0,1,.11.29c.33-.11.45.15.68.33.33-.28.43.21.65.29a.25.25,0,0,0,.39-.06.14.14,0,0,0,.14,0c.14-.11.2.09.28.18l0,0,.18.26c.17.16.37-.08.49,0L60,33.88h-.07c-.39-.63-1.18-.8-1.36-1.56-.19-.27-.07-.62-.27-.87-.39-.18-.07-.66-.41-.91-.06.2-.32.39-.18.63a7.07,7.07,0,0,1-.18,1.12c-.71-.32-.68-1.19-.78-1.76-.15,0-.09-.28-.28-.25a2.63,2.63,0,0,0-.31.84.91.91,0,0,1-.28.51,10,10,0,0,1,.17-2.36A.48.48,0,0,0,56,28.7c-.24,0-.27.21-.42.37a.28.28,0,0,0-.25-.18c.07-.24.11-.39.33-.51.07-.07.14-.18.07-.27s-.12,0-.18,0-.21,0-.15-.15c-.07-.53.6-.81.85-1.24s.82-.65.71-1.2c-.15,0-.09-.17-.14-.26a5.2,5.2,0,0,1,1.7-1.37c-.06,0-.09,0-.14,0l0,0a.73.73,0,0,1,.11-.14h0l.13.08c-.08-.06.06-.3.08-.44a.33.33,0,0,1-.16,0c-.28,0-.39-.4-.64-.5-.61.21-.55-.61-1.12-.5-.08.1,0,.32-.21.32-.2.45.42.5.44.92a1.85,1.85,0,0,1-1.18.54c-.2.27.18.37.25.58-.07.52-.59.09-.86.21v.21c.11.45.75.07.72.6-.12.18-.32.12-.47.16-.15.26-.6.16-.63.51,0,.19.26.09.32.28-.11.19.13.33-.12.4-.37.25.27.41,0,.66-.28.09-.19.51-.49.59,0,.41-.4.63-.41,1s0,.67,0,1,.27.52.11.8-.19.57,0,.79a.47.47,0,0,0,.25.21s.1,0,.08-.09c.44-.14.27.5.5.72.13.38.39.7.53,1,.17.07.29,0,.43-.07h0l.07.08h0c.31.41.9.53,1.1,1,.08,0,.12,0,.21,0a12.32,12.32,0,0,1,1.42,1.32c.08.14.2-.07.27,0v0c.11,0,.23.19.34,0,.22-.5.44.17.78.09,0,.31.33.36.55.32.19.27.55.06.67.39l0,0c.26.26.6.22.9.32.12,0,.15.25.27.07.18.1.34.19.52.27s.44.45.74.41c0-.14,0-.32.13-.4l0,0,.14.1a.73.73,0,0,1,.37.32c.14.24.47.07.64.12s.19.32.38.32l.17.19a1.36,1.36,0,0,1-.17.46c-.39,1-1.43,1-2.23,1.17A46.51,46.51,0,0,0,54,44.68c-1.1,1.06-2.65,1.45-3.47,2.8a61.58,61.58,0,0,0-9.16,10c-1.11,2-3.95,3.38-3.73,6-.67,3.37,3.24,3.82,5.16,5,.76.18,5.49-.11,9.32.06a27.28,27.28,0,0,0,6.18-.28,9.75,9.75,0,0,1,1.31-2.35l-.14-.05a.42.42,0,0,1,0-.63,1.43,1.43,0,0,1,.49.15l.42-.61a1.76,1.76,0,0,1-.61-.38l.13-.32a1.88,1.88,0,0,1,.79.27l.44-.62a1.72,1.72,0,0,1-.92-.52c-.11-.6.63-.57.93-.37l.42.28L62,62.5a2,2,0,0,1-.72-.45.49.49,0,0,1,.32-.48,3.37,3.37,0,0,1,.9.25l.43-.57a2.32,2.32,0,0,1-.22-.2c.05-.29.35-.38.63-.35l.78-1L68,60.73c-.4-.18-.8-.34-1.2-.49-.49-.67.6-.7.8-1.24a2.39,2.39,0,0,0-.31-2.86,3.55,3.55,0,0,0,.55-2,1.82,1.82,0,0,0-.3-.76c-.89-1.27-2.23-1.09-3.6-1l-.19.31c.08,2,.08,4.28,0,6.21a4.32,4.32,0,0,1-2.44-.18L61,58.45c.15-3.15-.61-6-3-8.21a10.34,10.34,0,0,0-4.58-2.12c-.08.07-.29.07-.21.26.39.24.85.28,1.15.74l-.32.11c-.78-.31-1.84-.07-2.43-.67.28-.44.39-1,.88-1.3,2.15-.38,3.67,1.1,5.65,1.36.28-.13,0-.37-.13-.5a8.38,8.38,0,0,0-3.56-1.43.47.47,0,0,1-.18-.44,26.93,26.93,0,0,1,7.6-4,4.18,4.18,0,0,1,2.43-.69c1.56,2.36,3.4,4.7,6.1,5.66A12.77,12.77,0,0,0,78.59,49a6.86,6.86,0,0,0,3.28-1.37c1.83-1.92,4.37-2.93,5.1-5.6.78-.71.18-2.41,1.56-2.41,1.91-.11,3.41.83,5.15,1.11,2,.89,4.67.85,5.73,3.11,1.35,2.9.8,6.69.93,10A66.72,66.72,0,0,1,98.93,66c-.14.65-.55,1.43-.14,2.08.58-.65.75-1.58,1.38-2.19.33.64.07,2.79,0,4.1l.16.08c.63.51.93,1.2.73,1.49l.84.07a2,2,0,0,1,.32-.79,4.2,4.2,0,0,1-.6-1.47l.14-.26c0-3.43-.5-6.18,0-9.57.11-.41.8-.28,1.06-.13a26.24,26.24,0,0,0,5.37.5c.5-.11,1.19.07,1.17.74,0,1.54.07,2.86-1.06,3.92a13.25,13.25,0,0,1-1.56,3.19,4.17,4.17,0,0,1-.65,3.31,2,2,0,0,1,.22.9l8.2.64c.33-2,3.69-3.15,3.82-5.3l2.8-5.42C123.2,58.09,123.48,61,122.83,53ZM60.44,17.9a2.17,2.17,0,0,0-.31-.64l.24-.27C60.41,17.29,60.68,17.6,60.44,17.9Zm-.75-.58c-.16.12-.26.34-.47.34a3.8,3.8,0,0,1,.91-2.24c.3.16.52-.26.6.22C60.38,16.19,59.52,16.44,59.7,17.32Zm1-4.66,0,.06C60.55,12.71,60.64,12.7,60.66,12.66Zm.15,1.85c.06.2-.19.33-.21.53h-.06c.07-.07,0-.19-.07-.26S60.63,14.46,60.81,14.51ZM75.73,3l.11-.3.46.2,0,.14C76.12,3,75.86,3.2,75.73,3ZM79,2.72a2.16,2.16,0,0,1-1.12.06c-.25-.24-.55-.61-.4-1,.27-.13.28.25.49.37s.33.28.55.21-.06-.54.17-.71C78.78,2,79.45,2.34,79,2.72ZM65.82,58.33c-.13,0-.24-.11-.24-.19l.06-1.19c.33-.13.44.26.57.44A1,1,0,0,1,65.82,58.33Zm-.18-4.55c.26-.07.39.21.5.37a.94.94,0,0,1-.19.93c-.07.11-.2.06-.31.13A2,2,0,0,1,65.64,53.78Zm-9.16-1.31a.37.37,0,0,0,.45-.24c0-1-.91-1.58-1.38-2.39h.39c2.43,1.35,3.43,4.07,3.73,6.66,0,.65.08,1.43-.57,1.68-1.54,0-3.27.11-4.49-.8-2.28-.85-5.39-1.13-7.51.24,1.11,0,2.2.37,3.24.21,2.52-.06,4.49,1.5,7,1.3a19.41,19.41,0,0,1,4.23.8v.44c-2.13,1.65-3.71,3.84-3.38,6.53a.75.75,0,0,1-.8.63c-5.47-.06-11.85.85-16.85-1.25C39.38,66,39.79,64.67,39,64c-.85-2.48,1.82-3.44,2.86-5.28,2.61-3.27,5.08-7.21,8.79-9.33C53,49.43,54.77,50.89,56.48,52.47Zm8.9-11h-.24c-.15-.13,0-.31.06-.41h.18Zm.7,1.69c-.24-.23-.44-.58-.18-.86.33-.46.93-.33,1.43-.44l0,.13C67.09,42.4,66.75,43.16,66.08,43.13Zm1.56,1.24-.44,0c-.19-.71.77-1.23,1.18-1.56.11.07.3,0,.32.24A2.7,2.7,0,0,1,67.64,44.38Zm1,1.24c-.28-.2-.52-.57-.24-.85s1-1.82,1.56-.83c.15.75-.67.93-.74,1.55C69,45.62,68.81,45.77,68.62,45.62Zm1.82.93a.69.69,0,0,1-.62-.48c.47-.37.65-2.34,1.43-1.06C71.06,45.57,71,46.29,70.44,46.55Zm1.78.63c-.31.13-.57-.18-.67-.37a2.46,2.46,0,0,1,.67-1.42c.41-.21.5.28.63.49C72.63,46.29,72.59,46.87,72.22,47.17Zm1.64.76a.6.6,0,0,1-.58-.26,2.15,2.15,0,0,1,.5-1.67.57.57,0,0,1,.63.54C74.22,47,74.61,47.93,73.86,47.93Zm1.91.31c-.57.28-.54-.47-.63-.8a1.35,1.35,0,0,1,.39-.93.41.41,0,0,1,.37.37A2.24,2.24,0,0,1,75.78,48.24ZM77,48.5c-.47-.37-.15-1.09-.26-1.5.18-.19.15-.58.5-.5.72.26.44,1.24.51,1.78A.59.59,0,0,1,77,48.5Zm1.91-.21c-.31.13-.44-.26-.54-.41,0-.39-.2-1,.11-1.24.7-.15.46.65.7,1C79.14,47.87,79.17,48.21,78.89,48.29Zm-3.34-3a13.36,13.36,0,0,1-3.86-1.74v-.13c.73-.31,1.37.67,1.87-.13,1.22.7.7-.93,1.61-1,1.41.63,2-1.39,3.19-.48.8-.34,2.28,0,2.36-1.12a6,6,0,0,1,.55-.38l.13.49c.57.5,1.61-.49,1.74.45-.26,1.87-2.41,2.56-3.65,3.8A6.93,6.93,0,0,1,75.54,45.31Zm4.86,2.48c-.89.16-.5-.77-.71-1.29.06-.24.08-.5.32-.58.57.11.44.86.7,1.25A.53.53,0,0,1,80.4,47.79Zm1.11-1a1.91,1.91,0,0,1-.37-1.87h.24a5.8,5.8,0,0,1,.7,1.74C81.94,46.87,81.66,47.07,81.51,46.81Zm1.5-.89c-.74-.12-.59-.92-.89-1.42.71-1.12.76.65,1.2,1C83.27,45.68,83.2,45.88,83,45.92Zm1.35-1.05c-.7-.11-.83-.89-1-1.43-.13-.13,0-.34.18-.36.52.13.8.7,1.11,1.12C84.61,44.45,84.64,44.79,84.35,44.87Zm1.15-1.35a1.86,1.86,0,0,1-1.37-1.21.68.68,0,0,1,.31-.44A1.92,1.92,0,0,1,85.68,43C85.68,43.13,85.7,43.42,85.5,43.52Zm.1-1.69c-.1-.08,0-.21-.06-.32.24-.22.78-.15.8.24C86.2,42.14,85.83,41.83,85.61,41.83ZM108.75,67a4.24,4.24,0,0,1,.57-1.63c.17-.21.39-.5.63-.23A3.35,3.35,0,0,1,108.75,67Zm.89.8a.4.4,0,0,1,.31-.63A.54.54,0,0,1,109.64,67.84Zm.62-1.19a6.62,6.62,0,0,1,.63-1.93c.15,0,.26.06.31.19C110.88,65.5,111.11,66.52,110.25,66.64Zm.86,1.5h-.19c.11-.26,0-.72.39-.75C111.29,67.58,111.4,68,111.11,68.14Zm1.24.67a.88.88,0,0,1,0-.93c.39-.8.57-1.68.93-2.48a.48.48,0,0,1,.57.31c0,1.14-1,1.84-1.19,2.88Zm-.8-1.73c.08-.72,0-1.89.8-2.17l.21.26A3.11,3.11,0,0,1,111.55,67.08Zm2.26,2.58c-.15,0-.28-.17-.31-.26a10,10,0,0,1,1-2.86c.19-.37.6-.11.62.18C114.72,67.68,114.2,68.64,113.81,69.66Zm1.3-.21-.13-.11a11.1,11.1,0,0,1,.8-2.12H116A4.27,4.27,0,0,1,115.11,69.45Zm.74.88a2.22,2.22,0,0,1,.63-1.86h.13C116.4,69.1,116.48,70,115.85,70.33Zm4.18-8c-.89,1.38-1.71,2.75-2.71,4.05H117a12.11,12.11,0,0,0-6.1-2.8,8.64,8.64,0,0,1-.18-3.48l.36-.36c2.16-.78,4.62-.54,6.85-.93l.13-.26c-.89-.68-2.1-.52-3.12-.8v-.13c.6-.44,1.54-.58,1.8-1.3-3.58.28-6.49,2.62-10.33,2.54-1.09-.28-2.46-.13-3.28-.87,0-1,1.29-1.66.8-2.73-.67.37-.8,1.22-1.61,1.24-.1-1,.28-1.68,0-2.67-.46.11-.31.8-.8.93-.24-2,.19-3.57-.13-5.41a12.8,12.8,0,0,0-1.5-6l.13-.37c.52,0,.8.47.93.89.8,2.52,1,5.34,1.55,8l.19.13c1-2,0-4.56-.37-6.52,0-.52-.5-.89-.31-1.38.46-.7,1.19-.18,1.74-.07a44,44,0,0,0,4.54,1.76c3.19,1.19,6.06,3.17,9.16,4.59,1.37,1.12,3.49,1.19,4.22,3.06A16.13,16.13,0,0,1,120,62.29ZM66.4,9.32a.85.85,0,0,0-.27-.47ZM75,34.71c-.28-.44-.93,0-1.47-.22s-1-1.05-1.55-.55c.38.38.87.58,1.25,1A2.9,2.9,0,0,0,75,34.71Zm-6.89-25a3.76,3.76,0,0,0-1.62,2.11c.14-.09.25,0,.38,0a8.5,8.5,0,0,1,1.29-1.18c.15-.18.44-.11.53-.32.48-.11.89-.75,1.44-.72.3-.31.43.14.72.06.36-.24.4.31.78.13.19-.12.47.08.66,0,.06-.45.76-.12.51-.7-.11-.26-.26-.19-.49-.24-.65.21-1.34-.37-1.94.18-.23,0-.56.22-.72-.09.12,0,.08-.15.11-.24.36-.13.68-.47,1.06-.48.13-.18,0-.36-.14-.51-.12,0-.29-.06-.39.06a.46.46,0,0,1-.5-.2c-.09-.09-.24,0-.34,0-.54,0-.82.55-1.22.85-.1.32-.52.26-.53.63.19.06.2-.19.37-.2s.3,0,.36.19A.53.53,0,0,1,68.15,9.72ZM85.42,8.34c-.44-.14-.89.08-1.25-.26-.42.07-.76.36-1.17.42-.39.27-.92.18-1.3.41.24.45.72,0,1.1.14l.06.08c.07.16-.12.16-.21.28s-.19.26-.08.37a2.17,2.17,0,0,1,1,.07c.3.15.65,0,.92.18.51,0,.85.54,1.28.83a4.8,4.8,0,0,0,.53.45l0-.24c-.45-.41.2-.87-.07-1.33C86.42,9.1,85.82,8.68,85.42,8.34ZM62,26.07l.16.06L62,26ZM89.75,14.24a8,8,0,0,0-1.43-2.65l-.19-.15-.06.17c.17.45.66.81.71,1.3-.13.14-.2,0-.32.09a5.55,5.55,0,0,0,.45,1.28c.12.24-.14.35-.18.57a5.56,5.56,0,0,1,.78,1.8c.18.42-.33.44-.31.83-.19-.07-.2-.28-.41-.33l0,.2c.27.47.34,1,.58,1.47.07.27-.2.74.16.85a2,2,0,0,0,.08-.88,8.21,8.21,0,0,1-.14-1.12c0-.28.45-.12.44-.4-.17-.25,0-.52-.07-.77,0-.09.1-.14.15-.15.24-.46-.19-.8-.26-1.22,0-.26-.32-.46-.21-.76A.19.19,0,0,1,89.75,14.24Zm-28.13,10c-.13-.08-.18.11-.28.09s-.08-.06-.06-.11c-.22,0-.27.24-.29.41-.38.4-.79.76-1.15,1.1s-.6.18-.67.6c-.18.11-.32.44-.55.32a.31.31,0,0,0,0,.18,8.6,8.6,0,0,0-.16,2.31l0,.06a4.73,4.73,0,0,0,0,1.43c.11.24,1.25.89,1.39,1.09a.51.51,0,0,0,.31.21l0,.13s.29,0,.25.25.73,1,.73,1l.6,1.08,1,.4a.63.63,0,0,0,.16.41c-.08.46.43.14.58.41a10.09,10.09,0,0,1,1.48.32c.51.28,1.05.15,1.62.39.31-.15.67.16.94,0a5.11,5.11,0,0,1,2,.46,10.93,10.93,0,0,0,1.64,0,2.37,2.37,0,0,1,.58,0,14.57,14.57,0,0,1,2.46.32c.5-.3.9.44,1.35.07.14-.12.32.14.43-.06a2.16,2.16,0,0,1,.71.1c.27-.06.4.39.73.24s.45.09.65,0,.33-.15.6,0l.61-.23c.17.11.24-.12.39,0,.4-.32.84-.16,1.2-.47.12,0,.24.06.32-.06a3.54,3.54,0,0,0,1.06-.25,1.73,1.73,0,0,1,.71.19c.32.07.59-.2.82-.41.29.07.39-.26.69-.19a6.61,6.61,0,0,0,1.17-.48c.22,0,.31,0,.44-.18a3.49,3.49,0,0,0,.73-.32c.39,0,.47-.35.85-.35.14-.27.53-.13.73-.32A.9.9,0,0,1,88.7,34l.11.22c.17-.11.22-.07.42-.13a4.18,4.18,0,0,0,.9-1c.13-.33.06-.73.4-1a16.27,16.27,0,0,0,.32-2l.08-.06-.21-.31s0,0,0,0c0-.17.12-.25.18-.38s.15-.51-.14-.51a.62.62,0,0,1,.08-.72,5.25,5.25,0,0,1,0-.89,3.33,3.33,0,0,0-1.76-2c-.27-.35-.72,0-.91-.46-.42-.07-.64-.46-1.07-.48-.19-.4-.6-.25-.92-.22-.33-.23-.86-.48-1.24-.26,0-.17-.17-.22-.24-.38-.33,0-.67-.25-1-.23-.19-.27-.42.16-.62-.11,0-.44.44-.63.55-1,.32-.27.35-.69.6-1,.08-.14.06-.35.24-.45,0-.12.13-.31-.06-.35-.18-.32.26-.21.33-.4s0-.14,0-.19-.15.18-.26.11-.08-.07,0-.14c.25-.15,0-.3.13-.53.43-.28-.08-.66,0-1A.25.25,0,0,1,84.8,18a.71.71,0,0,0,0-.58c.4-.37-.11-.8-.06-1.12-.12-.28.15-.36.29-.52,0-.54-.44-.9-.58-1.42-.09-.06-.25-.06-.33-.14a.24.24,0,0,1,0-.12c-.07-.33.32-.17.42-.32a2.51,2.51,0,0,0-.21-.48c-.36-.06-.46-.33-.72-.37-.2-.67-.95-.25-1.39-.56-.19-.07-.29-.28-.51-.31a4.39,4.39,0,0,0-1.16-.19c-.47.55-1-.33-1.42.31a2.91,2.91,0,0,1-.95,1.13c0,.41-.65.46-.54.92,0,.15-.2.13-.32.11-.66,0-.12.66-.4,1-.06.31-.43.46-.49.77a4.58,4.58,0,0,1,0,1.32c-.23.41-.2,1-.52,1.31-.07,0-.17,0-.19-.08A12.21,12.21,0,0,1,76,17a13.54,13.54,0,0,1-.25-1.39,4.79,4.79,0,0,0-.25-1.52l0,.11c-.11.17-.33.17-.51.18s-.14-.14-.16-.24c.14-.28-.1-.58-.27-.79-.41.06-.45-.37-.77-.54l-.23-.45c-.14-.09-.4-.18-.4-.33l0,0c0-.2-.25-.2-.34-.35s-.37,0-.57.07a2.74,2.74,0,0,0-1.83-.24l-.13.46c-.06.25-.28.25-.48.29s-.49.19-.41.51c-.3,0-.41.37-.73.3-.08.21-.32.14-.42.35A6.47,6.47,0,0,1,67.31,15c0,.18-.38.29-.13.51.41.08.22.54.25.79a.5.5,0,0,1-.35.26c-.2.4,0,.76,0,1.15-.15.24-.5-.16-.45.26.13.17.18.4.38.5s.1.45,0,.7a.65.65,0,0,0,.19.17c.17.21.57.42.34.77a6.22,6.22,0,0,0,.5.47c0,.08.09.13.19.13a.84.84,0,0,1,.27.47s0,0,0,0,.13.34.25.41a.22.22,0,0,0,.16,0c.12-.37-.35-.48-.13-.89a2.39,2.39,0,0,0-.73-1.1c.07-.26-.13-.48-.08-.7a9.19,9.19,0,0,1-.26-2.29c.21-.64.43-1.28.69-1.89.47-.33.61-.85,1-1.26.28,0,.14-.3.4-.37a1.35,1.35,0,0,0,.64-.4c.53-.09,1-.63,1.59-.28.08,0,.17.2.26.14a3.73,3.73,0,0,0,.56-.31c.35.5.93.86,1.28,1.44.73.37.55,1.32,1.09,1.83.07.26.27.61,0,.84,0,0-.06,0-.11,0-.42-.61-1-1.43-1.92-1.23A4,4,0,0,0,71,17.46,8.18,8.18,0,0,0,70.74,19c-.09.65.31,1.16.51,1.73.08.26-.14.45.1.6l-.16.22a5.92,5.92,0,0,0-1.32.56c-.12,0-.14-.19-.28-.14l-.5.17a2,2,0,0,1-.79.09c-.34-.2-.52.19-.85.2-.34-.14-.63.21-1,.19a3.49,3.49,0,0,1-1.7.37c-.41-.54-.48.41-.94.27-.12.1-.4-.09-.4.15-.22.32-.64.14-.86.34C62.3,24.11,61.68,23.66,61.62,24.22Zm13.21-3.77.26-.21c.08.06.09.15.2.06l.12-.33a.44.44,0,0,1,.07.46.31.31,0,0,1-.38.3c-.21,0-.35-.14-.47-.15C74.61,20.36,74.74,20.53,74.83,20.45Zm-1-3c.26-.08.17.3.25.45-.11.15.11.3.08.46s-.13.37-.37.4a.58.58,0,0,1-.5-.19C73.07,18,73.64,17.83,73.79,17.44Zm-11,7A3.44,3.44,0,0,0,63.95,24c.13-.06,0-.26.2-.3.22.25.52,0,.71-.08a1.38,1.38,0,0,1,1.07-.31c.13.08.39-.1.47.13a1.12,1.12,0,0,1,.83,0c.16-.14.28-.47.63-.34.1-.17-.08-.14-.13-.26s.08-.19.17-.25c.44-.09,1,0,1.37-.1.22.26-.12.51-.07.76-.33.73.48,1.25.7,1.89s1,.85,1.62,1.17a14.32,14.32,0,0,1,2.07,1c.06,0,.22,0,.29.11A10.66,10.66,0,0,1,74,30l-1.48.74c-.71.19-1.25.67-2,.79a9.59,9.59,0,0,1-1.88.8c-.33.6-1.12.35-1.71.44-.44.29-.92-.37-1.26.08-.22-.07-.51.06-.66-.21a6.52,6.52,0,0,0-.38-.78c-.2-.46-.59-.67-.66-1.16a21.64,21.64,0,0,0-2.6-3c0-.07.14-.13.06-.2s-.11,0-.14,0l-.06-.11a.17.17,0,0,1,.23-.15v-.06s.07-.14.15-.09,0-.13,0-.18c.2,0,.07-.27.25-.27s.48.06.74.13c0-.09.08-.12.06-.2l-.59-.5-.63.06c-.11.13-.26.23-.33.38-.19.43-.72.28-1,.64-.28-.09-.18.3-.33.41a.53.53,0,0,0,.32.2c0,.42.53.66.74,1,0,.31.44.39.54.61s.36-.19.39.17.57.54.76.89c.38.23.54.7.84,1a.51.51,0,0,0,.15.4l.12-.08c.14.12.08.35.21.51.56,0,.79.64,1.12,1l.24,0c.07-.27.27-.06.41-.3a.87.87,0,0,0,.72.1c.19.09.4.15.51.38a2.11,2.11,0,0,0,1.21-.19c.2-.3.57-.21.84-.38.22,0,.43-.15.65-.17.33-.18.71-.24,1-.39.69-.26,1.37-.48,2.07-.7a4.29,4.29,0,0,0,1.33-.36c.12-.23-.15-.27-.14-.47.14,0,.18-.31.33-.16s-.1.45.08.73.33.3.6.39a3.73,3.73,0,0,0,1.3.69,6.51,6.51,0,0,0,1.58.65c.31.28.72.18,1.05.41s.59.09.8.27a2.32,2.32,0,0,1,1.52.27c.35-.14.2-.38.43-.6.64-.12,1.1-.73,1.72-.76.75-.72,1.82-.76,2.48-1.55a2,2,0,0,0,.86-.48c.47-.12.86-.51,1.34-.63.08-.18-.12-.41.12-.47,0-.08.06-.18,0-.25.16,0,.26-.33.47-.14.2-.17.43-.3.52-.56s.27.18.49.13a1.08,1.08,0,0,0,.14-.89,2.9,2.9,0,0,0-.34-.8c-.18-.36-.47-.42-.59-.8-.36.08-.18-.4-.58-.32a.72.72,0,0,0-.08.61c-.13.18-.49,0-.45.32-.13.32-.28,0-.46,0l0,.31a2.32,2.32,0,0,0,1.29.86c0,.11.17.21.09.35-1.4,1.11-2.88,1.94-4.27,3a18.28,18.28,0,0,1-3.49,1.89c-.74.25-.93-.76-1.6-.56-.1-.06-.27-.12-.2-.27s-.08-.1-.19-.12-.19.06-.41.13a.89.89,0,0,1-.63-.12,2.25,2.25,0,0,0-.27-.15c-.12.15-.17-.07-.31,0a4.39,4.39,0,0,1-.48-.39,6.36,6.36,0,0,1-1-.39c-.24-.23-.71-.12-.89-.39,0-1,0-1.94-.08-2.9a2.8,2.8,0,0,1,.09-1l.77-.35c.86-.4,1.84-.4,2.7-.79.45,0,.69-.4,1.1-.52a3.59,3.59,0,0,1,.66-.55,1.54,1.54,0,0,0,.45-1.6,4.45,4.45,0,0,0-.66-1.09c-.24-.19-.34-.43-.58-.59-.62-1.08-1.8-.59-2.8-.95a1.08,1.08,0,0,1-.58-.08c-.06-.11,0-.22.12-.29s.47-.32.58,0l.11-.26c-.18-.17-.13-.45-.19-.67a3.2,3.2,0,0,0,0-.93c.08-.79.33-1.26.35-2,.07-.2.51-.3.28-.58.27-.25.31-.62.53-.91.09-.71,1-.75,1.25-1.36.22-.33.72-.5.78-.91.34-.52.95-.23,1.45-.26a4.48,4.48,0,0,1,1.88.4h0c.09.33.5.41.62.73a1.46,1.46,0,0,0,.26.52.6.6,0,0,1,.07.46c-.4.25-.13.78-.08,1.13a.25.25,0,0,0,.31.07.74.74,0,0,1,.12.67c-.51.06,0,.61-.31.76a5.28,5.28,0,0,1-.38-.57,1.21,1.21,0,0,0-.54-.56c-.32-.25-.77-.61-1.23-.4a3.48,3.48,0,0,0-1.72,1.52v.13a3.68,3.68,0,0,0-.37,3.41,5,5,0,0,1,.65.89c.06.14.27.06.28.25.21,0,.17.37.39.14.24.32.58.14.88.19s.46-.25.64-.1a.89.89,0,0,1-1,.43c-.19.18-.46,0-.64.13a.44.44,0,0,1,.11.22.44.44,0,0,0,.45.1c.39.21.69,0,1.05.13.37-.14.31.4.52.58.51.15.8-.16,1.3-.11.09.2.33,0,.43.16.25,0,.4.25.66.29.26.26.35.18.64.4.24,0,.58.11.8-.07h0a2.2,2.2,0,0,0,1,.52,14.89,14.89,0,0,1,1.26.9c.15,0,.11.26.27.27a5.18,5.18,0,0,1,.77,1.65l0,.21c.25.22,0,.43.09.67-.23.06-.19.34-.27.52.19.35-.11.76-.07,1.1a1,1,0,0,0-.13.47H90a3.33,3.33,0,0,0,.35-1.06l.12-.12a.11.11,0,0,1,.16.06c0,.8-.6,1.34-.62,2.1a2.76,2.76,0,0,0-.35.61c-1,1.27-2.44,1.59-3.73,2.29-.85.2-1.66.62-2.52.79a14,14,0,0,0-1.62.39c-.31-.53-.55.08-.94,0a11,11,0,0,1-1.78.64c-.28.21-.77,0-1.07.18-.51-.09-1.06.06-1.56,0,0-.3-.35,0-.33-.36-.33,0-.58.19-.9.2s-.7.06-.77-.27a.38.38,0,0,0-.47-.06c-1.2-.17-2.58,0-3.79-.2a6.38,6.38,0,0,1-1.35,0c-1,0-1.72-.63-2.65-.72-.14.38-.46,0-.74.15-.66-.24-1.38-.17-2-.43h0L63.32,35a6.66,6.66,0,0,0-1.06-1.21,4.69,4.69,0,0,1-1.11-1.16,5.67,5.67,0,0,0-.87-1,4.34,4.34,0,0,0-.58-.47c-.31-.19-.31-.29-.31-.29s.07,0,.12-.13-.18-.22-.22-.16-.33-.06-.37-.13a1,1,0,0,1-.06-.8,1.85,1.85,0,0,0,.07-.67c.09-.53.19-1.09.22-1.41,0-.15,0-.25,0-.27.37-.16.1-.59.51-.7l0,0c.42-.57,1.26-1,1.68-1.49.21-.26.57-.19.72-.46.25.12.36-.25.63-.22C62.77,24.44,62.78,24.46,62.77,24.47Zm26,2.61a1.8,1.8,0,0,1,.58.84c0,.11,0,.27-.11.33s-.11-.31-.21-.45S88.65,27.34,88.79,27.08ZM82.1,19.65c-.08,0-.19,0-.21.07s-.26-.14-.23-.31.19-.43.3-.66.23-.47.55-.34c.1.17,0,.43.14.54C82.81,19.4,82.36,19.46,82.1,19.65Z"/><path class="cls-4" d="M85.91,38.5l.2-.35A.35.35,0,0,0,85.91,38.5ZM55.3,28.89a.29.29,0,0,1,.25.17c.15-.15.19-.36.43-.36a.49.49,0,0,1,.07.57,9.44,9.44,0,0,0-.16,2.36.94.94,0,0,0,.28-.51,2.62,2.62,0,0,1,.31-.83c.19,0,.13.21.28.25.1.56.07,1.44.78,1.76a7,7,0,0,0,.17-1.13c-.14-.24.12-.42.18-.63.34.25,0,.74.41.91.2.25.09.6.27.87.18.77,1,.93,1.36,1.56H60l.6.77c-.12-.11-.32.14-.48,0l-.18-.27,0,0c-.09-.08-.15-.28-.29-.17s-.05,0-.13,0a.24.24,0,0,1-.39.06c-.23-.08-.32-.58-.66-.29-.24-.18-.35-.44-.68-.33a1.1,1.1,0,0,0-.1-.29l-.11,0c-.28-.2-.39-.54-.67-.74l-.1,0,0,0s-.06,0-.1,0c.12-.2-.2-.25-.3-.39-.07.11-.06.27-.22.32,0,.27.41.6.08.81l-.12.09a1,1,0,0,0,.35.32c.13-.06,0-.25.21-.29s.07.41.37.33c.5.35.71,1.36,1.51,1.23a12.28,12.28,0,0,1,1.22.71,7.05,7.05,0,0,1,1.38.59c.31.19.27-.24.57-.1,0,0,0,.07.06.11.05-.14.07,0,.15-.05.28.12.6.54,1,.3.24,0,.3.44.56.22.29.47,1,.38,1.28.85a5.35,5.35,0,0,0,1.36.45c.16.7,1.1.36,1.18,1,.31.4.86.38,1.19.74.26.09.37.34.65.39.38.3.78.57,1.18.84s.86-.23,1.25.19c.46,0,.9.19,1.27-.12.52,0,1.13.25,1.64-.06a5.54,5.54,0,0,0,1.56-.26,1,1,0,0,0,.89-.13.41.41,0,0,0-.06-.36.78.78,0,0,1,.25-.38c.5-.07,1-.13,1.44-.16a.57.57,0,0,1,.16-.15l.1,0a3,3,0,0,1,.56-.21,1.16,1.16,0,0,0,.21.24.23.23,0,0,0,.13.26c.52.16,1-.31,1.42-.51a3.31,3.31,0,0,0,1-.15c0,.13.08.35.26.45a4.72,4.72,0,0,0,1.89-.42c.36,0,.73-.48,1,0,.54-.15,1.21-.26,1.43-.86l-.06-.08a1.83,1.83,0,0,0-.83.37c0-.05,0-.11,0-.16l-.1.17a.17.17,0,0,1-.14-.1c.23-.47.71-.52,1.11-.8.19,0,.24.21.38.29.2-.21.48-.17.7-.33,0,0,0-.06,0-.09s.24,0,.36-.13-.1-.47.15-.67a3.81,3.81,0,0,0,1-1.33c.18,0,.12.16.25.21s.26,0,.39,0-.07.26,0,.39c-.13.09-.2.22-.37.19-.16.23-.54.42-.44.71.12.08.34,0,.31.25v.07c-.4.1-.53.59-1,.54-.12.17-.58.09-.47.42l-.08.06c.28.11.47.52.83.32a5,5,0,0,0,1.53-.85c0-.11,0-.28-.13-.33s-.41.06-.63.06a.51.51,0,0,1,.31-.34c.41.36.69-.17,1-.25.08-.28.45-.29.46-.6s.53-.55.83-.76c.1.21-.2.36-.28.56-.27.22-.47.58-.73.81-.06.16,0,.27.09.4.33,0,.51-.27.75-.46a6.07,6.07,0,0,0,.74-.91h.07a3.31,3.31,0,0,1-.58,1.31.56.56,0,0,0,.19.47,1.55,1.55,0,0,0,.87-1.13c.32-.73.7-1.42,1-2.16-.27-.61.64-.88.44-1.54,0-.07,0-.3.12-.37.33.14.41-.22.51-.42s-.12-.75.13-1a.39.39,0,0,0,.38-.23c.26-.4-.48-.57,0-.9l-.35-.62a1.28,1.28,0,0,1-.6-.82c-.26-.12-.29-.47-.55-.59a2,2,0,0,0-.48-.82,1.34,1.34,0,0,0-.22-1,2.25,2.25,0,0,0-.45-.55.62.62,0,0,0,0-.18L92.73,25l0-.23c-.29-.2-.58-.39-.47-.84.34-.67,0-1.5.12-2.27-.06-.17.11-.52-.16-.65.05-.29.38-.23.56-.34.13-.49-.07-.85,0-1.38a11.14,11.14,0,0,0-.4-1.23c0-.17-.12-.26-.2-.34l-.21,0c-.19.23.09.4.06.63-.18,0-.39-.32-.55-.1l-.13,0c-.05.31.29.59.26.93s-.08,1-.41,1.3a9.08,9.08,0,0,0-.11,1.16l-.08.06a1.09,1.09,0,0,1-.28-.8,4.4,4.4,0,0,0,.18-1.4c.1.06.18.24.33.15s.15-.28.23-.43a2,2,0,0,1-.17-.54c-.11-.29-.46-.55-.31-.87a2.3,2.3,0,0,0-.17-1.34,4.13,4.13,0,0,0,.06-1.58c.23.15.15.67.58.66-.08.53.23,1.09.07,1.64a.31.31,0,0,0,.37.12,2.44,2.44,0,0,0,0-2A8.17,8.17,0,0,0,91.65,14c.14,0,.27-.08.37,0,.32.23.1.59.3.9.13.59.2,1.2.36,1.78.22,0,.17-.24.25-.35a5.31,5.31,0,0,1,.06-.75c.1-.22-.29-.47,0-.7.14,0,.18.15.34.11,0-.5.5-.14.69-.54.24.1.53,0,.76,0a2.35,2.35,0,0,0,.47-.95c-.09-.14-.38-.19-.19-.4s.21-.05.28,0-.12.15-.1.26.32.1.42.26c.88,0,1.41-.71,2-1.31h.1c0,.2-.22.32-.17.57.1.09.21.23.36.15.59-.29.85-.94,1.34-1.32.33-.5.75-1,.49-1.64,0-.05,0-.14.05-.16s.2.22.31.28.22-.25.36-.37a6.81,6.81,0,0,1,.12-1.47c0-.84-.61-1.54-.6-2.4.17,0,.25.34.31.52s.15.23.26.14a.24.24,0,0,0,.1-.2l0-.32a1.45,1.45,0,0,0-.76-1.07c-.18-.3-.13-.81-.53-1a6.61,6.61,0,0,0-1.4-1.56l0,0-.14-.1a7.32,7.32,0,0,1-1.23-.25c-.08.17,0,.35-.28.34-.39-.18-1,0-1.32-.27,0,0-.07,0-.11,0s0-.06-.06-.08L94,2.2l-.06.13c-.25-.06-.43.14-.67.12-.39.26-.89.24-1.25.53a2.18,2.18,0,0,1-.5.28l-.91.63a1,1,0,0,0-.09.18c-.09.09,0,.22,0,.32a12.25,12.25,0,0,1-1.79,2.34c-.6,0-.27,1.14-1,.67a.11.11,0,0,1-.18,0c-.46.17-.08,1-.65.78-.12-.24-.23-.65-.58-.66-.17-.2-.49-.44-.43-.72a3.28,3.28,0,0,0-.34-.39l-1.41-.81a.13.13,0,0,0,0,.07c0,.05,0,.12,0,.17-.3-.15-.77-.14-1-.41-.14,0-.11-.09-.15-.16a4.6,4.6,0,0,1-.55-.55l-.54-.26H81.8s-.05,0-.08-.07l-.15-.07L80.72,4h0c-.19.55.35.93.42,1.38l0,.14c-.45-.07-.57.19-.93-.19-.44,0-.69-.16-1.11,0,0,.27.36.24.51.41l.49.24c0,.24.22.39.17.64l-.31,0c0-.22-.23-.22-.38-.29s-.09,0-.14,0c-.08-.52-.66-.51-1-.78-.29-.06-.81,0-.92-.36,0-.09.09-.2.2-.21s.66.17.68-.19c-.61-.16-1.17.16-1.75-.15.05-.43.58-.15.87-.27.94-.33,1.91.27,2.8,0-.05-.07,0-.16,0-.25-.37-.16-.63-.57-1.08-.52l-1.8,0c-.3.1-.71.1-1.06.18a15.4,15.4,0,0,0-2.47.69c-.25,0-.6.22-.72-.06s.47-.32.39-.64a.74.74,0,0,1,.49-.29c.15.1.31,0,.46-.12s.59,0,.82-.21a.63.63,0,0,1,0-.1l-.17-.24c-.27,0-.56-.26-.8,0l0,0a3.71,3.71,0,0,1-.77.07l-.91.61h-.31c-.06.1-.24,0-.33.14-.17-.07-.37.17-.53.1-.23.14-.5.15-.58.45l-.06.44-.42,0v.16L70,4.53H69.9a.32.32,0,0,1-.34-.11l-.77-.18-.24,0a1.55,1.55,0,0,0-.49-.62L68,3.59c-.07,0-.12-.08-.17-.15l-.15-.14a.19.19,0,0,0-.11,0c0-.18-.28-.13-.38-.26A1.4,1.4,0,0,0,67,2.7L66,1.93c-.11,0-.22,0-.24-.17s-.17-.13-.24-.23l-.13-.1,0,0h0c0-.14-.27-.23-.23-.34L65,.83a.46.46,0,0,1-.26-.06c0,.06-.16,0-.28,0v0a.54.54,0,0,1-.3,0l-.48.08,0,0-.29,0-.17,0a2.65,2.65,0,0,1-.84.09c-.13,0-.3,0-.49,0s-.08.27-.19.43-.58.08-.81.35a2.17,2.17,0,0,0-.34.14l0,0a5,5,0,0,1-1,.47l-.1,0L58.93,3a.39.39,0,0,1-.19.22l-.82,1a.38.38,0,0,1,.09.25c.08.25.27,0,.41.05-.08.47-.59.63-.66,1.06h0c-.07.23-.39.42-.23.7a.44.44,0,0,0,0,.48c.15.14.09.34.07.53h0a10.67,10.67,0,0,1-.26,1.25c0,.38.52.23.44.61a.23.23,0,0,0,.23.14c.14-.07.16-.22.33-.14a.45.45,0,0,0,.14.26c.22,0,.13.24.2.37.18.32-.21.55-.08.89a.33.33,0,0,0,.44.3c.22.2-.12.43.17.61s.33-.26.57-.07c0,.11-.07.28.1.33.21-.12.28.16.5.1.17.16.08.57.39.5.12,0,.2.27.36.19a.3.3,0,0,0,.16-.43l0,0c.4-.3.86-.69,1.26-.95-.05.16.14.23.26.18s.15.07.23.1c.22.27-.33.6.06.84.05,0,.06-.1.12-.12-.09.41-.54.72-.66,1.16l0,0a9.66,9.66,0,0,0-.83,1.07c-.14.2-.39.35-.43.6,0,.07.11,0,.17.05s-.08.12-.09.2.18.12.3.14A11.17,11.17,0,0,0,62.74,14c.11-.09.31-.21.36-.09s.05.19,0,.24,0,.42-.26.38c0,.18-.17.12-.27.21s-.33.25-.23.45a1,1,0,0,0-.36.61l0,0-.07.06c.23.18-.27.41.06.64-.13.16.32.38-.06.51-.11.19.13.35-.06.48.11.14,0,.21,0,.34s-.1.14-.2.18.08.06.05.12l0,0s0,.16,0,.27,0,.44,0,.73a1,1,0,0,0,0,.24c.11.1,0,.22,0,.28a.36.36,0,0,0-.06.16c0,.1.12,0,.18,0a2.76,2.76,0,0,0-.09.44c0,.07-.1.1-.16.15s-.1,0-.14,0-.4-.45-.25-.72a1.68,1.68,0,0,1-.1-.53h-.11c.19-.36-.3-.65-.19-1-.15,0-.15.25-.33.17s0-.14,0-.25-.2-.28-.35-.21l0,0A1.32,1.32,0,0,0,59.12,19a.62.62,0,0,1,.38.54l0,0-.08.06c-.19.82,0,1.61-.27,2.36-.17,0-.23.14-.38.23-.12.25.1.61-.14.82a1.27,1.27,0,0,0-.3-.13l.11.56a.38.38,0,0,0,.17,0c0,.14-.17.37-.09.44l-.13-.08h0c-.05,0-.07.09-.11.14l0,0s.09-.08.15-.05a5,5,0,0,0-1.7,1.38c0,.09,0,.26.14.26.1.55-.59.75-.71,1.19s-.92.71-.85,1.24c-.06.14.12.09.16.16s.11-.09.18,0,0,.2-.07.27C55.41,28.5,55.38,28.65,55.3,28.89ZM95,11v.11c-.18-.2-.4-.16-.64-.19a.4.4,0,0,1-.43.12.32.32,0,0,1,0-.32c.05-.2.28,0,.39-.09C94.54,10.83,95.17,10.59,95,11Zm.37.09c0,.13-.09.11-.16.15s-.13-.23,0-.28S95.42,11,95.41,11.11ZM90.49,9.76a8.41,8.41,0,0,1,.22-2.54,3.25,3.25,0,0,1,.63-1.16c.4.28.76-.37,1.2-.12s.86-.08,1.27,0c.26.17.61-.07.81.2.13.07.2-.09.29-.13V5.92c.18,0,.07.19.18.27a.68.68,0,0,1,.25.51c-.11.12,0,.42-.23.42s-.51.4-.81.63a.25.25,0,0,0,0,.31l.38,0c-.1.26-.41.22-.48.5s.25.09.31.25c-.11.13-.4.18-.33.41.22.4,1,.19.91.78l-.08.06c-.5,0-1-.23-1.46.06a.43.43,0,0,1-.31-.28c-.41-.07-.65,0-.9-.33a1.92,1.92,0,0,0-1.13.45c-.06.1,0,.18.11.22.4,0,1-.32,1.25.27l.12-.05c0,.17.28.25.21.48-.29.17-.61-.38-.74.07a7.41,7.41,0,0,1,1,1.35v.07c-.27,0,0,.29,0,.45l.09.08s-.22-.12-.35-.22A5.28,5.28,0,0,0,92,11.45c-.15-.17-.27.09-.42,0a2.08,2.08,0,0,0-.65-.64c-.16.06-.32.16-.44,0C90.31,10.43,90.54,10.18,90.49,9.76Zm-2.36,1.67.19.16a8.11,8.11,0,0,1,1.43,2.64.2.2,0,0,0-.26.11c-.1.29.18.5.22.76s.5.76.26,1.21c-.06,0-.17.07-.16.15.09.25-.09.53.07.77s-.38.12-.43.4a7.38,7.38,0,0,0,.13,1.13,2,2,0,0,1-.08.89c-.37-.11-.1-.58-.17-.85-.23-.48-.31-1-.58-1.46l0-.2c.21,0,.22.26.41.33,0-.38.49-.4.32-.82a5.87,5.87,0,0,0-.78-1.8c0-.21.29-.33.18-.57A5.33,5.33,0,0,1,88.45,13c.12-.13.2,0,.32-.1,0-.49-.55-.85-.7-1.31ZM83,8.49c.41-.06.76-.35,1.16-.41.37.34.82.12,1.25.26.41.34,1,.75.86,1.39.28.46-.37.91.07,1.33l0,.23a3.74,3.74,0,0,1-.53-.45c-.42-.28-.77-.79-1.28-.82-.26-.21-.62,0-.91-.18a2.3,2.3,0,0,0-1-.06c-.11-.11,0-.27.08-.37s.29-.12.21-.29l-.06-.07c-.38-.1-.86.31-1.09-.14C82.07,8.68,82.59,8.77,83,8.49ZM68.13,9.72a.53.53,0,0,0,.33-.65c-.06-.17-.26-.16-.36-.18s-.18.26-.37.2c0-.36.44-.31.53-.63.41-.29.67-.87,1.22-.85.11-.06.25-.12.35,0a.46.46,0,0,0,.5.2c.1-.11.26,0,.39-.05.12.15.27.33.14.5-.39,0-.7.36-1.06.49,0,.08,0,.2-.1.23.16.32.49.08.72.09.6-.53,1.28,0,1.93-.18.23.05.37,0,.49.24.24.58-.45.25-.5.7-.19.13-.47-.07-.67,0-.38.17-.41-.36-.78-.13s-.42-.37-.72-.06c-.55,0-1,.61-1.44.72-.08.22-.37.13-.52.31a9.23,9.23,0,0,0-1.29,1.19c-.13,0-.24-.14-.38,0A3.77,3.77,0,0,1,68.13,9.72Zm-5.67-1.2c-.15,0-.27-.16-.44-.09a8.57,8.57,0,0,0,1.15-1.14c.09,0,.15-.1.23-.14,0-.24-.33-.13-.3-.38a1.35,1.35,0,0,0-.87.62.24.24,0,0,0-.27.17c-.27.13-.36.36-.66.37.13-.23.08-.54.23-.77-.19-.14.17-.22.23-.39.51-.28,1.27-.62,1.34-1.25a.85.85,0,0,0-.74.12L61,6.43a.24.24,0,0,0-.23-.14c-.12.12-.25.27-.23.43-.19,0,0-.13-.11-.19s-.38-.15-.23-.41.61-.25.49-.6c-.1-.16.16-.29.2-.45s.14-.06.19-.15.11-.29.29-.38a.34.34,0,0,0,.42,0c.15,0,.14-.32.29-.07.21,0,.34-.26.57-.17.15-.64,1-.13,1.13-.72.21,0,.21.16.34.28.47,0,.63.27.9.57.4.08.41.55.74.71,0,0,.05,0,.07,0,.28.28.43.7.73,1.07.1.39.46.7.41,1.13.14.19.45.13.5.41s-.15.34-.27.48-.37,0-.53.11-.3-.3-.53-.17-.12.27-.16.43c-.38.33-.9.71-1.35.59-.34.07-.13.55-.52.48-.32.18-.3.59-.7.34l0,0c.25-.08.32-.37.39-.61s.23-.23.2-.43c.13,0,.15-.2.17-.25.21,0,.19-.26.29-.38-.08-.06-.2-.25-.36-.16s-.4.22-.65.16V8.2A3.88,3.88,0,0,0,62.46,8.52ZM58.4,29.18l0-.06a8.8,8.8,0,0,1,.17-2.31.38.38,0,0,1,0-.18c.23.12.37-.2.56-.31.06-.42.4-.33.67-.61s.77-.7,1.15-1.1c0-.18.07-.41.29-.41,0,0,0,.07.06.11s.16-.18.29-.1c.06-.55.68-.1.93-.47.23-.2.64,0,.88-.34,0-.25.28-.05.4-.16.46.14.53-.81.94-.26a3.63,3.63,0,0,0,1.71-.37c.34,0,.63-.33,1-.19s.51-.41.86-.21a2,2,0,0,0,.79-.1l-.31-.53c-.12-.08-.14-.31-.25-.41l0,0-.27-.47c-.09,0-.2,0-.18-.13a4.43,4.43,0,0,1-.5-.48c.22-.34-.19-.56-.35-.77a.45.45,0,0,1-.19-.16c.06-.24.19-.48,0-.7s-.25-.33-.38-.5c0-.43.3,0,.45-.26.05-.4-.2-.75,0-1.15a.48.48,0,0,0,.35-.26c0-.24.16-.71-.25-.79-.25-.2.12-.32.13-.51a6.83,6.83,0,0,0,.85-1.49c.1-.21.35-.14.43-.36.32.07.44-.27.73-.29-.09-.32.26-.38.41-.5s.43,0,.49-.28l.13-.47a2.83,2.83,0,0,1,1.84.23c.19,0,.34-.15.57-.07s.3.16.33.36l0,0c0,.15.26.23.41.33l.22.44c.31.18.35.61.76.54.17.22.41.52.28.8,0,.09.1.16.15.23s.4,0,.51-.18l0-.1a4.78,4.78,0,0,1,.26,1.52A12.06,12.06,0,0,0,76,17a14.8,14.8,0,0,0-.24,1.59c0,.1.12.08.19.09.32-.36.29-.91.51-1.32a4.59,4.59,0,0,0,0-1.32c.06-.31.42-.46.49-.77.29-.33-.26-1,.4-1,.12,0,.27,0,.33-.1-.11-.46.49-.52.54-.93a2.75,2.75,0,0,0,.94-1.13c.45-.63.95.24,1.42-.3a4.36,4.36,0,0,1,1.16.18c.21,0,.32.24.51.31.44.31,1.19-.12,1.38.55.27,0,.36.31.73.36,0,0,.24.45.21.48s-.49,0-.42.33.25.18.38.25c.14.52.56.87.58,1.43-.15.15-.42.23-.3.52,0,.32.47.75.06,1.12a.74.74,0,0,1,0,.58.25.25,0,0,0-.23.18c-.11.31.39.69,0,1-.1.23.11.38-.14.53,0,.07,0,.1,0,.14s.18-.06.26-.11,0,.12,0,.18-.51.09-.33.4c.19,0,0,.23.06.36-.17.09-.15.3-.23.45-.25.31-.28.73-.61,1-.12.38-.53.57-.55,1,.19.28.42-.17.61.11.36,0,.71.28,1,.23.07.16.23.21.23.38.38-.22.91,0,1.25.26.32,0,.73-.18.91.22.44,0,.67.41,1.08.48.19.45.63.1.91.46a3.33,3.33,0,0,1,1.76,2,5.61,5.61,0,0,0,0,.89.62.62,0,0,0-.09.72c.3,0,.21.33.14.5s-.25.24-.16.43l.21.31-.08.06a15.43,15.43,0,0,1-.32,2c-.34.26-.27.66-.41,1a4.25,4.25,0,0,1-.89,1,1.48,1.48,0,0,0-.43.12L88.69,34a.89.89,0,0,0-.48.25c-.2.19-.59,0-.74.32-.37,0-.46.4-.85.35a3.3,3.3,0,0,1-.73.32c-.13.21-.22.18-.44.18a6.35,6.35,0,0,1-1.17.48c-.29-.07-.39.26-.68.19-.22.21-.5.48-.82.41a1.81,1.81,0,0,0-.7-.19A3.29,3.29,0,0,1,81,36.6c-.08.12-.2.08-.32.06-.37.32-.8.15-1.21.47-.15-.06-.22.16-.39.05l-.61.23c-.27-.11-.39.11-.6,0s-.43-.28-.66,0-.46-.29-.73-.23a2.18,2.18,0,0,0-.71-.09c-.11.2-.28-.05-.42.05-.45.37-.85-.36-1.35-.07a14.26,14.26,0,0,0-2.46-.31,2.23,2.23,0,0,0-.58,0,11.06,11.06,0,0,1-1.63,0,5.34,5.34,0,0,0-2-.46c-.27.16-.63-.17-.94,0-.57-.23-1.12-.1-1.62-.38a9.69,9.69,0,0,0-1.48-.32c-.15-.28-.66,0-.57-.42a.61.61,0,0,1-.17-.42l-1-.4L61,33.26s-.79-.78-.74-1S60,32,60,32l0-.14a.49.49,0,0,1-.3-.21c-.14-.2-1.29-.85-1.39-1.09A4.61,4.61,0,0,1,58.4,29.18Zm21,15.89c1.24-1.25,3.39-1.94,3.65-3.81-.13-.93-1.17.05-1.74-.44l-.13-.49a5.34,5.34,0,0,0-.54.39c-.08,1.11-1.55.78-2.36,1.11-1.22-.91-1.79,1.12-3.19.49-.91.05-.39,1.68-1.61,1-.49.8-1.14-.18-1.87.13v.13a13.32,13.32,0,0,0,3.86,1.74A7,7,0,0,0,79.45,45.07Zm-4-24.65a.44.44,0,0,0-.08-.46l-.11.33c-.11.09-.12,0-.2-.06l-.27.21c-.09.09-.22-.1-.19.11.12,0,.25.2.46.16A.32.32,0,0,0,75.47,20.43Z"/><path class="cls-4" d="M25.53,82.09a1.83,1.83,0,0,0-.7,1.32c0,.64.43.83.82,1.08A8.53,8.53,0,0,1,30,92c0,4.89-2.62,10.91-10.49,10.91-1.33,0-2.54,0-3.72-.15s-2.35-.1-3.56-.1-2.7,0-4,.1-2.66.15-4,.15a2.54,2.54,0,0,1-2.58-2.59c0-3,2.54,0,2.78-8.07l.43-14.09c.23-7.39-3.13-4-3.13-7.39A2.76,2.76,0,0,1,4.51,68c1.45,0,2.9.1,4.34.15s2.9.2,4.34.2a25,25,0,0,0,2.74-.2c.9,0,1.84-.15,2.74-.15,7.16,0,9,4.26,9,8A8.89,8.89,0,0,1,25.53,82.09ZM14.14,79.93c0,1.91-.08,2.84,1.13,2.84,2.35,0,2.9-2.06,2.9-4.75,0-2.2-.59-4.94-2.74-4.94-1.45,0-1.29,1.47-1.29,2.89Zm0,11.94c0,5.68.74,5.82,2,5.82,2.23,0,3-1.91,3-4.45,0-3-.7-5.63-3.44-5.63-1.21,0-1.49.78-1.53,1.81Z"/><path class="cls-5" d="M19.54,103.95c-1.34,0-2.59,0-3.81-.15s-2.28-.09-3.47-.09c-1.35,0-2.75.05-4,.1s-2.68.15-4.07.15a3.62,3.62,0,0,1-3.65-3.66,2.77,2.77,0,0,1,1.29-2.63c.54-.39,1.36-1,1.49-5.47l.43-14.09c.12-3.74-.67-4.12-1.36-4.46A2.76,2.76,0,0,1,.63,70.74a3.81,3.81,0,0,1,3.89-3.81c1,0,2,0,2.95.09l1.43.06c1.44.1,2.89.2,4.31.2a24,24,0,0,0,2.62-.19h.06l.87-.06c.63,0,1.28-.09,1.92-.09,9.09,0,10.07,6.36,10.07,9.09a10,10,0,0,1-2.46,6.82l-.1.11c-.26.28-.29.33-.29.43l.2.13.07,0A9.59,9.59,0,0,1,31.1,92C31.1,97.5,28.07,103.95,19.54,103.95Zm-7.28-2.38c1.24,0,2.44.05,3.61.1s2.39.15,3.67.15c9,0,9.42-8.2,9.42-9.84a7.49,7.49,0,0,0-3.78-6.53l-.2-.12a2.16,2.16,0,0,1-1.22-1.92,2.65,2.65,0,0,1,.86-1.91l.11-.12A7.89,7.89,0,0,0,26.61,76c0-3.17-1.38-7-7.93-7-.57,0-1.18,0-1.77.09l-.88.06a25.74,25.74,0,0,1-2.83.2c-1.49,0-3-.1-4.42-.2l-1.42-.06c-.94,0-1.91-.09-2.85-.09a1.71,1.71,0,0,0-1.75,1.67c0,.69.05.72.58,1,1.43.7,2.7,1.73,2.55,6.44L5.46,92.25c-.15,5.12-1.21,6.3-2.38,7.14-.36.26-.4.29-.4.9a1.48,1.48,0,0,0,1.52,1.53c1.34,0,2.63,0,4-.14S10.87,101.57,12.26,101.57Zm3.84-2.81c-2.6,0-3-2-3-6.89V89.43c.09-2.39,1.46-2.88,2.59-2.88,2.06,0,4.51,1.16,4.51,6.69C20.18,98,17.62,98.76,16.1,98.76Zm-.43-10.08c-.35,0-.43,0-.46.78v2.41c0,3.95.39,4.63.51,4.74a3.6,3.6,0,0,0,.38,0c.53,0,1.95,0,1.95-3.39C18,88.68,16.32,88.68,15.67,88.68Zm-.39-4.84a2.08,2.08,0,0,1-1.54-.57c-.67-.67-.67-1.66-.67-3V75.6a3.94,3.94,0,0,1,.73-3A2.2,2.2,0,0,1,15.43,72c2.38,0,3.81,2.25,3.81,6C19.24,79.46,19.24,83.84,15.27,83.84Zm0-2.13h0c.68,0,1.83,0,1.83-3.68,0-.4,0-3.87-1.67-3.87h-.12a4.94,4.94,0,0,0-.1,1.42v4.68A10.38,10.38,0,0,0,15.26,81.71Z"/><path class="cls-4" d="M32.14,78.52c0-7.58-3-4.45-3-7.49,0-2.69,3.05-3,4.62-3,.82,0,1.6.1,2.43.15a19.61,19.61,0,0,0,2.39.2c1.25,0,2.5-.1,3.8-.2s2.54-.15,3.8-.15c4.42,0,9.55,2.45,9.55,9,0,2.94-1.13,5.77-3.33,7.09-.35.24-.63.39-.63,1s.51.93,1,1.17c2.74,1.27,4,3.52,4.5,8.81.47,4.55,3,1.81,3,4.8,0,1.86-1.8,3.82-6.22,3.82-6.26,0-7-4.5-8.26-11-.43-2.25-1.1-4.45-3.25-4.45-.86,0-1.17.15-1.17,3.23a38.06,38.06,0,0,0,.27,4.75C42,98.43,44,97.74,44,100.09c0,1.76-1,3.08-7.32,3.08-1.88,0-7.44,0-7.44-3.57,0-2.54,2.94-.78,2.94-7.14Zm9.08,2.15c-.08,1.27-.27,2.35,1,2.35,2.54,0,3.37-1.76,3.37-4.79,0-2.4-.47-4.84-2.74-4.84-1.45,0-1.41,1.13-1.49,2.64Z"/><path class="cls-5" d="M54.06,104.68C47,104.68,46,99.29,44.79,93l0-.19c-.5-2.6-1.09-3.57-2.19-3.58a12,12,0,0,0-.12,2.16,37.45,37.45,0,0,0,.26,4.6,1.48,1.48,0,0,0,.79,1.17A3.23,3.23,0,0,1,45,100.09c0,3.44-3.35,4.15-8.39,4.15-2.1,0-8.5,0-8.5-4.64A3,3,0,0,1,29.54,97c.72-.56,1.54-1.19,1.54-4.56V78.52c0-4-.83-4.48-1.44-4.82A2.64,2.64,0,0,1,28.1,71c0-2.57,2.13-4.1,5.69-4.1.59,0,1.15,0,1.69.09l.8.06h.07a18.5,18.5,0,0,0,2.26.19c1.18,0,2.36-.09,3.61-.18h.1L43.59,67c.86,0,1.74-.09,2.61-.09,5.28,0,10.62,3.1,10.62,10,0,3.5-1.46,6.55-3.81,8l0,0-.09.06.28.15.12.06c3.1,1.44,4.49,4.06,5.07,9.64.19,1.82.62,2,1.17,2.16a2.46,2.46,0,0,1,1.85,2.75C61.35,102.23,59.1,104.68,54.06,104.68ZM42.55,87.14c3.28,0,4,3.59,4.3,5.32l0,.19c1.29,6.86,2.07,9.9,7.17,9.9,3.56,0,5.16-1.38,5.16-2.75a1.33,1.33,0,0,0-.08-.6,2.79,2.79,0,0,0-.33-.13c-1.1-.38-2.29-1-2.59-4-.56-5.42-1.8-7-3.89-7.95l-.15-.08A2.23,2.23,0,0,1,50.72,85a2,2,0,0,1,1-1.81l.12-.08c1.73-1,2.81-3.41,2.81-6.18,0-5.82-4.57-7.89-8.48-7.89-.81,0-1.67,0-2.5.09l-1.26.06h-.07c-1.29.1-2.51.19-3.77.19a20.28,20.28,0,0,1-2.49-.2l-.81-.06c-.52,0-1-.08-1.51-.08-1.62,0-3.55.34-3.55,2,0,.55,0,.55.45.8,1.33.75,2.53,1.82,2.53,6.69V92.46c0,4.08-1.17,5.32-2.37,6.25-.49.38-.56.43-.56.9,0,1.69,2.08,2.5,6.37,2.5,6.25,0,6.25-1.26,6.25-2s-.17-.81-.67-1.18a3.57,3.57,0,0,1-1.63-2.58,39,39,0,0,1-.28-4.89C40.31,89.13,40.31,87.14,42.55,87.14Zm-.31-3.05a2.08,2.08,0,0,1-1.59-.61,3.21,3.21,0,0,1-.51-2.56l0-.31.17-4.9c.06-1.35.16-3.39,2.54-3.39,1.74,0,3.81,1,3.81,5.91C46.67,79.67,46.67,84.08,42.24,84.08Zm0-2.13h0c1.16,0,2.3-.29,2.3-3.73,0-3.78-1.21-3.78-1.67-3.78a.67.67,0,0,0-.26,0,5.34,5.34,0,0,0-.15,1.32v.27l-.18,5A7.47,7.47,0,0,0,42.24,81.95Z"/><path class="cls-4" d="M80.87,76.8c0-5.23-3.37-3.23-3.37-6.07,0-3,4.54-2.94,6.15-2.94s5.79,0,5.79,2.84-2.94,1.08-2.94,5.53V89.38c0,2.2,0,13.94-13.5,13.94-15.42,0-13.7-14.87-13.7-15.46V76.56c.16-3.08-2.5-3.08-2.5-5.33,0-.68-.43-3.42,7.63-3.42,6.38,0,7.67,1.47,7.67,3.38,0,3.52-2.86.24-3.05,6.21v9c0,5.82,1.76,9.54,5.91,9.54,6.18,0,5.91-6.41,5.91-6.95Z"/><path class="cls-5" d="M73,104.39c-4.8,0-8.53-1.38-11.08-4.11C58.27,96.39,58,90.9,58.23,88V76.5a2.69,2.69,0,0,0-1.06-2.36,3.93,3.93,0,0,1-1.44-2.92v-.07a3.23,3.23,0,0,1,.92-2.47c1.28-1.31,3.82-1.94,7.78-1.94,4.32,0,8.74.53,8.74,4.44,0,2.06-.89,2.63-1.81,3-.57.25-1.16.52-1.25,3.21v9c0,5.62,1.63,8.47,4.84,8.47a4.55,4.55,0,0,0,3.37-1.21,6.38,6.38,0,0,0,1.47-4.6V76.8c0-2.38-.7-2.77-1.51-3.21a3,3,0,0,1-1.86-2.85c0-2.66,2.32-4,6.89-4h.32c4.55,0,6.86,1.31,6.86,3.9a3,3,0,0,1-1.71,2.86c-.69.43-1.23.77-1.23,2.67V89.38a17.94,17.94,0,0,1-1.81,8.32C84.16,100.75,80.64,104.39,73,104.39ZM60.37,76.58V87.86s0,.12,0,.24c-.17,2.58,0,7.41,3.12,10.72,2.14,2.28,5.34,3.43,9.53,3.43,5.27,0,8.93-1.87,10.87-5.55a15.87,15.87,0,0,0,1.56-7.31V76.17c0-2.85,1.1-3.78,2.23-4.48.58-.36.7-.44.7-1,0-1.19-1.55-1.77-4.73-1.77h-.32c-4.26,0-4.76,1.07-4.76,1.87,0,.57.11.63.75,1,1.32.73,2.62,1.72,2.62,5.08V89a8.45,8.45,0,0,1-2.09,6.12A6.59,6.59,0,0,1,75,97c-2.61,0-7-1.38-7-10.61v-9c.12-3.76,1.26-4.57,2.51-5.13.47-.21.54-.24.54-1.09,0-.69,0-2.31-6.6-2.31-4.34,0-5.78.81-6.25,1.3a1.11,1.11,0,0,0-.31.93v.13c0,.56.25.84.83,1.43A4.76,4.76,0,0,1,60.37,76.58Z"/><path class="cls-4" d="M91.83,83.07c0-6.21-.39-7.63-.82-8.32-.9-1.42-2.43-1.57-2.43-3.42,0-3.52,8-3.52,8.77-3.52,2.35,0,7.16.1,7.16,3.42,0,1.76-1.49,1.66-2.39,2.94-.74,1.08-.78,5.48-.78,8.9v4.84c0,8.71.47,8.51,1.25,9.1,1,.73,1.92,1,1.92,2.5s-.35,3.67-8.92,3.67c-1.64,0-6.58,0-6.58-3.18,0-1.57,1.33-1.81,2-2.74.47-.69.86-2.5.86-9.34Z"/><path class="cls-5" d="M95.59,104.24c-5.07,0-7.64-1.43-7.64-4.25a3.35,3.35,0,0,1,1.55-2.78,2.94,2.94,0,0,0,.59-.56c.45-.66.68-3.6.68-8.75V83.07c0-4.57-.21-7-.66-7.75a4.26,4.26,0,0,0-.94-1,3.62,3.62,0,0,1-1.65-3c0-4.14,6.88-4.59,9.83-4.59,2,0,8.23,0,8.23,4.49A3.07,3.07,0,0,1,103.89,74a3.13,3.13,0,0,0-.89.77c-.59.86-.59,6.45-.59,8.29v4.84c0,7.07.32,7.88.67,8.13l.15.11c.17.13.35.24.51.35a3.25,3.25,0,0,1,1.83,3C105.58,102.82,102.59,104.24,95.59,104.24Zm1.76-35.37c-3.83,0-7.7.84-7.7,2.46,0,.63.21.83.87,1.38a6.19,6.19,0,0,1,1.39,1.47c.52.83,1,2.13,1,8.89v4.84c0,7.77-.52,9.17-1,9.95a4.66,4.66,0,0,1-1,1c-.55.44-.74.62-.74,1.11,0,1.75,3,2.11,5.51,2.11,7.86,0,7.86-1.82,7.86-2.6,0-.62-.15-.74-.87-1.21-.2-.13-.41-.27-.62-.43l-.11-.08c-1.17-.83-1.57-1.54-1.57-9.88V83.07c0-5.26.15-8.33,1-9.51a5.08,5.08,0,0,1,1.46-1.32c.61-.41.74-.51.74-1C103.44,69.62,101.51,68.87,97.35,68.87Z"/><path class="cls-4" d="M124.59,80.13c.47.49,1.72,1.91,2.43,1.91,1,0,1-2,1-2.84a20.84,20.84,0,0,0-.35-4.45c-.55-2.05-2.62-1.32-2.62-4,0-3.13,4-3,5.64-3s6-.24,6,3.13c0,2.79-2.07,1.76-2.74,4a28.94,28.94,0,0,0-.51,6.65V94.27c0,2.2.23,8.9-2.39,8.9a3,3,0,0,1-2-1.22L116.92,88.4c-.55-.64-1.57-1.81-2.39-1.81-1.21,0-1.25,3.18-1.25,4.21a27.67,27.67,0,0,0,.27,4.45c.59,3.13,2.66,2,2.66,4.35,0,3.28-4,3.57-5.87,3.57s-5.83-.29-5.83-3.47c0-2.59,2.27-1.57,2.66-4.7a65.53,65.53,0,0,0,.35-7.39A87.59,87.59,0,0,0,107.09,77c-.63-4.89-3.44-3-3.44-5.92,0-3.47,5.28-3.28,7-3.28,2.43,0,2.86.2,4.62,2.15Z"/><path class="cls-5" d="M131,104.24a4,4,0,0,1-2.82-1.57L116.12,89.11a6.85,6.85,0,0,0-1.42-1.38,8.51,8.51,0,0,0-.36,3.07,25.44,25.44,0,0,0,.26,4.26,2.24,2.24,0,0,0,1.15,1.8,2.9,2.9,0,0,1,1.53,2.75c0,1.39-.68,4.64-6.94,4.64-4.38,0-6.9-1.66-6.9-4.54a3.27,3.27,0,0,1,1.57-3,2.23,2.23,0,0,0,1.1-1.86,66.18,66.18,0,0,0,.34-7.26A87.07,87.07,0,0,0,106,77.13c-.28-2.19-1-2.62-1.7-3.07a3.07,3.07,0,0,1-1.75-3c0-2.88,2.52-4.35,7.48-4.35h.63c2.74,0,3.45.33,5.41,2.51l9.43,10.34a11.65,11.65,0,0,0,1.29,1.23A6.74,6.74,0,0,0,127,79.2a17.37,17.37,0,0,0-.31-4.17c-.14-.51-.37-.68-.88-1A3.41,3.41,0,0,1,124,70.79c0-4.05,4.69-4.05,6.23-4.05h1.23c4.18,0,6.29,1.41,6.29,4.2a3.27,3.27,0,0,1-1.82,3.24,1.64,1.64,0,0,0-1,1.08,28.51,28.51,0,0,0-.46,6.35V94.77c0,3.38-.09,7.12-1.67,8.71A2.48,2.48,0,0,1,131,104.24ZM114.53,85.52c1.22,0,2.29,1.13,3.2,2.18l12.08,13.54c.34.36.85.87,1.24.87a.35.35,0,0,0,.27-.13c1.09-1.1,1.06-5.68,1-7.19V81.6a29.2,29.2,0,0,1,.55-6.95,3.74,3.74,0,0,1,1.91-2.31c.59-.35.79-.47.79-1.41s-.5-2.07-4.16-2.07h-1.23c-3.6,0-4.1.92-4.1,1.92a1.36,1.36,0,0,0,.83,1.45,3.66,3.66,0,0,1,1.76,2.24,20,20,0,0,1,.39,4.73c0,1,0,3.9-2.08,3.9-1,0-2-1-3-2.06l-.16-.17-9.3-10.2c-1.56-1.74-1.71-1.8-3.83-1.8h-.63c-4.79,0-5.34,1.26-5.34,2.21,0,.71.13.79.73,1.16.91.56,2.29,1.41,2.7,4.62a88.68,88.68,0,0,1,.44,10.75,68.27,68.27,0,0,1-.36,7.53,4.3,4.3,0,0,1-1.94,3.3c-.53.4-.71.53-.71,1.26,0,2,2.59,2.41,4.76,2.41s4.8-.43,4.8-2.5c0-.59-.08-.64-.58-1a4.3,4.3,0,0,1-2.07-3.18,27.31,27.31,0,0,1-.29-4.65C112.21,89.35,112.21,85.52,114.53,85.52Z"/><path class="cls-4" d="M20.56,124.29c-.17-.46-.44-1.76-1-1.76s-.87,1.09-1.74,3.77l-2,6.33c-.7,2.18-1,3.73-3.22,3.73-1.88,0-2.38-1.47-3-3.4L3.35,113.05c-.94-3-2.28-1.47-2.28-4,0-2.89,4.53-3,6.07-3,4.9,0,5.74,1,5.74,2.68,0,1.26-.77,1.43-.77,2.73a26.66,26.66,0,0,0,1.17,4.78c.17.67.91,3.61,1.68,3.61s1.58-3,1.74-3.65a8.83,8.83,0,0,0,.44-1.64c0-.38-.7-3-1.71-3.69a2.3,2.3,0,0,1-1.24-2.05c0-.25-.47-2.77,6.54-2.77,6.51,0,6.37,1.89,6.37,2.6,0,1.38-1.51,1.76-1.51,2.81s1.14,3.73,1.48,4.65c.24.67,1,3.27,1.78,3.27,1.14,0,2.58-7.13,2.58-7.72,0-1.8-2.18-.88-2.18-3.19,0-2.56,3.42-2.43,4.8-2.43s3.89.21,3.89,2.56c0,2.05-1.41,1.51-2.31,4.44l-5.77,18.87c-.7,2.26-1.48,4.44-3.39,4.44-1.68,0-2.21-1.13-2.82-2.89Z"/><path class="cls-5" d="M26.46,137.44c-2.59,0-3.3-2.09-3.83-3.61l-3.09-9.19,0-.07-.31,1-.35,1.1-2.18,6.76c-.63,2-1.29,4-4.1,4s-3.43-2.3-4-4.14L2.33,113.37a2.4,2.4,0,0,0-1.05-1.61A2.74,2.74,0,0,1,0,109c0-1.85,1.24-4,7.14-4,3.33,0,5.65.39,6.47,2.11a3.16,3.16,0,0,1,.27-.32c1.13-1.2,3.37-1.78,6.84-1.78s5.58.5,6.66,1.58a2.71,2.71,0,0,1,.78,2.05A3.31,3.31,0,0,1,27,111a2.27,2.27,0,0,0-.38.46A16.3,16.3,0,0,0,27.77,115c.12.31.23.58.3.77l.12.36c.25.77.45,1.29.61,1.65a33.69,33.69,0,0,0,1.56-6.11.38.38,0,0,0,0-.14,2,2,0,0,0-.39-.23,2.81,2.81,0,0,1-1.77-2.78c0-2.32,1.83-3.5,5.45-3.5H34c4.31,0,5,2.27,5,3.63a3.34,3.34,0,0,1-1.12,2.64,4.56,4.56,0,0,0-1.24,2.12l-5.77,18.87C30.19,134.43,29.25,137.44,26.46,137.44Zm-6.88-16c1.23,0,1.64,1.37,1.89,2.19,0,.11.06.21.09.28l3.1,9.21c.64,1.88,1,2.17,1.81,2.17,1,0,1.62-1.3,2.37-3.69l5.77-18.86a6.62,6.62,0,0,1,1.73-3,1.3,1.3,0,0,0,.53-1.17c0-.45,0-1.49-2.82-1.49h-.41c-2.92,0-3.32.69-3.32,1.37s.11.63.61.88a2.42,2.42,0,0,1,1.57,2.3,30.53,30.53,0,0,1-.9,4.36c-.87,3.23-1.62,4.43-2.75,4.43-1.37,0-2-1.74-2.68-3.68l-.1-.3c-.06-.17-.16-.42-.27-.71a14.65,14.65,0,0,1-1.26-4.3,2.76,2.76,0,0,1,1-1.93c.38-.4.54-.59.54-.88s0-.43-.16-.58-1.36-.95-5.14-.95-5,.78-5.29,1.11a.56.56,0,0,0-.19.48v.11A1.24,1.24,0,0,0,16,110l.05,0c1.44,1,2.16,4,2.16,4.56a8.64,8.64,0,0,1-.48,1.95l0,.13c-.68,2.63-1.37,4.27-2.73,4.27-1.16,0-1.92-1.24-2.71-4.41l-.15-.49A19.8,19.8,0,0,1,11,111.46a3.66,3.66,0,0,1,.52-1.89,1.52,1.52,0,0,0,.26-.84c0-.76,0-1.62-4.67-1.62-1.87,0-5,.25-5,1.91,0,.74.05.77.35,1a4.46,4.46,0,0,1,1.89,2.73l6.24,19.92c.65,2.08,1,2.65,2,2.65,1.15,0,1.39-.42,2.06-2.56L16.82,126l.35-1.09C17.87,122.68,18.26,121.46,19.58,121.46Zm-6.07-11-.08.15a1.59,1.59,0,0,0-.26.89,21.86,21.86,0,0,0,1,3.92c.09.28.15.48.18.59a17.39,17.39,0,0,0,.68,2.2,17.33,17.33,0,0,0,.63-2.05l.09-.31a10.85,10.85,0,0,0,.35-1.24,6.66,6.66,0,0,0-1.24-2.81A3.76,3.76,0,0,1,13.52,110.42Z"/><path class="cls-4" d="M36.86,121.1c0-8.89,5.67-15.18,13-15.18,9.26,0,12.81,10.19,12.81,15.6,0,9-6.37,15-13.22,15C42.36,136.49,36.86,130,36.86,121.1Zm11.44-8.93c-1.88,0-2.82,2.43-2.82,4.49,0,3.56,2,13.59,5.64,13.59,2,0,2.92-2.22,2.92-4.49C54,121.94,52.23,112.17,48.3,112.17Z"/><path class="cls-5" d="M49.44,137.56c-7.78,0-13.65-7.07-13.65-16.46s6-16.25,14-16.25c9.47,0,13.88,9.94,13.88,16.67C63.73,131.56,56.46,137.56,49.44,137.56Zm.4-30.57c-6.9,0-11.91,5.93-11.91,14.11s4.95,14.32,11.51,14.32c6,0,12.15-5.2,12.15-13.9C61.59,117,58.63,107,49.84,107Zm1.27,24.32c-5,0-6.7-11.67-6.7-14.65,0-2.69,1.36-5.55,3.89-5.55,5.17,0,6.8,11.42,6.8,14.65S53.5,131.31,51.12,131.31ZM48.3,113.24c-1,0-1.75,1.77-1.75,3.42,0,3.91,2.21,12.52,4.57,12.52,1.46,0,1.85-2.15,1.85-3.42C53,121.47,51,113.24,48.3,113.24Z"/><path class="cls-4" d="M62.63,121.1c0-8.89,5.67-15.18,13-15.18,9.26,0,12.81,10.19,12.81,15.6,0,9-6.37,15-13.22,15C68.13,136.49,62.63,130,62.63,121.1Zm11.44-8.93c-1.88,0-2.82,2.43-2.82,4.49,0,3.56,2,13.59,5.64,13.59,2,0,2.92-2.22,2.92-4.49C79.8,121.94,78,112.17,74.07,112.17Z"/><path class="cls-5" d="M75.21,137.56c-7.78,0-13.65-7.07-13.65-16.46s6-16.25,14-16.25c9.47,0,13.88,9.94,13.88,16.67C89.49,131.56,82.23,137.56,75.21,137.56Zm.4-30.57c-6.9,0-11.91,5.93-11.91,14.11s4.95,14.32,11.51,14.32c6,0,12.15-5.2,12.15-13.9C87.36,117,84.4,107,75.61,107Zm1.27,24.32c-5,0-6.7-11.67-6.7-14.65,0-2.69,1.36-5.55,3.89-5.55,5.17,0,6.8,11.42,6.8,14.65S79.27,131.31,76.88,131.31Zm-2.82-18.07c-1,0-1.75,1.77-1.75,3.42,0,3.91,2.21,12.52,4.57,12.52,1.46,0,1.85-2.15,1.85-3.42C78.73,121.47,76.76,113.24,74.07,113.24Z"/><path class="cls-4" d="M90.4,113.39c.07-4.32-2.45-2.22-2.45-4.95,0-1.93,1.95-2.22,3.12-2.22H102c9.33,0,12.38,7.21,12.38,14.76,0,7.8-3.66,15.14-12.14,15.14-1.44,0-2.65,0-3.69-.13s-1.95-.08-2.88-.08-1.91,0-2.85.08-1.88.13-2.85.13a2.43,2.43,0,0,1-2.58-2.39c0-3,2.65.34,2.75-5.79Zm8.05,15.35c0,2.14.27,3,2.08,3,4.23,0,5-5.41,5-9.6,0-9.81-3-11.36-5.54-11.36-1.41,0-1.51.71-1.51,2.31Z"/><path class="cls-5" d="M102.25,137.18c-1.46,0-2.7,0-3.78-.13h-.25c-.92,0-1.72-.07-2.55-.07s-1.84,0-2.8.08-1.9.13-2.9.13a3.49,3.49,0,0,1-3.65-3.46,2.31,2.31,0,0,1,1.7-2.6c.45-.16,1-.35,1-3.2l.27-14.55c0-1.76-.34-2-.85-2.23a2.66,2.66,0,0,1-1.6-2.7c0-2.06,1.57-3.29,4.19-3.29H102c8.54,0,13.45,5.77,13.45,15.83C115.46,128.45,112,137.18,102.25,137.18Zm-6.57-2.34c.87,0,1.73,0,2.63.07h.29c1.06.08,2.24.12,3.65.12,8.17,0,11.08-7.27,11.08-14.07,0-5.11-1.47-13.69-11.31-13.69H91.07c-2.05,0-2.05.87-2.05,1.16,0,.56,0,.58.47.82,1,.55,2,1.32,2,4.15L91.2,128c-.06,3.61-1,4.66-2.47,5.18l-.23.08a1.76,1.76,0,0,0-.05.5C88.45,135,89.91,135,90,135c.94,0,1.84,0,2.76-.12S94.73,134.84,95.67,134.84Zm4.86-2c-3.15,0-3.15-2.46-3.15-4.09V113.1c0-1.34,0-3.37,2.58-3.37,4.44,0,6.6,4.07,6.6,12.43C106.57,131,103.29,132.82,100.53,132.82Zm-.93-20.93a5.75,5.75,0,0,0-.08,1.21v15.64c0,2,.13,2,1,2,2.59,0,3.9-2.87,3.9-8.54,0-10.3-3.25-10.3-4.47-10.3A1.49,1.49,0,0,0,99.6,111.89Z"/><path class="cls-4" d="M114.86,115.7a9.76,9.76,0,0,1,9.86-9.77c2.15,0,4.56,1.22,5.07,1.22s.94-.5,1.64-.5c1.14,0,3.69,3.1,3.69,6.63,0,1.43-.74,2.85-2,2.85-2.25,0-3.56-4.78-7-4.78a2,2,0,0,0-2.15,2.1c0,3.31,4.6,2.43,8.49,5.66a8.27,8.27,0,0,1,3.12,7c0,4.91-3.22,10.44-11,10.44-2.21,0-6-.71-7.92-2-1.61-1.13-2.38-5.58-2.38-7.72,0-1.13.4-2.26,1.41-2.26,2.38,0,2,6.67,8.15,6.67.74,0,2.58-.46,2.58-2.06,0-3-4.6-2.26-8.32-6A10.47,10.47,0,0,1,114.86,115.7Z"/><path class="cls-5" d="M124.52,137.56c-2.19,0-6.29-.68-8.52-2.2s-2.85-6.53-2.85-8.6,1-3.33,2.48-3.33,2.29,1.41,3,2.76c1,1.92,2,3.9,5.16,3.9,0,0,1.52-.1,1.52-1s-.5-1.1-2.46-1.89a15.19,15.19,0,0,1-5.54-3.35,11.55,11.55,0,0,1-3.5-8.18,10.78,10.78,0,0,1,10.93-10.84,13.73,13.73,0,0,1,4.39,1l.67.23L130,106a3.25,3.25,0,0,1,1.45-.39c2,0,4.76,3.88,4.76,7.69,0,2.23-1.31,3.92-3,3.92-1.49,0-2.53-1.21-3.53-2.37s-2.07-2.41-3.52-2.41c-.72,0-1.08.35-1.08,1,0,1,.56,1.33,2.79,2.11a16.12,16.12,0,0,1,5.31,2.73,9.38,9.38,0,0,1,3.51,7.78C136.62,131.6,132.84,137.56,124.52,137.56Zm-8.89-12c-.12,0-.34.45-.34,1.2,0,2.42.91,6.12,1.93,6.84,1.6,1.08,5.07,1.82,7.3,1.82,6.89,0,10-4.71,10-9.37a7.21,7.21,0,0,0-2.73-6.14,14.14,14.14,0,0,0-4.65-2.36c-2.08-.73-4.22-1.48-4.22-4.13a3.06,3.06,0,0,1,3.21-3.16c2.43,0,3.93,1.75,5.13,3.15.69.8,1.4,1.63,1.91,1.63s.91-.85.91-1.78c0-3-2.05-5.33-2.66-5.56a1.66,1.66,0,0,0-.49.18,2.51,2.51,0,0,1-1.12.32,4.53,4.53,0,0,1-1.38-.36,12,12,0,0,0-3.68-.85,8.69,8.69,0,0,0-8.8,8.7,9.43,9.43,0,0,0,2.87,6.67,13.22,13.22,0,0,0,4.83,2.88c1.87.75,3.8,1.53,3.8,3.87,0,2.15-2.13,3.12-3.65,3.12-4.46,0-6-3-7.06-5.06C116.39,126.54,115.89,125.57,115.63,125.57Z"/><path class="cls-5" d="M74.95,66.43c-1.17-1.27-1.57-1.17-2.74-2.05A5.38,5.38,0,0,1,70.06,62c-.49-1.08-2.54-1.66-3.81-2.15s-2.05-1.47-5,.2-3.69,8.16-3.69,8.16.73-.35,2,.73A22.06,22.06,0,0,0,62.63,71c.19,2.34,4.79,6.35,5.77,6.45s1-.49,1.66-1.17.78-.1,1.66-.68,1.37-1.17,2-1.17a1.94,1.94,0,0,1,1.07.39A1.94,1.94,0,0,0,76.32,74c.39-.49,0-2.73.59-3.71S76.12,67.7,74.95,66.43Zm-9.38-5.91c.88.35,2.11.54,2.47,1.59l-.26.13A13.72,13.72,0,0,1,65.32,61,.35.35,0,0,1,65.57,60.52Zm-1.85.3c.62.15.62,1,1.29,1.05V62a3.14,3.14,0,0,1-2.29-1C62.8,60.62,63.41,60.62,63.72,60.82Zm-2.1.75a5.18,5.18,0,0,1,2.83,1.6c-.23.59-.8-.08-1.23-.06-.58-.5-1.4-.5-1.91-1.06C61.27,61.81,61.43,61.68,61.62,61.57ZM61,67.8A1.54,1.54,0,0,1,59.57,67l.13-.31c.52,0,.85.56,1.29.8Zm.67-.8a12.93,12.93,0,0,0-2.16-1.18.41.41,0,0,1,0-.62c.93.08,1.47,1.11,2.29,1.42C61.79,66.77,61.81,66.92,61.66,67Zm0-1.55c-.49-.64-1.31-.59-1.81-1.1l.13-.31c1,.08,1.57,1,2.42,1.42C62.2,65.86,61.86,65.43,61.62,65.45Zm0-1.62a2.65,2.65,0,0,1-1.42-.67c-.1-.6.62-.57.93-.37a6.87,6.87,0,0,0,2,1.1c.19.13.36.36.19.55C62.74,64.94,62.22,64,61.66,63.84ZM73,72.43c-.8,2.48-3.53,3.11-5.86,3.27a3.7,3.7,0,0,1-1.81-1.37c0-1-.69-1.75-1.16-2.59-.46-1.44-.49-3.07-1.41-4.3,0-.46.07-1,.54-1.23.89-.26.63.67.93,1.1,0,.28-.34.65.07.86,1,0,.36,1.3,1,1.79,0,.34-.13.88.35.93.32,0,.77-.33.93.05.13.56-.69,1,0,1.54.33,0,.56-.39.75-.61.43.28.12,1.23.74,1.23.21-.41,0-1,.62-1.23a1.39,1.39,0,0,0-.52-1.37,4.35,4.35,0,0,1,.2-2.14c0-.08.21-.24.32-.08.62.9-.8,2.3.49,2.79.54.41-.32,1.28.48,1.49.6-.54-.23-2.19,1.06-1.85.21-.21-.11-.52-.18-.75-.08-.49.15-1.1-.21-1.49-.77.28.06,1.75-.93,1.62-.18-.85.41-1.62,0-2.55-.46-.41-1.13-.67-1.47.07-.3.34.1.75-.13,1.11a3.32,3.32,0,0,0-.36,1.41c-.25,0-.25-.35-.38-.53.28-.86-.06-1.76.3-2.56-.26-.43-.51.41-.75,0,0-.28.26-.43.21-.75-.32-.2-.65.28-.69.56a.58.58,0,0,1-.23.42c-.34,0-.18-.42-.13-.55.54-.38.17-1.15.54-1.62,0-.13,0-.28-.11-.36-.3,0-.46.32-.82.19s-.11-.49,0-.75a3.77,3.77,0,0,1,3-.72c1.94.61,3.45,2.31,5.07,3.5a4,4,0,0,1,1.49,2.91C74.94,71.1,73.4,71.42,73,72.43Zm-7.15-4,.18-.49v.31Zm1.34,2.39,0-.36a.11.11,0,0,1,.13.13C67.27,70.65,67.35,70.78,67.22,70.81Zm7.49,2.72a.44.44,0,0,1-.49-.3,1,1,0,0,1,.72-1.06.4.4,0,0,1,.39.43A.8.8,0,0,1,74.72,73.53Z"/><path class="cls-4" d="M74.84,69.83a4,4,0,0,0-1.49-2.91c-1.62-1.18-3.14-2.88-5.07-3.5a3.84,3.84,0,0,0-3,.72c-.05.26-.23.57.05.75s.52-.21.82-.18c.16.08.1.23.1.36-.36.46,0,1.24-.54,1.62-.05.13-.2.59.13.54a.57.57,0,0,0,.23-.41c.05-.28.38-.77.69-.57.05.31-.21.46-.21.75.23.46.49-.39.75.05-.36.8,0,1.7-.31,2.55.13.18.13.51.39.54a3.17,3.17,0,0,1,.36-1.41c.23-.36-.18-.77.13-1.11.33-.75,1-.49,1.47-.08.41.92-.18,1.7,0,2.55,1,.13.15-1.34.93-1.62.36.39.13,1,.21,1.49.08.23.39.54.18.75-1.29-.33-.46,1.31-1.06,1.85-.8-.21.05-1.08-.49-1.49-1.29-.49.13-1.88-.49-2.78-.1-.15-.28,0-.31.08a4.27,4.27,0,0,0-.21,2.14,1.36,1.36,0,0,1,.52,1.36c-.62.21-.41.83-.62,1.24-.62,0-.31-1-.74-1.24-.18.23-.41.62-.75.62-.64-.49.18-1,0-1.54-.15-.39-.62,0-.92-.05-.49-.05-.34-.59-.36-.93-.62-.49,0-1.75-1-1.8-.41-.21-.05-.57-.08-.85-.28-.44,0-1.37-.93-1.11-.46.28-.49.77-.54,1.24.93,1.24,1,2.86,1.42,4.3.46.85,1.16,1.57,1.16,2.6a3.78,3.78,0,0,0,1.8,1.36c2.34-.15,5.07-.8,5.87-3.27C73.39,71.43,74.94,71.09,74.84,69.83Z"/><path class="cls-5" d="M71.13,69.34c.1-.28-.26-.54.05-.75.31.24.85.46.88.88C71.72,69.47,71.21,70,71.13,69.34Z"/><path class="cls-4" d="M74.22,73.23a.44.44,0,0,0,.49.31.82.82,0,0,0,.62-.93.4.4,0,0,0-.39-.44A1,1,0,0,0,74.22,73.23Z"/><path class="cls-3" d="M8.6,141.14a.46.46,0,0,1-.37.53l-.72.06H7.43q-.59.28-.86.38a13.07,13.07,0,0,0,0,2.29l.38-.26q.23-.27.38-.26a1.07,1.07,0,0,1,.64.31.83.83,0,0,1,.32.61.47.47,0,0,1-.06.23c-.07.14-.25.22-.53.23a1.15,1.15,0,0,0-.64.15.7.7,0,0,0-.25.17l-.23.24a10.39,10.39,0,0,0,0,1.81.66.66,0,0,1,0,.24.53.53,0,0,1-.34.48.62.62,0,0,1-.3.07,1,1,0,0,1-.57-.18.75.75,0,0,1-.35-.49.23.23,0,0,1,0-.2l.13-.13q-.06-4.19,0-6.19a1.72,1.72,0,0,1,0-.17q0-.5.61-.5l.23,0a.81.81,0,0,1,.29.08l.13.13.61-.21.21-.13a.66.66,0,0,1,.35-.07,1.05,1.05,0,0,1,.6.24A.7.7,0,0,1,8.6,141.14Z"/><path class="cls-3" d="M12.92,147.79a.66.66,0,0,1-.71.47.61.61,0,0,1-.31-.07.63.63,0,0,1-.21-.42,6.15,6.15,0,0,0-.23-.85,1.68,1.68,0,0,1-.58,1.07,1.59,1.59,0,0,1-1.1.54q-.7,0-1-.93a2.44,2.44,0,0,1-.1-.65,1.83,1.83,0,0,1,.91-1.53l1.51-.87a1.39,1.39,0,0,0,0-.32c0-.2-.05-.32-.16-.35a.93.93,0,0,0-.28-.05.45.45,0,0,0-.33.13l-.24.24a1.34,1.34,0,0,0-.3.36.46.46,0,0,1-.32.24.53.53,0,0,1-.45-.17.65.65,0,0,1-.2-.47.52.52,0,0,1,.08-.28,1.92,1.92,0,0,1,.66-.63,3.22,3.22,0,0,1,1.68-.4.88.88,0,0,1,.88.61,6.4,6.4,0,0,1,.23,1.55,17.1,17.1,0,0,0,.21,2,.78.78,0,0,0,.16.32.59.59,0,0,1,.14.34A.49.49,0,0,1,12.92,147.79Zm-1.67-2.36-.57.32a2.13,2.13,0,0,0-.52.43,1.12,1.12,0,0,0-.35.67.85.85,0,0,0,.17.48.27.27,0,0,0,.21.13q.25,0,.54-.56A6.49,6.49,0,0,0,11.25,145.43Z"/><path class="cls-3" d="M19.83,148.19a.53.53,0,0,1-.57.36.94.94,0,0,1-.83-.38,3.85,3.85,0,0,1-.14-1.45v-.51c0-.22,0-.38,0-.47q0-.67-.07-.69a10,10,0,0,0-1,2.69l0,.46a.43.43,0,0,1-.19.38.58.58,0,0,1-.28.07.92.92,0,0,1-.54-.18.78.78,0,0,1-.33-.43,6.27,6.27,0,0,1-.09-1.4q0-1.53,0-1.47c0-.27,0-.41-.06-.41q-.22.37-.38.7a4.28,4.28,0,0,0-.45,1.34,1.07,1.07,0,0,0,0,.45.42.42,0,0,1-.09.39.51.51,0,0,1-.34.11,1,1,0,0,1-.47-.13.91.91,0,0,1-.34-.29,3.68,3.68,0,0,1-.17-1.4v-2.27a1.11,1.11,0,0,0-.08-.27.8.8,0,0,1-.07-.26.31.31,0,0,1,0-.16q.12-.19.63-.19t.75.31a.34.34,0,0,1,0,.13.59.59,0,0,1-.09.25.59.59,0,0,0-.09.27v1.09q.29-.61.76-1.54l.11-.25a.62.62,0,0,1,.16-.22.53.53,0,0,1,.36-.1,1.89,1.89,0,0,1,.77.17c.26.11.39.25.4.41a.67.67,0,0,1-.07.38.43.43,0,0,0-.08.22L17,146q.15-.35.56-1.63a3.06,3.06,0,0,1,.48-1.09,1.06,1.06,0,0,1,.62-.15c.51,0,.78.15.8.44q0,1.17,0,3.92c0,.07.06.16.19.26a.41.41,0,0,1,.19.31A.55.55,0,0,1,19.83,148.19Z"/><path class="cls-3" d="M22.13,143.33a1.05,1.05,0,0,1-.15.42,1.07,1.07,0,0,0-.15.47V147a2,2,0,0,0,.11.54,2,2,0,0,1,.11.48.32.32,0,0,1-.15.29,1,1,0,0,1-.52.15.56.56,0,0,1-.52-.25,4.63,4.63,0,0,1-.2-1.83q0-.37,0-1.14t0-1.13a2.8,2.8,0,0,0,0-.35,2.67,2.67,0,0,1,0-.31.75.75,0,0,1,.23-.55.5.5,0,0,1,.36-.1,1.73,1.73,0,0,1,.52.08.64.64,0,0,1,.33.19A.37.37,0,0,1,22.13,143.33ZM22,141a.13.13,0,0,1,0,.1,1.33,1.33,0,0,1-.06.3c0,.17-.07.29-.09.36a1.75,1.75,0,0,0,0,.42.27.27,0,0,1-.12.26.65.65,0,0,1-.3.06,1.45,1.45,0,0,1-.53-.11q-.33-.13-.33-.36a.48.48,0,0,1,.06-.19.69.69,0,0,0,.07-.2,1.76,1.76,0,0,0,0-.38.35.35,0,0,1,.1-.33,1,1,0,0,1,.55-.12A.85.85,0,0,1,22,141Z"/><path class="cls-3" d="M24.39,148.24a.73.73,0,0,1-.71.37.71.71,0,0,1-.67-.33.4.4,0,0,1-.06-.21,1.27,1.27,0,0,1,.07-.32,1.32,1.32,0,0,0,.07-.36l0-6.2v-.51c0-.09.11-.16.27-.21a1.58,1.58,0,0,1,.51-.08c.26,0,.43,0,.5.14a.5.5,0,0,1,.11.3,1.38,1.38,0,0,1-.08.35,1.39,1.39,0,0,0-.08.4v5.76a1.23,1.23,0,0,0,.08.38,1.19,1.19,0,0,1,.08.34A.39.39,0,0,1,24.39,148.24Z"/><path class="cls-3" d="M29.64,143.41a.64.64,0,0,1-.1.41l-.23.39q-.4,1-1.25,3.09a7.88,7.88,0,0,0-.48,1.84,1.54,1.54,0,0,0,0,.34.5.5,0,0,1-.07.32.54.54,0,0,1-.46.2.68.68,0,0,1-.71-.41.55.55,0,0,1,0-.18.41.41,0,0,1,.08-.22.73.73,0,0,0,.1-.2l.23-1.2-1.38-4c0-.05-.07-.16-.15-.32a.69.69,0,0,1-.09-.3.49.49,0,0,1,0-.13q.1-.35.65-.35a1.1,1.1,0,0,1,.55.12.63.63,0,0,1,.28.51q0,.6.07.66l.63,2,1-2.48s0-.16.09-.42a.45.45,0,0,1,.2-.33.43.43,0,0,1,.22-.06.93.93,0,0,1,.56.21A.73.73,0,0,1,29.64,143.41Z"/><path class="cls-3" d="M37.76,147.56a.64.64,0,0,1,0,.11.57.57,0,0,1-.34.49,1.37,1.37,0,0,1-.7.2.65.65,0,0,1-.36-.09.47.47,0,0,1-.17-.23.5.5,0,0,0-.16-.23l-2.12-1.42.09.88a1,1,0,0,0,.15.28.69.69,0,0,1,.14.36.5.5,0,0,1-.27.39.7.7,0,0,1-.41.11,1.21,1.21,0,0,1-.66-.19.77.77,0,0,1-.4-.49.6.6,0,0,1,0-.1.29.29,0,0,1,.13-.24c.09-.07.13-.13.13-.19l-.31-5.47a1,1,0,0,0-.11-.33.83.83,0,0,1-.1-.3q0-.25.33-.4a1.19,1.19,0,0,1,.54-.13.87.87,0,0,1,.31.05.31.31,0,0,1,.18.16c0,.07.07.11.11.11l.59-.21a3.48,3.48,0,0,1,1.18-.25,1.5,1.5,0,0,1,1.19.52.6.6,0,0,1,.12.4,4.21,4.21,0,0,1-.81,2,9.06,9.06,0,0,1-1.58,1.92L37,147l.48.23A.54.54,0,0,1,37.76,147.56Zm-2.57-6a1.34,1.34,0,0,0-.67.4l-.71.66,0,1.72a9,9,0,0,0,1.08-1.45,2.77,2.77,0,0,0,.48-1.15C35.34,141.66,35.29,141.6,35.18,141.6Z"/><path class="cls-3" d="M41.57,147.19a1.59,1.59,0,0,1-.52.78,1.3,1.3,0,0,1-.53.28,2.16,2.16,0,0,1-.91.17,1.37,1.37,0,0,1-1.13-.83,3.8,3.8,0,0,1-.37-1.77,4.43,4.43,0,0,1,.42-2,1.71,1.71,0,0,1,1.26-1.06l.3,0q1.14,0,1.26,1.4a2.08,2.08,0,0,1-.51,1.4,3.25,3.25,0,0,1-1.57,1.17,3.44,3.44,0,0,0,.16.5.41.41,0,0,0,.37.24.84.84,0,0,0,.47-.17.93.93,0,0,0,.29-.28s.05-.08.08-.22a.38.38,0,0,1,.2-.28.29.29,0,0,1,.13,0,.62.62,0,0,1,.45.23A.51.51,0,0,1,41.57,147.19Zm-1.51-3.38q-.38,0-.62.55a3,3,0,0,0-.26,1.44,1.71,1.71,0,0,0,.84-.67,1.67,1.67,0,0,0,.38-.94C40.4,143.93,40.29,143.81,40.06,143.81Z"/><path class="cls-3" d="M45.59,146.91A1.63,1.63,0,0,1,44,148.53a1.3,1.3,0,0,1-.85-.39,3.51,3.51,0,0,1-.62-.78c-.16-.27-.23-.44-.21-.51s.29-.24.66-.24a.81.81,0,0,1,.36.07.44.44,0,0,1,.26.32.47.47,0,0,0,.1.28q.2.31.36.31a.3.3,0,0,0,.24-.17.71.71,0,0,0,.11-.4.92.92,0,0,0,0-.29q0-.14-.52-.44a3.85,3.85,0,0,1-.8-.62,1.57,1.57,0,0,1-.41-1.08,2,2,0,0,1,.42-1.26,1.3,1.3,0,0,1,1.07-.54,1.18,1.18,0,0,1,1,.51,1.2,1.2,0,0,1,.24.84.56.56,0,0,1,.11.38.65.65,0,0,1-.21.49.63.63,0,0,1-.43.2q-.33,0-.57-.43a.61.61,0,0,1-.07-.31c0-.06,0-.14,0-.24s0-.18,0-.23-.06-.25-.18-.25-.28.18-.28.55a1.15,1.15,0,0,0,.37.89,3.21,3.21,0,0,0,.62.38,1.76,1.76,0,0,1,.59.43A1.46,1.46,0,0,1,45.59,146.91Z"/><path class="cls-3" d="M49.36,143.24a3.07,3.07,0,0,1,.64,2.2,4.29,4.29,0,0,1-.45,2,1.55,1.55,0,0,1-1.4,1,1.5,1.5,0,0,1-1.36-.86,3.83,3.83,0,0,1-.42-1.9,4.82,4.82,0,0,1,.33-1.82,1.53,1.53,0,0,1,.88-1,2.16,2.16,0,0,1,.58-.08A1.62,1.62,0,0,1,49.36,143.24Zm-1.09.46c-.21,0-.39.18-.55.6a3.52,3.52,0,0,0-.2,1.19,7.25,7.25,0,0,0,.08,1.28q.13.67.56.74.27,0,.5-.74a5.65,5.65,0,0,0,.22-1.6Q48.87,143.76,48.26,143.7Z"/><path class="cls-3" d="M54.42,143.3q0,.2-.37.28a1,1,0,0,0-.49.22L52,145.6v1.46a.87.87,0,0,0,.12.43.77.77,0,0,1,.12.33.63.63,0,0,1-.07.26.65.65,0,0,1-.66.36.71.71,0,0,1-.55-.22.51.51,0,0,1-.13-.36q0-.08,0-.25a2.67,2.67,0,0,0,0-.28v-3.59a.43.43,0,0,0-.08-.21.42.42,0,0,1-.08-.2.31.31,0,0,1,0-.13c.08-.15.34-.23.78-.23s.53.08.58.24a.58.58,0,0,1,0,.16.19.19,0,0,1-.08.16.16.16,0,0,0-.08.12l0,.35.83-.87.3-.33a.57.57,0,0,1,.37-.18,1,1,0,0,1,.63.14.51.51,0,0,1,.3.45A.5.5,0,0,1,54.42,143.3Z"/><path class="cls-3" d="M57.74,143.83a.77.77,0,0,1-.24-.06.77.77,0,0,0-.25-.06l-.13,0-.36.18v3.29a.92.92,0,0,0,.2.47.64.64,0,0,1,.16.46.51.51,0,0,1-.28.34,1.07,1.07,0,0,1-.5.12.7.7,0,0,1-.7-.45,3.48,3.48,0,0,1-.07-.85q0-.48,0-1.5t0-1.46a.79.79,0,0,0-.19.13.42.42,0,0,1-.27.11.87.87,0,0,1-.27-.06c-.45-.15-.67-.31-.67-.47a.32.32,0,0,1,0-.13.29.29,0,0,1,.25-.17,1.57,1.57,0,0,0,.34-.07,8.37,8.37,0,0,0,.81-.41v-.83a.87.87,0,0,0-.05-.26.83.83,0,0,1-.05-.23.3.3,0,0,1,0-.16.77.77,0,0,1,.67-.38.72.72,0,0,1,.69.38A.6.6,0,0,1,57,142a.37.37,0,0,1-.12.24.36.36,0,0,0-.12.23V143a1.61,1.61,0,0,0,.38-.26.48.48,0,0,1,.28-.13l.11,0a.71.71,0,0,1,.61.73.61.61,0,0,1-.11.35A.33.33,0,0,1,57.74,143.83Z"/><path class="cls-3" d="M64.58,147.79a.66.66,0,0,1-.71.47.61.61,0,0,1-.31-.07.63.63,0,0,1-.21-.42,6.14,6.14,0,0,0-.23-.85,1.68,1.68,0,0,1-.58,1.07,1.59,1.59,0,0,1-1.1.54q-.7,0-1-.93a2.44,2.44,0,0,1-.1-.65,1.83,1.83,0,0,1,.91-1.53l1.51-.87a1.39,1.39,0,0,0,0-.32c0-.2-.05-.32-.16-.35a.93.93,0,0,0-.28-.05.45.45,0,0,0-.33.13l-.24.24a1.34,1.34,0,0,0-.3.36.46.46,0,0,1-.32.24.53.53,0,0,1-.45-.17.65.65,0,0,1-.2-.47.52.52,0,0,1,.08-.28,1.92,1.92,0,0,1,.66-.63,3.22,3.22,0,0,1,1.68-.4.88.88,0,0,1,.88.61,6.4,6.4,0,0,1,.23,1.55,17.1,17.1,0,0,0,.21,2,.78.78,0,0,0,.16.32.59.59,0,0,1,.14.34A.49.49,0,0,1,64.58,147.79Zm-1.67-2.36-.57.32a2.13,2.13,0,0,0-.52.43,1.12,1.12,0,0,0-.35.67.85.85,0,0,0,.17.48.27.27,0,0,0,.21.13q.25,0,.54-.56A6.49,6.49,0,0,0,62.91,145.43Z"/><path class="cls-3" d="M68.3,143.83a.77.77,0,0,1-.24-.06.77.77,0,0,0-.25-.06l-.13,0-.36.18v3.29a.92.92,0,0,0,.2.47.64.64,0,0,1,.16.46.51.51,0,0,1-.28.34,1.07,1.07,0,0,1-.5.12.7.7,0,0,1-.7-.45,3.48,3.48,0,0,1-.07-.85q0-.48,0-1.5t0-1.46a.79.79,0,0,0-.19.13.42.42,0,0,1-.27.11.87.87,0,0,1-.27-.06c-.45-.15-.67-.31-.67-.47a.32.32,0,0,1,0-.13.29.29,0,0,1,.25-.17,1.57,1.57,0,0,0,.34-.07,8.39,8.39,0,0,0,.81-.41v-.83a.87.87,0,0,0-.05-.26.83.83,0,0,1-.05-.23.3.3,0,0,1,0-.16.77.77,0,0,1,.67-.38.72.72,0,0,1,.69.38.6.6,0,0,1,.08.25.37.37,0,0,1-.12.24.36.36,0,0,0-.12.23V143a1.61,1.61,0,0,0,.38-.26.48.48,0,0,1,.28-.13l.11,0a.71.71,0,0,1,.61.73.61.61,0,0,1-.11.35A.33.33,0,0,1,68.3,143.83Z"/><path class="cls-3" d="M74.91,146.71A.58.58,0,0,1,75,147a.81.81,0,0,1-.15.46.72.72,0,0,1-.35.29,1.71,1.71,0,0,1-.56.07,2.1,2.1,0,0,0-.53,0,.88.88,0,0,0-.37.3,1,1,0,0,1-.63.27.74.74,0,0,1-.57-.19,1.16,1.16,0,0,1-.39-.57.46.46,0,0,1,0-.13.44.44,0,0,1,.14-.28.38.38,0,0,0,.13-.27l-.4-5.82a.5.5,0,0,0-.1-.18.43.43,0,0,1-.1-.24.35.35,0,0,1,.14-.26.83.83,0,0,1,.58-.18,1.45,1.45,0,0,1,.61.13.68.68,0,0,1,.37.32.46.46,0,0,1,0,.18.25.25,0,0,1-.09.17.2.2,0,0,0-.08.16l.35,5.3.58-.23.37-.17a.82.82,0,0,1,.31-.08Q74.59,146.1,74.91,146.71Z"/><path class="cls-3" d="M79.76,147.79a.66.66,0,0,1-.71.47.61.61,0,0,1-.31-.07.63.63,0,0,1-.21-.42,6.15,6.15,0,0,0-.23-.85,1.68,1.68,0,0,1-.58,1.07,1.59,1.59,0,0,1-1.1.54q-.7,0-1-.93a2.44,2.44,0,0,1-.1-.65,1.83,1.83,0,0,1,.91-1.53l1.51-.87a1.38,1.38,0,0,0,0-.32c0-.2-.05-.32-.16-.35a.93.93,0,0,0-.28-.05.45.45,0,0,0-.33.13l-.24.24a1.34,1.34,0,0,0-.3.36.46.46,0,0,1-.32.24.53.53,0,0,1-.45-.17.65.65,0,0,1-.2-.47.52.52,0,0,1,.08-.28,1.92,1.92,0,0,1,.66-.63,3.22,3.22,0,0,1,1.68-.4.88.88,0,0,1,.88.61,6.4,6.4,0,0,1,.23,1.55,17.1,17.1,0,0,0,.21,2,.78.78,0,0,0,.16.32.59.59,0,0,1,.14.34A.49.49,0,0,1,79.76,147.79Zm-1.67-2.36-.57.32a2.13,2.13,0,0,0-.52.43,1.12,1.12,0,0,0-.35.67.85.85,0,0,0,.17.48.27.27,0,0,0,.21.13q.25,0,.54-.56A6.49,6.49,0,0,0,78.09,145.43Z"/><path class="cls-3" d="M85.07,147.44a1,1,0,0,1,0,.13.92.92,0,0,1-.86.82.42.42,0,0,1-.32-.16,2.38,2.38,0,0,0-.27-.27l-1.73-1.21v.81a.6.6,0,0,0,.05.22.58.58,0,0,1,.05.2.33.33,0,0,1-.11.22.91.91,0,0,1-.69.25.54.54,0,0,1-.56-.29.52.52,0,0,1,0-.28,2.78,2.78,0,0,0,0-.34v-6.32a2.92,2.92,0,0,1,0-.52q.09-.21.53-.21t.74.21A.4.4,0,0,1,82,141a1.2,1.2,0,0,1-.07.33,1.2,1.2,0,0,0-.07.35q0,.56,0,3.14l1.38-1.35a2.43,2.43,0,0,0,.3-.41.52.52,0,0,1,.32-.23l.13,0a1,1,0,0,1,.57.21.58.58,0,0,1,.29.45.52.52,0,0,1-.19.33l-.38.36-1.59,1.65L84.44,147l.38.15A.39.39,0,0,1,85.07,147.44Z"/><path class="cls-3" d="M89.06,147.19a1.59,1.59,0,0,1-.52.78,1.3,1.3,0,0,1-.53.28,2.16,2.16,0,0,1-.91.17,1.37,1.37,0,0,1-1.13-.83,3.8,3.8,0,0,1-.37-1.77,4.43,4.43,0,0,1,.42-2,1.71,1.71,0,0,1,1.26-1.06l.3,0q1.14,0,1.26,1.4a2.08,2.08,0,0,1-.51,1.4,3.25,3.25,0,0,1-1.58,1.17,3.44,3.44,0,0,0,.16.5.41.41,0,0,0,.37.24.84.84,0,0,0,.47-.17A.92.92,0,0,0,88,147s.05-.08.08-.22a.38.38,0,0,1,.2-.28.29.29,0,0,1,.13,0,.62.62,0,0,1,.45.23A.51.51,0,0,1,89.06,147.19Zm-1.51-3.38q-.38,0-.62.55a3,3,0,0,0-.26,1.44,1.71,1.71,0,0,0,.84-.67,1.67,1.67,0,0,0,.38-.94C87.88,143.93,87.77,143.81,87.55,143.81Z"/><path class="cls-3" d="M97,146.23a.36.36,0,0,1-.3.15l-.41,0a2.87,2.87,0,0,0,.5,1.08A.57.57,0,0,1,97,148q0,.47-.58.47a.87.87,0,0,1-.75-.28.56.56,0,0,1-.09-.26c0-.07,0-.14,0-.22a7.58,7.58,0,0,1-.52-1.11q-.79.11-1.94.33a6.32,6.32,0,0,0-.25.81.94.94,0,0,1,0,.18.48.48,0,0,1-.17.4.64.64,0,0,1-.41.14.74.74,0,0,1-.5-.2.61.61,0,0,1-.23-.47.57.57,0,0,1,.22-.43,30.5,30.5,0,0,1,1.75-6.05,1.39,1.39,0,0,1,0-.23.63.63,0,0,1,.33-.63.88.88,0,0,1,.35-.06,1.61,1.61,0,0,1,.67.12.56.56,0,0,1,.35.52,1,1,0,0,1-.17.57,23.69,23.69,0,0,0,.79,3.76l.39-.1a1.21,1.21,0,0,1,.31-.06.33.33,0,0,1,.2.06.78.78,0,0,1,.34.63A.75.75,0,0,1,97,146.23Zm-2.31-.73q-.16-.61-.52-2.33a8.85,8.85,0,0,0-.81,2.56Z"/><path class="cls-3" d="M101.43,143.3q0,.2-.37.28a1,1,0,0,0-.49.22L99,145.6v1.46a.87.87,0,0,0,.12.43.77.77,0,0,1,.12.33.63.63,0,0,1-.07.26.65.65,0,0,1-.66.36.71.71,0,0,1-.55-.22.51.51,0,0,1-.13-.36q0-.08,0-.25a2.66,2.66,0,0,0,0-.28v-3.59a.43.43,0,0,0-.08-.21.42.42,0,0,1-.08-.2.31.31,0,0,1,0-.13c.08-.15.34-.23.78-.23s.53.08.58.24a.58.58,0,0,1,0,.16.19.19,0,0,1-.08.16.16.16,0,0,0-.08.12l0,.35.83-.87.3-.33a.57.57,0,0,1,.37-.18,1,1,0,0,1,.63.14.51.51,0,0,1,.3.45A.5.5,0,0,1,101.43,143.3Z"/><path class="cls-3" d="M105.71,143.3q0,.2-.36.28a1,1,0,0,0-.49.22l-1.57,1.81v1.46a.87.87,0,0,0,.12.43.77.77,0,0,1,.12.33.62.62,0,0,1-.07.26.65.65,0,0,1-.66.36.71.71,0,0,1-.55-.22.51.51,0,0,1-.13-.36q0-.08,0-.25a2.67,2.67,0,0,0,0-.28v-3.59a.43.43,0,0,0-.08-.21.42.42,0,0,1-.08-.2.31.31,0,0,1,0-.13c.08-.15.34-.23.78-.23s.53.08.58.24a.57.57,0,0,1,0,.16.19.19,0,0,1-.08.16.15.15,0,0,0-.08.12l0,.35.83-.87.3-.33a.57.57,0,0,1,.37-.18,1,1,0,0,1,.63.14.51.51,0,0,1,.3.45A.5.5,0,0,1,105.71,143.3Z"/><path class="cls-3" d="M108.86,143.24a3.07,3.07,0,0,1,.64,2.2,4.29,4.29,0,0,1-.45,2,1.55,1.55,0,0,1-1.4,1,1.5,1.5,0,0,1-1.36-.86,3.83,3.83,0,0,1-.42-1.9,4.83,4.83,0,0,1,.33-1.82,1.53,1.53,0,0,1,.88-1,2.16,2.16,0,0,1,.58-.08A1.62,1.62,0,0,1,108.86,143.24Zm-1.1.46c-.21,0-.39.18-.55.6a3.52,3.52,0,0,0-.2,1.19,7.28,7.28,0,0,0,.08,1.28q.13.67.56.74.27,0,.5-.74a5.65,5.65,0,0,0,.22-1.6Q108.37,143.76,107.76,143.7Z"/><path class="cls-3" d="M117.16,142.95a.42.42,0,0,1,0,.14.66.66,0,0,1-.17.37,1.49,1.49,0,0,0-.26.4l-1.06,3.19a1.22,1.22,0,0,0,0,.36v.21c0,.09,0,.16,0,.2a.61.61,0,0,1-.24.53.91.91,0,0,1-.55.17,1,1,0,0,1-.77-.35.58.58,0,0,1-.15-.39,2.65,2.65,0,0,0,0-.41l-.58-2.13-.56,1.92a2.44,2.44,0,0,0,0,.4.88.88,0,0,1-.11.38,1,1,0,0,1-.89.6.58.58,0,0,1-.34-.11.52.52,0,0,1-.23-.38l-.08-.51-.85-3.28a3.41,3.41,0,0,0-.17-.46,1.12,1.12,0,0,1-.12-.44.69.69,0,0,1,0-.25q.09-.27.69-.27a.75.75,0,0,1,.45.1.53.53,0,0,1,.15.4c0,.28,0,.44,0,.46l.58,2.31.81-2.36a.47.47,0,0,0,0-.13.9.9,0,0,0,0-.17.84.84,0,0,1,0-.17.36.36,0,0,1,.23-.33.86.86,0,0,1,.42-.11.87.87,0,0,1,.53.15.67.67,0,0,1,.3.49q0,.3,0,.6l.58,2.31.92-2.77a.4.4,0,0,0,0-.13,1,1,0,0,0,0-.21,1,1,0,0,1,0-.2.37.37,0,0,1,0-.16q.14-.26.76-.26T117.16,142.95Z"/><path class="cls-3" d="M121.71,147.39a1.81,1.81,0,0,1,.06.31.38.38,0,0,1-.24.33,1,1,0,0,1-.5.13.5.5,0,0,1-.53-.31.6.6,0,0,1,0-.21.45.45,0,0,1,.11-.27.45.45,0,0,0,.11-.27,6.85,6.85,0,0,0,.12-1.44q0-1.63-.23-1.67t-.56.55a6.22,6.22,0,0,0-.67,1.35,3.87,3.87,0,0,0-.27,1.56.26.26,0,0,0,0,.12.62.62,0,0,0,.08.24.63.63,0,0,1,.08.25.29.29,0,0,1-.07.18q-.26.38-.52.38t-.52-.42a13.12,13.12,0,0,1-.14-2.87q0-1,0-4.37s0-.1,0-.18,0-.14,0-.19a.4.4,0,0,1,.06-.17.46.46,0,0,1,.45-.2,1,1,0,0,1,.56.16q.25.16.2.38a.27.27,0,0,1-.09.13.22.22,0,0,0-.08.15v3.09a1.91,1.91,0,0,1,1.61-1.31q.58,0,.92.86a5.68,5.68,0,0,1,.32,2A6.31,6.31,0,0,1,121.71,147.39Z"/><path class="cls-3" d="M126.19,147.19a1.59,1.59,0,0,1-.52.78,1.3,1.3,0,0,1-.53.28,2.16,2.16,0,0,1-.91.17,1.37,1.37,0,0,1-1.13-.83,3.8,3.8,0,0,1-.37-1.77,4.43,4.43,0,0,1,.42-2,1.71,1.71,0,0,1,1.26-1.06l.3,0q1.14,0,1.26,1.4a2.08,2.08,0,0,1-.51,1.4,3.24,3.24,0,0,1-1.58,1.17,3.38,3.38,0,0,0,.16.5.41.41,0,0,0,.36.24.83.83,0,0,0,.47-.17.92.92,0,0,0,.29-.28s.05-.08.08-.22a.38.38,0,0,1,.2-.28.29.29,0,0,1,.13,0,.62.62,0,0,1,.45.23A.51.51,0,0,1,126.19,147.19Zm-1.51-3.38q-.38,0-.62.55a3,3,0,0,0-.26,1.44,1.71,1.71,0,0,0,.84-.67,1.67,1.67,0,0,0,.38-.94C125,143.93,124.9,143.81,124.68,143.81Z"/><path class="cls-3" d="M131.18,147.79a.66.66,0,0,1-.71.47.61.61,0,0,1-.31-.07.63.63,0,0,1-.21-.42,6.15,6.15,0,0,0-.23-.85,1.68,1.68,0,0,1-.58,1.07,1.59,1.59,0,0,1-1.1.54q-.7,0-1-.93a2.44,2.44,0,0,1-.1-.65,1.83,1.83,0,0,1,.91-1.53l1.51-.87a1.39,1.39,0,0,0,0-.32c0-.2-.05-.32-.16-.35a.93.93,0,0,0-.28-.05.45.45,0,0,0-.33.13l-.24.24a1.35,1.35,0,0,0-.3.36.46.46,0,0,1-.32.24.53.53,0,0,1-.45-.17.65.65,0,0,1-.2-.47.52.52,0,0,1,.08-.28,1.92,1.92,0,0,1,.66-.63,3.22,3.22,0,0,1,1.68-.4.88.88,0,0,1,.88.61,6.4,6.4,0,0,1,.23,1.55,17,17,0,0,0,.21,2,.78.78,0,0,0,.16.32.59.59,0,0,1,.14.34A.5.5,0,0,1,131.18,147.79Zm-1.67-2.36-.57.32a2.14,2.14,0,0,0-.52.43,1.12,1.12,0,0,0-.35.67.85.85,0,0,0,.17.48.27.27,0,0,0,.21.13q.25,0,.54-.56A6.47,6.47,0,0,0,129.51,145.43Z"/><path class="cls-3" d="M135.38,148.14q-.11.26-.71.26a.62.62,0,0,1-.5-.15.18.18,0,0,1,0-.13.75.75,0,0,1,0-.21,1.28,1.28,0,0,0,.06-.22,1.26,1.26,0,0,1-1,.62,1.22,1.22,0,0,1-1.16-.9,4.87,4.87,0,0,1-.28-1.8,4,4,0,0,1,.43-1.85q.48-.91,1.18-.91.39,0,.81.63v-1.24a.91.91,0,0,0-.13-.39.89.89,0,0,1-.13-.36.42.42,0,0,1,0-.19.78.78,0,0,1,.79-.43.55.55,0,0,1,.6.35.7.7,0,0,1,0,.22.93.93,0,0,1-.06.28.94.94,0,0,0-.06.3v5.47a.58.58,0,0,0,.08.25.57.57,0,0,1,.08.24A.4.4,0,0,1,135.38,148.14Zm-1.33-2.54a3.6,3.6,0,0,0-.18-1q-.2-.63-.39-.63t-.36.59a5,5,0,0,0-.11,1.08c0,.07,0,.19,0,.35v.36q0,1.08.47,1.08c.15,0,.28-.21.4-.62A4,4,0,0,0,134.05,145.6Z"/><path class="cls-3" d="M14.73,56.26A3.27,3.27,0,0,1,17.86,56a2.54,2.54,0,0,1,.35.21V53.39l-.12,0A5.81,5.81,0,0,0,12,55.42a5.92,5.92,0,0,0-.57,6.17,6,6,0,0,0,3.62,3,4.29,4.29,0,0,0,3.09-.18l.08-.06V61.85l-.15.09a3.32,3.32,0,0,1-2.52.16,3.41,3.41,0,0,1-2.23-2.65A3.28,3.28,0,0,1,14.73,56.26Z"/><polygon class="cls-3" points="22.84 53.19 20.4 53.19 20.42 64.41 25.89 64.41 25.89 62.12 22.85 62.13 22.84 53.19"/><path class="cls-3" d="M33.2,53.17l2.73,11.24H33.26l-.51-2.25H30.26l-.63,2.25H27.16l3-11.24Zm-2.37,6.67h1.32l-.64-2.55"/><path class="cls-3" d="M7.25,61c0,.59-.25,1-1,1a.94.94,0,0,1-1-1c0-.36,0-7.62,0-7.62H2.92v7.41a5.91,5.91,0,0,0,.21,1.52,3.46,3.46,0,0,0,3.15,2.21,3.49,3.49,0,0,0,3.15-2.22,5,5,0,0,0,.24-1.51V53.42H7.25Z"/><polygon class="cls-5" points="101.89 37.43 102.37 37.43 102.37 34.78 102.38 34.78 103.42 37.43 103.71 37.43 104.78 34.78 104.79 34.78 104.79 37.43 105.26 37.43 105.26 34.31 104.49 34.31 103.57 36.51 102.67 34.31 101.89 34.31 101.89 37.43"/><polygon class="cls-5" points="100.3 37.43 100.3 34.78 101.32 34.78 101.32 34.31 98.8 34.31 98.8 34.78 99.82 34.78 99.82 37.43 100.3 37.43"/><path class="cls-3" d="M36.95,55a1.72,1.72,0,1,1,1.73-1.72A1.72,1.72,0,0,1,36.95,55Zm0-3a1.32,1.32,0,1,0,1.32,1.32A1.32,1.32,0,0,0,36.95,52Z"/><path class="cls-3" d="M37.69,52.85c0-.41-.32-.51-.67-.51h-.82v1.94h.28v-.89h.36l.49.89h.32l-.49-.89A.49.49,0,0,0,37.69,52.85Zm-.9.25h-.3v-.48H37c.23,0,.44,0,.44.26S37.05,53.1,36.79,53.1Z"/></g></g></svg>
