<svg xmlns="http://www.w3.org/2000/svg" viewBox="0 0 238.99 63.5"><defs><style>.cls-1{fill:#3284bf;}.cls-2{fill:#ffc425;}.cls-3{fill:#fff;}</style></defs><title>logo_mobile</title><g id="Layer_2" data-name="Layer 2"><g id="Layer_1-2" data-name="Layer 1"><path class="cls-1" d="M108.07,14.72c-1.06-1.05-3-1-4.15-1h-.42c-1,0-3,0-4,1a2.34,2.34,0,0,0-.68,1.74A2.26,2.26,0,0,0,100,18.63a1.66,1.66,0,0,1,.86,1,14,14,0,0,1,.26,3.38c0,1.76-.37,1.81-.38,1.81s-.51-.22-1.46-1.23l-7.4-8.11C90.46,13.9,90,13.69,88,13.69h-.21c-1.23,0-3.78,0-5,1.22h0c-1.35-1.22-4-1.22-5.23-1.22S73,13.81,71.29,15c-1-1.3-3.55-1.31-4.52-1.31h-.11c-1.1,0-3.36,0-4.48,1.11a2.19,2.19,0,0,0-.64,1.61,1.89,1.89,0,0,0,1.23,1.87c.69.38,1.41.77,1.41,2.89v9.61a5.39,5.39,0,0,1-1.28,3.9A4,4,0,0,1,60,35.75c-2.8,0-4.22-2.37-4.22-7.06v-7c.08-2.37.66-2.63,1.23-2.89s1.17-.63,1.17-2c0-2.15-1.93-3.07-6.44-3.07-3,0-4.88.46-5.8,1.4a2.09,2.09,0,0,0-.6,1.64v.07a2.7,2.7,0,0,0,1,2A2.55,2.55,0,0,1,47.26,21v9c-.15,2.23,0,6.41,2.78,9.35,1.92,2,4.74,3.08,8.38,3.08,4.64,0,7.88-1.69,9.64-5A13.69,13.69,0,0,0,69.43,31V20.67c0-1.72.57-2.07,1.16-2.45l0,0a3.82,3.82,0,0,0,.73.72,3.78,3.78,0,0,1,.83.86c.29.46.58,1.56.58,6.3v3.8c0,4.24-.19,6.49-.6,7.09a2.89,2.89,0,0,1-.56.54,2.19,2.19,0,0,0-1,1.85c0,1.93,1.88,2.91,5.57,2.91,4.39,0,6.23-.72,7-1.71.68,1.11,2.25,1.71,4.61,1.71,3.24,0,5-1.14,5-3.22a1.88,1.88,0,0,0-1-1.81,2.16,2.16,0,0,1-1.09-1.68,21.71,21.71,0,0,1-.2-3.42c0-2.75.55-2.88.56-2.88.46,0,1.26.93,1.56,1.28L102,41.17a2.72,2.72,0,0,0,1.9,1.1,1.54,1.54,0,0,0,1.11-.47c1.22-1.23,1.2-4.68,1.19-6.54V24.93a22.11,22.11,0,0,1,.39-5.1,1.7,1.7,0,0,1,.93-1.09,2.13,2.13,0,0,0,1.23-2.17A2.51,2.51,0,0,0,108.07,14.72ZM84.8,35.39a2.13,2.13,0,0,1-1,1.74,3.57,3.57,0,0,0-.62.56A3.12,3.12,0,0,0,82.3,37c-.13-.09-.28-.18-.42-.29l-.11-.08c-.39-.28-.7-.5-.7-6.72v-3.8c0-1.94,0-6,.53-6.74a2.86,2.86,0,0,1,.81-.71,4.17,4.17,0,0,0,.37-.26c.14.11.29.2.43.29.63.39,1.29.79,1.53,2.71a67.61,67.61,0,0,1,.34,8.28A51.59,51.59,0,0,1,84.8,35.39Z"/><path class="cls-1" d="M47.7,37.44c-.53-.18-1-.35-1.2-2-.44-4.26-1.43-6.16-3.75-7.23l-.09-.05c-.37-.19-.45-.26-.45-.5s0-.23.25-.39l0,0a6.82,6.82,0,0,0,2.81-5.93c0-5.13-4-7.44-7.91-7.44-.67,0-1.36,0-2,.07l-1,.05h-.07c-1,.07-1.93.14-2.88.14A15.68,15.68,0,0,1,29.6,14L29,13.91c-.42,0-.85-.07-1.29-.07-2.57,0-4,1-4,2.8a1.67,1.67,0,0,0,1,1.73c.6.33,1.34.75,1.34,4.14V33.45c0,2.85-.76,3.43-1.37,3.9A2.79,2.79,0,0,0,24,38a10.39,10.39,0,0,0,1.18-4.9,7.09,7.09,0,0,0-3.65-6.23l-.07,0c-.29-.17-.36-.23-.36-.43s.1-.39.34-.64l.09-.11a7.32,7.32,0,0,0,1.81-5c0-2-.73-6.72-7.48-6.72-.49,0-1,0-1.48.08l-.71,0a18.06,18.06,0,0,1-2.11.15c-1.12,0-2.27-.07-3.39-.15L7,13.91c-.75,0-1.52-.07-2.29-.07a2.59,2.59,0,0,0-2.63,2.57A1.75,1.75,0,0,0,3.24,18.3c.65.33,1.4.69,1.3,3.89L4.2,33.24c-.11,3.73-.82,4.25-1.35,4.62A1.78,1.78,0,0,0,2,39.59,2.4,2.4,0,0,0,4.46,42c1.09,0,2.13,0,3.18-.12s2.08-.07,3.15-.07,1.87,0,2.76.07,1.9.12,2.95.12c3.72,0,6-1.65,7.33-3.85a2,2,0,0,0-.17.86c0,3.22,4.7,3.22,6.25,3.22,4.43,0,6.16-.8,6.16-2.84a2.11,2.11,0,0,0-1-1.93,1.58,1.58,0,0,1-.79-1.2A30.76,30.76,0,0,1,34,32.64c0-2.11.16-2.11.5-2.11,1.28,0,1.78,1.26,2.14,3.15l0,.15c.92,4.91,1.65,8.78,6.86,8.78,3.91,0,5.3-1.83,5.3-3.41C48.87,38,48.34,37.66,47.7,37.44ZM12.52,17.58c.31,0,.58.42.77,1.09,1.59,0,1.71,2.65,1.71,3.46,0,2.35-.53,3.3-1.85,3.3a.49.49,0,0,1-.32-.07,2.44,2.44,0,0,1-.15-1.18.47.47,0,0,1-.16,0c-.58,0-1-1.49-1-3.32S11.94,17.58,12.52,17.58ZM13.8,37.13c-.46,0-.82,0-1-1.4h0c-.82,0-1.48-1.48-1.48-3.31s.66-3.31,1.48-3.31c.42,0,.79.37,1.06,1,.72.09,1.91.65,1.91,4C15.74,37.13,14.28,37.13,13.8,37.13ZM34.3,25.62a.53.53,0,0,1-.33-.08c-.13-.14-.1-.63-.07-1.06v-.15c-.64-.2-1.14-1.67-1.14-3.46s.57-3.47,1.28-3.47c.44,0,.83.6,1.06,1.53.68.12,1.41.74,1.41,3.35C36.52,24.66,35.88,25.62,34.3,25.62Z"/><path class="cls-1" d="M132.76,30.84c-.15-.42-.4-1.61-.89-1.61s-.8,1-1.6,3.45l-1.87,5.8c-.64,2-1,3.41-2.94,3.41-1.72,0-2.18-1.34-2.74-3.11L117,20.56c-.85-2.76-2.08-1.34-2.08-3.68,0-2.65,4.14-2.73,5.55-2.73,4.48,0,5.25.88,5.25,2.46,0,1.15-.7,1.3-.7,2.49a24.82,24.82,0,0,0,1.07,4.38c.15.61.83,3.3,1.53,3.3s1.45-2.77,1.6-3.34a8.28,8.28,0,0,0,.4-1.5c0-.34-.64-2.72-1.57-3.38a2.1,2.1,0,0,1-1.13-1.88c0-.23-.43-2.53,6-2.53,6,0,5.84,1.73,5.84,2.38,0,1.27-1.39,1.61-1.39,2.57a18.78,18.78,0,0,0,1.36,4.26c.21.61.89,3,1.62,3,1,0,2.37-6.52,2.37-7.06,0-1.65-2-.8-2-2.91,0-2.34,3.13-2.23,4.39-2.23s3.56.19,3.56,2.34c0,1.88-1.29,1.38-2.12,4.07l-5.28,17.27c-.64,2.07-1.35,4.06-3.1,4.06-1.53,0-2-1-2.58-2.65Z"/><path class="cls-1" d="M138.16,42.29c-1.81,0-2.39-1.26-2.95-2.92L132.38,31c0-.08-.06-.19-.1-.32s-.28-.93-.45-1A7.24,7.24,0,0,0,131,31.8l-.33,1-2,6.18c-.57,1.77-1,3.3-3.2,3.3s-2.6-1.72-3.12-3.39l-5.71-18.22a2.73,2.73,0,0,0-1.18-1.77c-.56-.38-.92-.73-.92-2s1-3.13,6-3.13c4.17,0,5.65.75,5.65,2.86a2.76,2.76,0,0,1-.39,1.41,2,2,0,0,0-.31,1.08,19.44,19.44,0,0,0,.9,3.75l.16.52c.61,2.47,1.06,2.92,1.16,3s.53-.45,1.15-2.86l.06-.22a7.92,7.92,0,0,0,.37-1.35c0-.34-.64-2.51-1.4-3.05a2.47,2.47,0,0,1-1.3-2.21,1.94,1.94,0,0,1,.54-1.48c.91-1,2.88-1.45,5.84-1.45s4.83.42,5.69,1.28a1.89,1.89,0,0,1,.55,1.46,2.45,2.45,0,0,1-.88,1.79c-.31.33-.51.55-.51.82a14.17,14.17,0,0,0,1.07,3.44c.1.27.2.51.26.68s.06.19.1.31c.63,1.91,1,2.34,1.14,2.41.72-.48,2-6,2-6.65,0-.5-.22-.63-.69-.88a2,2,0,0,1-1.31-2,2.22,2.22,0,0,1,.64-1.63c1-1,2.94-1,4-1h.17c3.27,0,4,1.49,4,2.74a2.5,2.5,0,0,1-.87,2,4.82,4.82,0,0,0-1.27,2.17l-5.27,17.26C141.07,39.78,140.29,42.29,138.16,42.29Zm-6.29-13.46c.7,0,1,.92,1.18,1.59,0,.11.06.21.09.29h0l2.82,8.4c.56,1.61.95,2.37,2.2,2.37,1.43,0,2.08-1.71,2.72-3.78l5.28-17.27A5.54,5.54,0,0,1,147.61,18a1.73,1.73,0,0,0,.65-1.47c0-1.3-1-1.94-3.16-1.94h-.17c-.93,0-2.64,0-3.42.76a1.43,1.43,0,0,0-.4,1.07A1.24,1.24,0,0,0,142,17.7a1.64,1.64,0,0,1,1.13,1.59c0,.08-1.17,7.46-2.77,7.46-.78,0-1.31-1.13-1.91-3,0-.12-.07-.21-.09-.29l-.26-.66A14.12,14.12,0,0,1,137,19.1a2,2,0,0,1,.73-1.37,1.72,1.72,0,0,0,.66-1.2v0a1.12,1.12,0,0,0-.32-.9c-.47-.47-1.74-1-5.12-1s-4.74.66-5.26,1.2a1.08,1.08,0,0,0-.32.87v.06a1.7,1.7,0,0,0,1,1.55c1.1.78,1.75,3.34,1.75,3.71a8,8,0,0,1-.42,1.62l0,.14c-.63,2.47-1.19,3.48-1.94,3.48-.5,0-1.12-.43-1.92-3.61,0-.08-.07-.25-.14-.48a18.82,18.82,0,0,1-.94-4,2.8,2.8,0,0,1,.4-1.46,1.87,1.87,0,0,0,.3-1c0-1.17-.36-2.06-4.85-2.06-2.35,0-5.15.41-5.15,2.33,0,1,.19,1.11.57,1.36a3.55,3.55,0,0,1,1.5,2.2l5.71,18.22c.56,1.81,1,2.83,2.35,2.83s1.83-.84,2.43-2.74l2-6.19c.12-.36.23-.7.32-1C130.83,29.63,131.08,28.83,131.87,28.83Z"/><path class="cls-1" d="M147.68,27.93c0-8.14,5.18-13.89,11.88-13.89,8.47,0,11.72,9.32,11.72,14.27,0,8.25-5.83,13.7-12.09,13.7C152.71,42,147.68,36.1,147.68,27.93Zm10.46-8.18c-1.71,0-2.57,2.23-2.57,4.11,0,3.26,1.84,12.43,5.15,12.43,1.87,0,2.67-2,2.67-4.1C163.39,28.69,161.74,19.75,158.14,19.75Z"/><path class="cls-1" d="M159.19,42.41c-6.79,0-11.91-6.23-11.91-14.48s5.28-14.29,12.28-14.29c9.07,0,12.12,10.07,12.12,14.67C171.68,37.13,165.33,42.41,159.19,42.41Zm.37-28c-6.65,0-11.48,5.67-11.48,13.49s4.77,13.68,11.11,13.68c5.75,0,11.69-5,11.69-13.3C170.88,24,168,14.44,159.56,14.44Zm1.16,22.25c-3.82,0-5.55-9.84-5.55-12.83,0-2.18,1-4.51,3-4.51,4,0,5.65,9.18,5.65,12.84C163.79,34.92,162.59,36.69,160.72,36.69Zm-2.58-16.54c-1.5,0-2.17,2.17-2.17,3.71,0,3.47,1.89,12,4.75,12,1.68,0,2.27-2,2.27-3.7C163,28.69,161.29,20.15,158.14,20.15Z"/><path class="cls-1" d="M171.25,27.93c0-8.14,5.19-13.89,11.88-13.89,8.47,0,11.72,9.32,11.72,14.27,0,8.25-5.83,13.7-12.09,13.7C176.28,42,171.25,36.1,171.25,27.93Zm10.47-8.18c-1.72,0-2.58,2.23-2.58,4.11,0,3.26,1.84,12.43,5.16,12.43,1.87,0,2.67-2,2.67-4.1C187,28.69,185.31,19.75,181.72,19.75Z"/><path class="cls-1" d="M182.76,42.41c-6.79,0-11.91-6.23-11.91-14.48s5.28-14.29,12.28-14.29c9.07,0,12.12,10.07,12.12,14.67C195.25,37.13,188.9,42.41,182.76,42.41Zm.37-28c-6.65,0-11.48,5.67-11.48,13.49s4.78,13.68,11.11,13.68c5.75,0,11.69-5,11.69-13.3C194.45,24,191.6,14.44,183.13,14.44Zm1.16,22.25c-3.82,0-5.55-9.84-5.55-12.83,0-2.18,1-4.51,3-4.51,4,0,5.65,9.18,5.65,12.84C187.37,34.92,186.16,36.69,184.29,36.69Zm-2.57-16.54c-1.51,0-2.18,2.17-2.18,3.71,0,3.47,1.89,12,4.75,12,1.68,0,2.28-2,2.28-3.7C186.57,28.69,184.87,20.15,181.72,20.15Z"/><path class="cls-1" d="M197.28,20.87c.06-4-2.24-2-2.24-4.53,0-1.77,1.78-2,2.85-2h10c8.53,0,11.33,6.59,11.33,13.5,0,7.14-3.35,13.85-11.12,13.85-1.32,0-2.42,0-3.37-.11s-1.78-.08-2.64-.08-1.75,0-2.61.08-1.72.11-2.61.11a2.22,2.22,0,0,1-2.36-2.18c0-2.77,2.42.3,2.51-5.3Zm7.37,14c0,2,.24,2.76,1.9,2.76,3.87,0,4.54-5,4.54-8.78,0-9-2.7-10.4-5.06-10.4-1.29,0-1.38.65-1.38,2.11Z"/><path class="cls-1" d="M208.11,42.06c-1.32,0-2.43,0-3.4-.11l-.3,0c-.83,0-1.55-.06-2.31-.06s-1.66,0-2.59.08-1.73.11-2.63.11a2.6,2.6,0,0,1-2.76-2.59c0-1.31.53-1.61,1.17-1.83s1.29-.46,1.34-3.47l.25-13.31c0-2-.51-2.25-1.09-2.56a1.88,1.88,0,0,1-1.15-2c0-1.55,1.18-2.43,3.25-2.43h10c7.45,0,11.72,5.06,11.72,13.9C219.62,34.39,216.61,42.06,208.11,42.06Zm-6-1c.77,0,1.5,0,2.35.07h.3c1,.07,2.07.11,3.36.11,7.91,0,10.71-7.24,10.71-13.45,0-4.89-1.41-13.1-10.92-13.1h-10c-1.12,0-2.45.28-2.45,1.63,0,.86.27,1,.73,1.25.85.46,1.54,1,1.51,3.28h0l-.25,13.32c-.05,3.29-.92,3.86-1.87,4.2-.44.16-.64.23-.64,1.08a1.83,1.83,0,0,0,2,1.79c.87,0,1.72,0,2.57-.11S201.26,41.07,202.1,41.07Zm4.45-3c-2.14,0-2.3-1.37-2.3-3.16V20.6c0-1.24,0-2.51,1.78-2.51,3.72,0,5.46,3.43,5.46,10.8C211.49,36.48,208.8,38.07,206.55,38.07ZM206,18.89c-.87,0-1,.19-1,1.71V34.91c0,2,.25,2.36,1.5,2.36,2.75,0,4.14-2.82,4.14-8.38C210.69,19.92,208,18.89,206,18.89Z"/><path class="cls-1" d="M219.65,23a8.94,8.94,0,0,1,9-8.94c2,0,4.17,1.11,4.63,1.11s.86-.46,1.51-.46c1,0,3.37,2.84,3.37,6.06,0,1.31-.67,2.61-1.81,2.61-2,0-3.25-4.37-6.44-4.37a1.82,1.82,0,0,0-2,1.91c0,3,4.21,2.23,7.77,5.18a7.59,7.59,0,0,1,2.85,6.37c0,4.49-2.94,9.56-10.1,9.56-2,0-5.49-.65-7.24-1.84-1.47-1-2.18-5.11-2.18-7.06,0-1,.37-2.08,1.29-2.08,2.18,0,1.81,6.1,7.46,6.1.67,0,2.36-.42,2.36-1.88,0-2.76-4.2-2.07-7.61-5.48A9.58,9.58,0,0,1,219.65,23Z"/><path class="cls-1" d="M228.49,42.41c-1.87,0-5.55-.61-7.47-1.91-1.66-1.17-2.35-5.39-2.35-7.39,0-1.51.66-2.48,1.69-2.48s1.61,1,2.22,2.22c.89,1.73,2,3.88,5.24,3.88.39,0,2-.26,2-1.48s-.85-1.55-2.61-2.26a13.32,13.32,0,0,1-4.88-2.94,10,10,0,0,1-3-7.07,9.32,9.32,0,0,1,9.43-9.34,12.16,12.16,0,0,1,3.83.85,6.15,6.15,0,0,0,.81.26,1.42,1.42,0,0,0,.42-.16,2.47,2.47,0,0,1,1.08-.3c1.38,0,3.77,3.19,3.77,6.46,0,1.46-.77,3-2.21,3-1.1,0-1.92-1-2.79-2-1-1.18-2.07-2.4-3.65-2.4a1.44,1.44,0,0,0-1.57,1.51c0,1.39,1,1.79,2.95,2.48a14.14,14.14,0,0,1,4.67,2.4,7.92,7.92,0,0,1,3,6.67C239,37.25,235.71,42.41,228.49,42.41Zm-8.13-11c-.86,0-.89,1.51-.89,1.68,0,2.17.78,5.87,2,6.73,1.7,1.15,5.16,1.77,7,1.77,6.7,0,9.7-4.6,9.7-9.16a7.2,7.2,0,0,0-2.71-6.06,13.27,13.27,0,0,0-4.43-2.25c-1.87-.66-3.48-1.22-3.48-3.24a2.22,2.22,0,0,1,2.37-2.31c1.95,0,3.18,1.42,4.26,2.68.78.91,1.45,1.69,2.18,1.69.89,0,1.41-1.12,1.41-2.21,0-3.11-2.24-5.66-3-5.66a1.72,1.72,0,0,0-.73.22,1.74,1.74,0,0,1-.78.24,4.12,4.12,0,0,1-1.07-.3,11.58,11.58,0,0,0-3.56-.81A8.52,8.52,0,0,0,220.05,23a9.24,9.24,0,0,0,2.8,6.51,12.79,12.79,0,0,0,4.61,2.76c1.68.67,3.12,1.25,3.12,3s-1.86,2.28-2.76,2.28c-3.73,0-5-2.49-5.95-4.31C221.3,32.11,220.92,31.43,220.36,31.43Z"/><path class="cls-2" d="M131.27,29.36c-.16-.42-.4-1.61-.89-1.61s-.8,1-1.6,3.45L126.91,37c-.65,2-1,3.41-3,3.41-1.72,0-2.18-1.34-2.73-3.11l-5.71-18.22c-.86-2.76-2.09-1.35-2.09-3.69,0-2.64,4.15-2.72,5.56-2.72,4.48,0,5.25.88,5.25,2.46,0,1.15-.71,1.3-.71,2.49A23.75,23.75,0,0,0,124.61,22c.15.62.83,3.3,1.53,3.3s1.44-2.76,1.6-3.33a8.28,8.28,0,0,0,.4-1.5c0-.35-.65-2.73-1.57-3.38a2.1,2.1,0,0,1-1.13-1.88c0-.23-.43-2.53,6-2.53,6,0,5.83,1.73,5.83,2.38,0,1.27-1.38,1.61-1.38,2.57a18.92,18.92,0,0,0,1.35,4.26c.22.61.89,3,1.63,3,1,0,2.36-6.52,2.36-7.06,0-1.65-2-.8-2-2.91,0-2.34,3.13-2.23,4.39-2.23s3.56.19,3.56,2.34c0,1.88-1.29,1.38-2.12,4.07l-5.28,17.26c-.65,2.08-1.35,4.07-3.1,4.07-1.54,0-2-1-2.58-2.65Z"/><path class="cls-1" d="M136.67,41.21c-2.24,0-2.88-1.84-3.34-3.19l-2.82-8.4c0-.09-.07-.2-.11-.33a2,2,0,0,0-.07-.25c-.14.38-.3.88-.47,1.4-.09.31-.2.64-.32,1l-2,6.18c-.58,1.84-1.13,3.58-3.58,3.58s-2.95-2-3.49-3.67l-5.71-18.22a2.42,2.42,0,0,0-1-1.57,2.33,2.33,0,0,1-1.1-2.36c0-1.6,1.11-3.52,6.36-3.52,3.16,0,5.3.39,5.89,2.15a2.41,2.41,0,0,1,.41-.57c1-1.06,3-1.58,6.13-1.58s5,.46,6,1.39a2.27,2.27,0,0,1,.66,1.75,2.87,2.87,0,0,1-1,2.07c-.21.21-.4.41-.4.54a14.13,14.13,0,0,0,1,3.29c.11.28.2.52.26.69l.11.32a12.3,12.3,0,0,0,.73,1.87,27.49,27.49,0,0,0,1.6-6c0-.25,0-.28-.47-.51a2.41,2.41,0,0,1-1.52-2.39,2.62,2.62,0,0,1,.75-1.92c1.13-1.12,3.17-1.11,4.27-1.11h.17c3.79,0,4.36,2,4.36,3.14a2.93,2.93,0,0,1-1,2.3,4.26,4.26,0,0,0-1.18,2l-5.28,17.27C139.93,38.53,139.09,41.21,136.67,41.21ZM130.38,27c1,0,1.33,1.13,1.56,1.88,0,.1.05.19.08.26v0l2.83,8.4c.58,1.71.92,2.1,1.82,2.1,1.05,0,1.63-1.23,2.34-3.5l5.27-17.27a5.91,5.91,0,0,1,1.55-2.64,1.36,1.36,0,0,0,.54-1.19c0-.42,0-1.54-2.76-1.54h-.18c-.8,0-2.47,0-3.13.64a1.05,1.05,0,0,0-.28.79c0,.63.17.72.65,1A2,2,0,0,1,142,17.81a27.41,27.41,0,0,1-.82,3.94c-.88,3.27-1.55,3.92-2.34,3.92-1.14,0-1.73-1.54-2.29-3.25,0-.11-.07-.21-.09-.28l-.25-.64a13.25,13.25,0,0,1-1.15-3.88,2.38,2.38,0,0,1,.84-1.65c.35-.36.54-.58.54-.92v0a.74.74,0,0,0-.2-.62c-.34-.34-1.42-.92-4.83-.92s-4.59.67-5,1.08a.69.69,0,0,0-.22.56s0,.07,0,.09a1.3,1.3,0,0,0,.75,1.2l0,0c1.24.88,1.91,3.59,1.91,4a7.65,7.65,0,0,1-.44,1.73l0,.13c-.6,2.33-1.2,3.77-2.33,3.77-.8,0-1.5-.66-2.31-3.9,0-.07-.07-.24-.14-.46a17.94,17.94,0,0,1-1-4.11,3.2,3.2,0,0,1,.45-1.65,1.49,1.49,0,0,0,.26-.84c0-.78,0-1.66-4.45-1.66-2.17,0-4.76.33-4.76,1.92,0,.77.09.83.4,1a3.89,3.89,0,0,1,1.65,2.41L122,37.06c.62,2,1,2.55,2,2.55,1.22,0,1.46-.59,2.06-2.46L128,31c.12-.37.22-.7.32-1C129,28,129.3,27,130.38,27Zm-5.56-10.69c-.07.18-.15.33-.22.47a1.59,1.59,0,0,0-.27.89,19.27,19.27,0,0,0,.89,3.64c.08.25.13.43.16.53a12.44,12.44,0,0,0,.79,2.4,12.49,12.49,0,0,0,.75-2.27l.07-.26a8.59,8.59,0,0,0,.34-1.2,6,6,0,0,0-1.21-2.71A3.12,3.12,0,0,1,124.82,16.26Z"/><path class="cls-2" d="M146.18,26.44c0-8.13,5.19-13.88,11.88-13.88,8.47,0,11.73,9.32,11.73,14.27,0,8.25-5.83,13.7-12.1,13.7C151.22,40.53,146.18,34.62,146.18,26.44Zm10.47-8.17c-1.72,0-2.58,2.23-2.58,4.11,0,3.26,1.84,12.43,5.16,12.43,1.87,0,2.67-2,2.67-4.11C161.9,27.21,160.24,18.27,156.65,18.27Z"/><path class="cls-1" d="M157.69,41.33c-7,0-12.31-6.4-12.31-14.89s5.45-14.68,12.68-14.68c9.37,0,12.53,10.35,12.53,15.07C170.59,35.9,164,41.33,157.69,41.33Zm.37-28c-6.42,0-11.08,5.5-11.08,13.08s4.61,13.29,10.71,13.29c5.56,0,11.3-4.83,11.3-12.9C169,22.61,166.24,13.36,158.06,13.36Zm1.17,22.25c-4.17,0-6-10-6-13.23,0-2.38,1.19-4.91,3.38-4.91,4.6,0,6,10.32,6,13.23S161.34,35.61,159.23,35.61Zm-2.58-16.54c-1.1,0-1.78,1.72-1.78,3.31,0,3.83,2,11.63,4.36,11.63,1.38,0,1.87-1.78,1.87-3.31C161.1,26.72,159.22,19.07,156.65,19.07Z"/><path class="cls-2" d="M169.76,26.44c0-8.13,5.18-13.88,11.88-13.88,8.47,0,11.72,9.32,11.72,14.27,0,8.25-5.83,13.7-12.09,13.7C174.79,40.53,169.76,34.62,169.76,26.44Zm10.46-8.17c-1.72,0-2.58,2.23-2.58,4.11,0,3.26,1.85,12.43,5.16,12.43,1.87,0,2.67-2,2.67-4.11C185.47,27.21,183.81,18.27,180.22,18.27Z"/><path class="cls-1" d="M181.27,41.33c-7,0-12.31-6.4-12.31-14.89s5.45-14.68,12.68-14.68c9.37,0,12.52,10.35,12.52,15.07C194.16,35.9,187.6,41.33,181.27,41.33Zm.37-28c-6.42,0-11.08,5.5-11.08,13.08s4.6,13.29,10.71,13.29c5.55,0,11.29-4.83,11.29-12.9C192.56,22.61,189.81,13.36,181.64,13.36Zm1.16,22.25c-4.16,0-6-10-6-13.23,0-2.38,1.19-4.91,3.38-4.91,4.6,0,6.05,10.32,6.05,13.23S184.91,35.61,182.8,35.61Zm-2.58-16.54c-1.1,0-1.78,1.72-1.78,3.31,0,3.83,2,11.63,4.36,11.63,1.38,0,1.87-1.78,1.87-3.31C184.67,26.72,182.79,19.07,180.22,19.07Z"/><path class="cls-2" d="M195.78,19.38c.07-3.95-2.24-2-2.24-4.52,0-1.77,1.78-2,2.86-2h10c8.53,0,11.32,6.6,11.32,13.51,0,7.14-3.34,13.85-11.11,13.85-1.32,0-2.42,0-3.38-.11S201.46,40,200.6,40s-1.75,0-2.61.08-1.71.11-2.6.11A2.22,2.22,0,0,1,193,38c0-2.76,2.43.31,2.52-5.29Zm7.37,14.05c0,2,.25,2.76,1.9,2.76,3.87,0,4.55-4.95,4.55-8.79,0-9-2.7-10.39-5.07-10.39-1.29,0-1.38.65-1.38,2.11Z"/><path class="cls-1" d="M206.62,41c-1.33,0-2.46,0-3.44-.12h-.3c-.82,0-1.53-.06-2.28-.06s-1.77,0-2.57.07-1.73.12-2.64.12a3,3,0,0,1-3.17-3,2,2,0,0,1,1.44-2.21c.49-.17,1-.36,1.08-3.09L195,19.37c0-1.72-.37-1.93-.87-2.2a2.26,2.26,0,0,1-1.37-2.31c0-1.78,1.37-2.84,3.66-2.84h10c7.7,0,12.12,5.22,12.12,14.31C218.53,33.09,215.41,41,206.62,41Zm-6-1.79c.78,0,1.54,0,2.35.06l.33,0c1,.07,2.05.11,3.34.11,7.6,0,10.31-6.74,10.31-13.05,0-4.75-1.37-12.71-10.52-12.71h-10c-2.06,0-2.06.93-2.06,1.24,0,.62.1.67.53.9.89.48,1.75,1.15,1.71,3.64h0l-.24,13.31c-.05,3.22-.83,4.11-2.15,4.58-.35.12-.37.13-.37.7a1.45,1.45,0,0,0,1.57,1.39c.86,0,1.69,0,2.53-.11S199.7,39.19,200.6,39.19Zm4.45-2.2c-2.7,0-2.7-2.06-2.7-3.56V19.12c0-1.23,0-2.91,2.18-2.91,3.95,0,5.87,3.66,5.87,11.19C210.4,35.33,207.49,37,205.05,37Zm-.52-19.18c-.37,0-.45.06-.45.06a3.64,3.64,0,0,0-.13,1.25V33.43c0,2,.24,2,1.1,2,2.49,0,3.75-2.69,3.75-8C208.8,17.81,205.7,17.81,204.53,17.81Z"/><path class="cls-2" d="M218.16,21.49a8.93,8.93,0,0,1,9-8.93c2,0,4.18,1.11,4.64,1.11s.86-.46,1.5-.46c1.05,0,3.38,2.84,3.38,6.06,0,1.3-.68,2.61-1.81,2.61-2.06,0-3.26-4.38-6.45-4.38a1.82,1.82,0,0,0-2,1.92c0,3,4.2,2.23,7.76,5.18A7.56,7.56,0,0,1,237.1,31c0,4.49-2.95,9.56-10.1,9.56-2,0-5.49-.66-7.24-1.85-1.48-1-2.18-5.1-2.18-7.06,0-1,.37-2.07,1.29-2.07,2.18,0,1.81,6.1,7.45,6.1.68,0,2.37-.42,2.37-1.88,0-2.76-4.21-2.07-7.61-5.48A9.59,9.59,0,0,1,218.16,21.49Z"/><path class="cls-1" d="M227,41.33c-2,0-5.68-.62-7.69-2s-2.53-5.86-2.53-7.73.82-2.87,2.09-2.87,2,1.24,2.57,2.44c.89,1.72,1.89,3.66,4.88,3.66,0,0,1.57-.09,1.57-1.08s-.61-1.19-2.37-1.89a13.62,13.62,0,0,1-5-3,10.39,10.39,0,0,1-3.15-7.36,9.68,9.68,0,0,1,9.82-9.73,12.12,12.12,0,0,1,4,.88c.25.08.56.19.69.22a1.56,1.56,0,0,0,.24-.11,2.87,2.87,0,0,1,1.25-.34c1.75,0,4.18,3.46,4.18,6.86,0,1.65-.92,3.41-2.61,3.41-1.28,0-2.21-1.07-3.1-2.11s-1.94-2.27-3.35-2.27a1,1,0,0,0-1.16,1.12c0,1.08.65,1.4,2.67,2.1A14.79,14.79,0,0,1,234.76,24a8.31,8.31,0,0,1,3.14,7C237.9,36,234.49,41.33,227,41.33Zm-8.13-11c-.31,0-.49.65-.49,1.27,0,2.06.77,5.66,1.84,6.41a14.69,14.69,0,0,0,6.78,1.7c6.42,0,9.3-4.4,9.3-8.76a6.77,6.77,0,0,0-2.57-5.75,13.08,13.08,0,0,0-4.3-2.19c-1.93-.67-3.75-1.31-3.75-3.61a2.63,2.63,0,0,1,2.76-2.72c2.14,0,3.49,1.57,4.57,2.83.68.8,1.33,1.55,1.88,1.55s1-.94,1-1.81c0-2.8-2-5.15-2.6-5.26a1.33,1.33,0,0,0-.53.18,2.16,2.16,0,0,1-1,.28,4.16,4.16,0,0,1-1.21-.33,11.23,11.23,0,0,0-3.43-.78A8.12,8.12,0,0,0,219,21.49a8.81,8.81,0,0,0,2.68,6.23,12.38,12.38,0,0,0,4.48,2.68c1.73.69,3.37,1.35,3.37,3.37,0,1.85-1.85,2.68-3.17,2.68-4,0-5.37-2.73-6.3-4.53C219.62,31.15,219.21,30.35,218.87,30.35Z"/><path class="cls-2" d="M19.55,23.87a1.47,1.47,0,0,0-.55,1c0,.5.34.65.65.84a6.72,6.72,0,0,1,3.43,5.87c0,3.84-2,8.56-8.22,8.56-1,0-2,0-2.92-.11S10.1,40,9.15,40,7,40,6,40.07s-2.09.11-3.16.11a2,2,0,0,1-2-2c0-2.38,2,0,2.18-6.33l.34-11C3.5,15,.86,17.62.86,15a2.17,2.17,0,0,1,2.21-2.15c1.14,0,2.27.08,3.41.12s2.27.15,3.41.15A18.74,18.74,0,0,0,12,12.94c.71,0,1.45-.12,2.15-.12,5.62,0,7.06,3.34,7.06,6.3A6.93,6.93,0,0,1,19.55,23.87Zm-8.93-1.68c0,1.49-.06,2.22.89,2.22,1.84,0,2.27-1.61,2.27-3.72,0-1.73-.46-3.88-2.15-3.88-1.13,0-1,1.16-1,2.27Zm0,9.36c0,4.45.59,4.56,1.54,4.56,1.75,0,2.36-1.49,2.36-3.49,0-2.34-.55-4.41-2.7-4.41-1,0-1.17.61-1.2,1.42Z"/><path class="cls-1" d="M14.86,41c-1.06,0-2,0-3-.12s-1.8-.07-2.73-.07S7,40.83,6,40.86,3.92,41,2.83,41A2.8,2.8,0,0,1,0,38.15a2.16,2.16,0,0,1,1-2c.43-.31,1.09-.77,1.19-4.32l.34-11c.09-2.95-.54-3.26-1.09-3.53A2.15,2.15,0,0,1,.06,15a3,3,0,0,1,3-3c.78,0,1.56,0,2.31.07l1.13.05c1.12.08,2.26.15,3.38.15A17.52,17.52,0,0,0,12,12.14h0l.68,0c.5,0,1-.08,1.51-.08,7.1,0,7.86,5,7.86,7.1a7.78,7.78,0,0,1-1.91,5.31l-.09.1c-.22.24-.24.27-.24.38L20,25l.05,0a7.49,7.49,0,0,1,3.85,6.57C23.88,35.94,21.52,41,14.86,41ZM9.15,39.19c1,0,1.9,0,2.81.08h0c.91.07,1.84.11,2.85.11,7.07,0,7.42-6.46,7.42-7.76a5.92,5.92,0,0,0-3-5.15l-.16-.09a1.65,1.65,0,0,1-.94-1.47,2,2,0,0,1,.67-1.47l.12-.13a6.24,6.24,0,0,0,1.45-4.19c0-2.51-1.08-5.5-6.26-5.5-.45,0-.93,0-1.39.07l-.69.05a22.14,22.14,0,0,1-2.21.15c-1.17,0-2.34-.08-3.47-.15l-1.11-.05c-.74,0-1.5-.07-2.24-.07A1.38,1.38,0,0,0,1.66,15c0,.57.06.59.48.8,1.11.55,2.09,1.34,2,5L3.78,31.84c-.12,4-.94,4.92-1.85,5.57-.29.21-.33.24-.33.74a1.19,1.19,0,0,0,1.23,1.23c1,0,2.07,0,3.1-.11S8.06,39.19,9.15,39.19Zm3-2.28c-2,0-2.34-1.58-2.34-5.36V29.63c.07-1.84,1.13-2.22,2-2.22,1.6,0,3.5.9,3.5,5.21C15.32,36.36,13.34,36.91,12.16,36.91ZM11.82,29c-.29,0-.37,0-.4.65v1.89c0,3.14.32,3.66.42,3.74a1.57,1.57,0,0,0,.32,0c.42,0,1.56,0,1.56-2.69C13.72,29,12.34,29,11.82,29Zm-.31-3.8a1.6,1.6,0,0,1-1.18-.43c-.51-.52-.51-1.28-.51-2.34V18.79a3.07,3.07,0,0,1,.56-2.3A1.74,1.74,0,0,1,11.63,16c1.85,0,2.95,1.75,2.95,4.68C14.58,21.81,14.58,25.21,11.51,25.21Zm0-1.6h0c.71,0,1.47-.22,1.47-2.92,0-.32,0-3.08-1.35-3.08a.32.32,0,0,0-.13,0,4,4,0,0,0-.08,1.14v3.67A7.63,7.63,0,0,0,11.47,23.61Z"/><path class="cls-2" d="M24.74,21.07c0-5.94-2.33-3.49-2.33-5.87,0-2.11,2.39-2.38,3.62-2.38.64,0,1.26.08,1.9.12a14.88,14.88,0,0,0,1.88.15c1,0,2-.07,3-.15s2-.12,3-.12c3.47,0,7.49,1.92,7.49,7,0,2.3-.89,4.52-2.61,5.56-.28.19-.49.31-.49.77s.4.73.77.92c2.15,1,3.1,2.76,3.53,6.9.37,3.57,2.36,1.42,2.36,3.76,0,1.46-1.41,3-4.88,3-4.91,0-5.53-3.53-6.48-8.6-.33-1.76-.86-3.49-2.54-3.49-.68,0-.93.12-.93,2.53a30.34,30.34,0,0,0,.22,3.72C32.45,36.69,34,36.15,34,38c0,1.38-.77,2.42-5.74,2.42-1.47,0-5.83,0-5.83-2.8,0-2,2.3-.61,2.3-5.6Zm7.12,1.69c-.06,1-.21,1.84.8,1.84,2,0,2.64-1.38,2.64-3.76,0-1.88-.37-3.8-2.15-3.8-1.13,0-1.1.89-1.17,2.08Z"/><path class="cls-1" d="M41.93,41.56c-5.53,0-6.28-4-7.23-9.1l0-.15c-.4-2.07-.88-2.84-1.76-2.84h0a8.22,8.22,0,0,0-.11,1.73A29.94,29.94,0,0,0,33,34.81a1.18,1.18,0,0,0,.64.94A2.51,2.51,0,0,1,34.81,38c0,2.67-2.61,3.22-6.54,3.22-1.64,0-6.63,0-6.63-3.6a2.27,2.27,0,0,1,1.08-2c.57-.44,1.22-.94,1.22-3.6V21.07c0-3.17-.63-3.53-1.14-3.81a2,2,0,0,1-1.19-2.06c0-2,1.65-3.18,4.42-3.18.46,0,.9,0,1.32.07l.63.05H28a16.33,16.33,0,0,0,1.78.14c.92,0,1.85-.07,2.84-.14h.07l1-.05c.68,0,1.37-.07,2-.07,4.13,0,8.29,2.42,8.29,7.83a7.19,7.19,0,0,1-3,6.23l0,0-.09.06h0v0l.24.12.1.05c2.42,1.12,3.5,3.17,4,7.53.15,1.45.5,1.57.94,1.72a1.9,1.9,0,0,1,1.43,2.12C47.61,39.65,45.85,41.56,41.93,41.56Zm-9-13.69c2.54,0,3.07,2.8,3.33,4.14l0,.15c1,5.41,1.63,7.8,5.66,7.8,2.82,0,4.08-1.11,4.08-2.2a1,1,0,0,0-.07-.49,1.64,1.64,0,0,0-.28-.12c-.89-.3-1.77-.79-2-3.06-.44-4.28-1.42-5.5-3.07-6.27l-.11-.06a1.69,1.69,0,0,1-1.12-1.58,1.53,1.53,0,0,1,.78-1.39l.1-.07a5.57,5.57,0,0,0,2.22-4.87c0-4.6-3.6-6.23-6.69-6.23-.64,0-1.31,0-2,.07l-1,.05h0c-1,.08-2,.15-3,.15a16.31,16.31,0,0,1-1.95-.15l-.64-.05c-.41,0-.8-.07-1.19-.07-1.29,0-2.82.28-2.82,1.58,0,.46,0,.47.37.66,1,.58,2,1.42,2,5.21V32c0,3.18-.87,4.12-1.84,4.87-.38.29-.46.35-.46.73,0,1.35,1.65,2,5,2,4.94,0,4.94-1,4.94-1.62s-.15-.66-.54-1a2.73,2.73,0,0,1-1.26-2,29.47,29.47,0,0,1-.23-3.83C31.18,29.41,31.18,27.87,32.91,27.87Zm-.25-2.47a1.56,1.56,0,0,1-1.22-.47,2.49,2.49,0,0,1-.39-2v-.24l.14-3.85c.05-1.05.12-2.63,1.95-2.63,1.35,0,3,.8,3,4.6C36.1,22,36.1,25.4,32.66,25.4Zm0-1.6h0c.93,0,1.84-.23,1.84-3,0-3-1-3-1.35-3a.55.55,0,0,0-.22,0,3.67,3.67,0,0,0-.14,1.07v.22l-.14,3.91A6.25,6.25,0,0,0,32.62,23.8Z"/><path class="cls-2" d="M63,19.73c0-4.11-2.64-2.53-2.64-4.76,0-2.38,3.56-2.3,4.82-2.3s4.54,0,4.54,2.23-2.3.84-2.3,4.33V29.59c0,1.73,0,10.94-10.59,10.94C44.69,40.53,46,28.86,46,28.4V19.54c.13-2.42-2-2.42-2-4.18,0-.54-.34-2.69,6-2.69,5,0,6,1.15,6,2.65,0,2.76-2.24.19-2.39,4.87v7.06c0,4.57,1.38,7.48,4.63,7.48,4.85,0,4.64-5,4.64-5.45Z"/><path class="cls-1" d="M56.79,41.33c-3.76,0-6.67-1.08-8.67-3.21-2.85-3-3-7.34-2.88-9.63v-9a2.14,2.14,0,0,0-.84-1.88,3,3,0,0,1-1.12-2.26V15.3A2.47,2.47,0,0,1,44,13.38c1-1,3-1.51,6.07-1.51,3.37,0,6.82.41,6.82,3.45a2.14,2.14,0,0,1-1.39,2.34c-.46.21-.93.42-1,2.56v7c0,4.43,1.29,6.68,3.83,6.68A3.61,3.61,0,0,0,61,33a5.08,5.08,0,0,0,1.17-3.63V19.73c0-1.89-.56-2.2-1.21-2.55A2.29,2.29,0,0,1,59.52,15a2.63,2.63,0,0,1,.75-1.88c1.23-1.23,3.61-1.22,4.75-1.22h.12c3.54,0,5.34,1,5.34,3a2.36,2.36,0,0,1-1.32,2.21c-.55.34-1,.61-1,2.12V29.59a14,14,0,0,1-1.42,6.51C65.5,38.48,62.75,41.33,56.79,41.33ZM46.84,19.56V28.4a1.67,1.67,0,0,1,0,.19c-.13,2,0,5.83,2.46,8.43,1.68,1.8,4.2,2.71,7.5,2.71,4.15,0,7-1.48,8.55-4.38a12.38,12.38,0,0,0,1.24-5.74V19.23c0-2.21.85-2.93,1.73-3.48.46-.29.57-.35.57-.85,0-1-1.23-1.43-3.74-1.43H65c-.85,0-2.85,0-3.62.76a1,1,0,0,0-.28.74c0,.47.1.53.6.81,1,.56,2,1.33,2,4v9.6a6.6,6.6,0,0,1-1.63,4.77,5.14,5.14,0,0,1-3.81,1.43c-2.48,0-5.43-1.43-5.43-8.28V20.19c.09-2.92,1-3.55,1.94-4,.38-.17.45-.2.45-.88s0-1.85-5.22-1.85c-3.41,0-4.55.65-4.93,1a.91.91,0,0,0-.25.76v.1c0,.45.21.69.66,1.14A3.7,3.7,0,0,1,46.84,19.56Z"/><path class="cls-2" d="M71.55,24.64c0-4.87-.31-6-.65-6.52C70.2,17,69,16.89,69,15.43c0-2.76,6.26-2.76,6.88-2.76,1.84,0,5.61.08,5.61,2.69,0,1.38-1.16,1.3-1.87,2.3-.58.84-.61,4.3-.61,7v3.8c0,6.83.37,6.68,1,7.14.77.57,1.5.76,1.5,2s-.27,2.88-7,2.88c-1.29,0-5.16,0-5.16-2.49,0-1.23,1-1.42,1.53-2.15.37-.54.68-2,.68-7.33Z"/><path class="cls-1" d="M74.5,41.21c-4,0-6-1.11-6-3.29a2.59,2.59,0,0,1,1.2-2.15,2.27,2.27,0,0,0,.47-.45c.36-.52.54-2.84.54-6.88v-3.8c0-3.59-.17-5.53-.52-6.1a3.6,3.6,0,0,0-.75-.76,2.8,2.8,0,0,1-1.28-2.35c0-3.21,5.37-3.56,7.68-3.56,1.58,0,6.41,0,6.41,3.49A2.37,2.37,0,0,1,81,17.51a2.54,2.54,0,0,0-.72.61c-.46.68-.46,5.08-.46,6.52v3.8c0,6,.3,6.24.54,6.41l.12.09a4.81,4.81,0,0,0,.41.27,2.53,2.53,0,0,1,1.41,2.32C82.29,40.11,80,41.21,74.5,41.21Zm1.38-27.74c-3,0-6.08.67-6.08,2,0,.51.18.69.7,1.12a4.78,4.78,0,0,1,1.08,1.14c.41.65.77,1.66.77,7v3.8c0,6.08-.4,7.18-.82,7.78a3.53,3.53,0,0,1-.79.8c-.45.35-.6.5-.6.9,0,1.4,2.37,1.69,4.36,1.69,6.19,0,6.19-1.46,6.19-2.08s-.13-.61-.69-1l-.49-.33-.08-.07c-.91-.64-1.22-1.19-1.22-7.71v-3.8c0-4.11.12-6.52.75-7.44a3.86,3.86,0,0,1,1.14-1c.49-.33.59-.41.59-.82C80.69,14.07,79.16,13.47,75.88,13.47Z"/><path class="cls-2" d="M97.24,22.34c.37.38,1.35,1.5,1.9,1.5.77,0,.8-1.58.8-2.23a16.68,16.68,0,0,0-.27-3.49c-.43-1.61-2.06-1-2.06-3.11,0-2.45,3.13-2.34,4.42-2.34s4.69-.19,4.69,2.46c0,2.18-1.62,1.38-2.14,3.14a22.64,22.64,0,0,0-.4,5.22v9.94c0,1.72.18,7-1.88,7a2.36,2.36,0,0,1-1.59-1L91.22,28.82c-.43-.5-1.22-1.42-1.87-1.42-.95,0-1,2.5-1,3.3a22,22,0,0,0,.21,3.49c.47,2.46,2.09,1.54,2.09,3.42,0,2.57-3.16,2.8-4.6,2.8s-4.58-.23-4.58-2.72c0-2,1.78-1.23,2.09-3.69a50.13,50.13,0,0,0,.28-5.79,68.34,68.34,0,0,0-.34-8.33c-.49-3.83-2.7-2.34-2.7-4.64,0-2.72,4.14-2.57,5.52-2.57,1.91,0,2.24.15,3.63,1.69Z"/><path class="cls-1" d="M102.3,41.21A3.05,3.05,0,0,1,100.12,40L90.63,29.36a5,5,0,0,0-1.16-1.11,6.16,6.16,0,0,0-.3,2.45,20.7,20.7,0,0,0,.2,3.35,1.78,1.78,0,0,0,.92,1.43,2.25,2.25,0,0,1,1.18,2.13c0,1.08-.52,3.6-5.4,3.6-3.42,0-5.38-1.28-5.38-3.52a2.53,2.53,0,0,1,1.22-2.3,1.81,1.81,0,0,0,.88-1.49,52.81,52.81,0,0,0,.27-5.69A68.64,68.64,0,0,0,82.73,20c-.23-1.74-.78-2.08-1.36-2.43A2.38,2.38,0,0,1,80,15.24a2.79,2.79,0,0,1,.82-2c1.36-1.35,4-1.34,5.3-1.33h.2c2.14,0,2.69.26,4.22,2L98,21.93a7.53,7.53,0,0,0,1.06,1,5.42,5.42,0,0,0,.12-1.32,13.25,13.25,0,0,0-.25-3.28,1.27,1.27,0,0,0-.7-.82A2.63,2.63,0,0,1,96.81,15a2.7,2.7,0,0,1,.79-2c1.14-1.14,3.17-1.13,4.26-1.13h.42c1.22,0,3.24,0,4.42,1.14a2.86,2.86,0,0,1,.82,2.12,2.5,2.5,0,0,1-1.41,2.5,1.37,1.37,0,0,0-.77.87,22.75,22.75,0,0,0-.36,5V33.82c0,2.64-.07,5.57-1.3,6.8A1.89,1.89,0,0,1,102.3,41.21Zm-13-14.61c.94,0,1.77.88,2.48,1.7l9.48,10.62c.26.29.67.69,1,.69a.3.3,0,0,0,.24-.11c.87-.87.85-4.36.84-5.67V23.49a22.9,22.9,0,0,1,.43-5.44,2.83,2.83,0,0,1,1.48-1.79c.46-.28.63-.38.63-1.13a1.29,1.29,0,0,0-.35-1c-.7-.7-2.38-.69-3.28-.68h-.43c-.86,0-2.46,0-3.13.66a1.16,1.16,0,0,0-.32.88,1.1,1.1,0,0,0,.66,1.17,2.77,2.77,0,0,1,1.37,1.73,15.75,15.75,0,0,1,.3,3.7c0,.75,0,3-1.6,3-.77,0-1.55-.76-2.35-1.61l-.14-.15-7.28-8c-1.23-1.38-1.35-1.43-3-1.43h-.21c-1,0-3.27,0-4.16.86a1.21,1.21,0,0,0-.35.91c0,.58.11.65.59.94.71.44,1.78,1.1,2.1,3.6a68.4,68.4,0,0,1,.35,8.43,52.66,52.66,0,0,1-.29,5.9,3.28,3.28,0,0,1-1.5,2.56c-.43.32-.58.43-.58,1,0,1.59,2.06,1.92,3.78,1.92s3.8-.35,3.8-2c0-.48-.08-.54-.47-.8a3.31,3.31,0,0,1-1.6-2.47,20.66,20.66,0,0,1-.23-3.64C87.57,29.58,87.57,26.6,89.35,26.6Z"/><path class="cls-3" d="M7.65,47.68a.83.83,0,0,1-.67,1l-1.29.1c-.06,0-.11,0-.13,0-.7.33-1.21.56-1.55.68a24.43,24.43,0,0,0,0,4.09l.69-.47c.27-.32.5-.47.68-.46a1.86,1.86,0,0,1,1.14.56,1.47,1.47,0,0,1,.58,1.09.87.87,0,0,1-.11.41c-.12.25-.44.39-.94.41a2.06,2.06,0,0,0-1.15.27,1.27,1.27,0,0,0-.45.3L4,56.05a19,19,0,0,0,0,3.23,1.14,1.14,0,0,1,.09.43,1,1,0,0,1-.6.86,1.12,1.12,0,0,1-.53.12,1.72,1.72,0,0,1-1-.33,1.35,1.35,0,0,1-.61-.87.41.41,0,0,1,.07-.36l.24-.23c-.07-5-.07-8.67,0-11a1.67,1.67,0,0,1,0-.31c0-.59.36-.89,1.08-.89a2,2,0,0,1,.41,0,1.66,1.66,0,0,1,.52.13l.24.24L5,46.69l.37-.23A1.14,1.14,0,0,1,6,46.33a1.85,1.85,0,0,1,1.08.43A1.22,1.22,0,0,1,7.65,47.68Z"/><path class="cls-3" d="M15.46,59.55a1.18,1.18,0,0,1-1.27.85,1.21,1.21,0,0,1-.55-.12,1.16,1.16,0,0,1-.38-.76A11.36,11.36,0,0,0,12.85,58a3,3,0,0,1-1,1.92,2.86,2.86,0,0,1-2,1c-.84,0-1.42-.56-1.74-1.67A4.53,4.53,0,0,1,7.94,58a3.28,3.28,0,0,1,1.63-2.72q1.34-.8,2.7-1.56a2.91,2.91,0,0,0,.06-.57c0-.36-.09-.56-.29-.63a1.71,1.71,0,0,0-.49-.09.85.85,0,0,0-.6.23l-.43.44a2.32,2.32,0,0,0-.54.63.8.8,0,0,1-.56.43.94.94,0,0,1-.81-.31,1.15,1.15,0,0,1-.36-.84,1,1,0,0,1,.14-.5,3.47,3.47,0,0,1,1.18-1.13,5.75,5.75,0,0,1,3-.72,1.57,1.57,0,0,1,1.58,1.1,11.34,11.34,0,0,1,.42,2.76,30,30,0,0,0,.37,3.59,1.42,1.42,0,0,0,.29.56,1,1,0,0,1,.26.6A1,1,0,0,1,15.46,59.55Zm-3-4.22-1,.57a3.54,3.54,0,0,0-.93.77,2,2,0,0,0-.62,1.2,1.49,1.49,0,0,0,.31.86.47.47,0,0,0,.37.24c.3,0,.63-.33,1-1A11.53,11.53,0,0,0,12.47,55.33Z"/><path class="cls-3" d="M27.9,60.28a1,1,0,0,1-1,.63,1.67,1.67,0,0,1-1.47-.69,6.87,6.87,0,0,1-.26-2.59v-.91c0-.4,0-.68,0-.84q0-1.2-.12-1.23c-.17-.07-.76,1.53-1.75,4.8,0,0,0,.29-.07.83a.75.75,0,0,1-.34.66,1.06,1.06,0,0,1-.5.12,1.63,1.63,0,0,1-1-.32,1.43,1.43,0,0,1-.59-.77,11.8,11.8,0,0,1-.15-2.51c0-1.82,0-2.69,0-2.62,0-.48,0-.73-.1-.74-.26.43-.49.85-.68,1.25a7.66,7.66,0,0,0-.81,2.4,2,2,0,0,0,0,.81c.05.34,0,.58-.15.7a.88.88,0,0,1-.6.19,1.77,1.77,0,0,1-.84-.23,1.57,1.57,0,0,1-.6-.52,6.38,6.38,0,0,1-.31-2.51v-4a2.07,2.07,0,0,0-.14-.48,1.41,1.41,0,0,1-.12-.46.52.52,0,0,1,.09-.29c.14-.23.52-.35,1.13-.35s1.19.19,1.34.55a.69.69,0,0,1,.05.24,1,1,0,0,1-.17.45,1.12,1.12,0,0,0-.16.48v2c.34-.72.8-1.64,1.36-2.75.07-.15.13-.3.19-.44a1.14,1.14,0,0,1,.29-.4.93.93,0,0,1,.63-.17,3.29,3.29,0,0,1,1.38.31c.47.2.7.45.72.74a1.25,1.25,0,0,1-.13.67.8.8,0,0,0-.15.39l0,3.7q.27-.61,1-2.91a5.42,5.42,0,0,1,.86-2,1.89,1.89,0,0,1,1.11-.27c.92,0,1.39.26,1.43.79,0,1.39,0,3.73,0,7,0,.12.11.27.34.45A.72.72,0,0,1,28,60,1.16,1.16,0,0,1,27.9,60.28Z"/><path class="cls-3" d="M32.08,51.59a2,2,0,0,1-.26.75,1.92,1.92,0,0,0-.27.83v5a3.5,3.5,0,0,0,.19,1,3.89,3.89,0,0,1,.19.86.57.57,0,0,1-.28.52,1.68,1.68,0,0,1-.92.27,1,1,0,0,1-.93-.44,8.29,8.29,0,0,1-.36-3.28c0-.44,0-1.11,0-2s0-1.6,0-2a6,6,0,0,0,0-.63c0-.25-.05-.44-.05-.55a1.34,1.34,0,0,1,.41-1,.88.88,0,0,1,.64-.17,3,3,0,0,1,.92.14,1.08,1.08,0,0,1,.59.34A.62.62,0,0,1,32.08,51.59Zm-.22-4.18a.25.25,0,0,1,.05.17,2.26,2.26,0,0,1-.1.53l-.16.64a3.16,3.16,0,0,0,0,.75c0,.24-.07.4-.22.47a1.08,1.08,0,0,1-.54.11A2.65,2.65,0,0,1,30,49.9c-.39-.16-.58-.38-.58-.64a.79.79,0,0,1,.1-.33,1.16,1.16,0,0,0,.12-.36,3.52,3.52,0,0,0,0-.68.64.64,0,0,1,.17-.59,1.77,1.77,0,0,1,1-.2A1.5,1.5,0,0,1,31.86,47.41Z"/><path class="cls-3" d="M36.2,60.36a1.29,1.29,0,0,1-1.27.65,1.27,1.27,0,0,1-1.2-.58.7.7,0,0,1-.1-.38,2.24,2.24,0,0,1,.12-.56,2.38,2.38,0,0,0,.12-.66L33.8,47.75v-.93c0-.14.19-.27.48-.36a2.71,2.71,0,0,1,.91-.15c.47,0,.76.09.89.26a.86.86,0,0,1,.19.53,2.71,2.71,0,0,1-.14.63,2.51,2.51,0,0,0-.14.71V58.73a2.16,2.16,0,0,0,.15.68,2.07,2.07,0,0,1,.15.61A.67.67,0,0,1,36.2,60.36Z"/><path class="cls-3" d="M45.67,51.73a1.17,1.17,0,0,1-.17.74c-.26.43-.4.67-.41.7-.48,1.15-1.23,3-2.23,5.53A13.72,13.72,0,0,0,42,62a3.08,3.08,0,0,0,0,.6.91.91,0,0,1-.12.57,1,1,0,0,1-.82.36,1.22,1.22,0,0,1-1.27-.74.84.84,0,0,1-.07-.32.67.67,0,0,1,.14-.39A1.21,1.21,0,0,0,40,61.7l.41-2.15L38,52.45c0-.09-.13-.28-.28-.56a1.3,1.3,0,0,1-.15-.54,1,1,0,0,1,0-.24c.12-.41.51-.61,1.17-.61a2,2,0,0,1,1,.2,1.13,1.13,0,0,1,.5.91,9,9,0,0,0,.12,1.18l1.13,3.57,1.75-4.42s.06-.29.15-.76a.82.82,0,0,1,.36-.58.77.77,0,0,1,.4-.1,1.68,1.68,0,0,1,1,.36A1.31,1.31,0,0,1,45.67,51.73Z"/><path class="cls-3" d="M60.6,59.14a1.28,1.28,0,0,1,0,.19,1,1,0,0,1-.6.87,2.49,2.49,0,0,1-1.25.35,1.18,1.18,0,0,1-.63-.15.8.8,0,0,1-.3-.41.88.88,0,0,0-.29-.4l-3.79-2.54.15,1.58a2.61,2.61,0,0,0,.27.5,1.19,1.19,0,0,1,.25.63.88.88,0,0,1-.48.7,1.24,1.24,0,0,1-.74.21A2.16,2.16,0,0,1,52,60.33a1.36,1.36,0,0,1-.72-.88,1.28,1.28,0,0,1,0-.17.53.53,0,0,1,.23-.42c.16-.12.23-.23.23-.33l-.55-9.78a1.92,1.92,0,0,0-.18-.6,1.38,1.38,0,0,1-.18-.54c0-.29.2-.53.59-.72a2.15,2.15,0,0,1,1-.24,1.4,1.4,0,0,1,.56.1.56.56,0,0,1,.33.29c.05.13.12.2.2.2s.36-.12,1-.38a6.12,6.12,0,0,1,2.11-.45,2.69,2.69,0,0,1,2.13.93,1.05,1.05,0,0,1,.22.72,7.54,7.54,0,0,1-1.44,3.53A16.5,16.5,0,0,1,54.73,55l4.43,3.08.85.42A1,1,0,0,1,60.6,59.14ZM56,48.49a2.41,2.41,0,0,0-1.2.72c-.12.09-.54.49-1.27,1.18l0,3.07a15.48,15.48,0,0,0,1.92-2.6,4.78,4.78,0,0,0,.86-2C56.27,48.6,56.18,48.49,56,48.49Z"/><path class="cls-3" d="M67.48,58.47a2.85,2.85,0,0,1-.93,1.39,2.3,2.3,0,0,1-.94.5,4,4,0,0,1-1.63.31,2.45,2.45,0,0,1-2-1.48A6.82,6.82,0,0,1,61.28,56,7.8,7.8,0,0,1,62,52.49a3.06,3.06,0,0,1,2.24-1.89,5.29,5.29,0,0,1,.54,0c1.36,0,2.11.84,2.24,2.51a3.69,3.69,0,0,1-.9,2.5,5.86,5.86,0,0,1-2.82,2.1,7,7,0,0,0,.29.89.72.72,0,0,0,.65.43,1.48,1.48,0,0,0,.85-.31,1.62,1.62,0,0,0,.51-.5s.09-.15.14-.38a.65.65,0,0,1,.36-.51.6.6,0,0,1,.24,0,1.12,1.12,0,0,1,.8.4A1,1,0,0,1,67.48,58.47Zm-2.7-6c-.45,0-.83.33-1.11,1A5.42,5.42,0,0,0,63.2,56a3.14,3.14,0,0,0,1.5-1.21,3,3,0,0,0,.68-1.68C65.38,52.66,65.18,52.43,64.78,52.43Z"/><path class="cls-3" d="M74.77,58a2.92,2.92,0,0,1-2.88,2.9,2.33,2.33,0,0,1-1.53-.71,6.31,6.31,0,0,1-1.12-1.39c-.28-.48-.41-.78-.37-.91s.52-.43,1.18-.43a1.48,1.48,0,0,1,.65.12.77.77,0,0,1,.46.57.89.89,0,0,0,.18.5c.24.36.45.55.65.55a.53.53,0,0,0,.42-.3,1.29,1.29,0,0,0,.2-.72,1.52,1.52,0,0,0-.09-.51c-.06-.17-.37-.43-.93-.79a7.08,7.08,0,0,1-1.44-1.11,2.81,2.81,0,0,1-.74-1.93,3.58,3.58,0,0,1,.76-2.25,2.32,2.32,0,0,1,1.92-1,2.11,2.11,0,0,1,1.84.91A2.19,2.19,0,0,1,74.36,53a1.06,1.06,0,0,1,.18.69,1.16,1.16,0,0,1-.37.87,1.12,1.12,0,0,1-.78.36c-.38,0-.72-.26-1-.77a1.09,1.09,0,0,1-.12-.55c0-.1,0-.25,0-.44a3.44,3.44,0,0,0,0-.4c0-.3-.1-.45-.32-.45s-.5.33-.5,1a2.08,2.08,0,0,0,.65,1.6,5.63,5.63,0,0,0,1.12.68,3.08,3.08,0,0,1,1,.78A2.59,2.59,0,0,1,74.77,58Z"/><path class="cls-3" d="M81.56,51.42a5.48,5.48,0,0,1,1.15,3.93,7.79,7.79,0,0,1-.8,3.66A2.78,2.78,0,0,1,79.4,60.7,2.68,2.68,0,0,1,77,59.18a6.9,6.9,0,0,1-.75-3.4,8.61,8.61,0,0,1,.58-3.26,2.73,2.73,0,0,1,1.58-1.82,3.94,3.94,0,0,1,1-.14A2.9,2.9,0,0,1,81.56,51.42Zm-2,.83c-.38,0-.71.32-1,1.06a6.27,6.27,0,0,0-.36,2.13,13.35,13.35,0,0,0,.13,2.28c.17.8.5,1.24,1,1.32.32.05.62-.39.89-1.32a10.21,10.21,0,0,0,.4-2.87C80.69,53.18,80.33,52.31,79.61,52.25Z"/><path class="cls-3" d="M90.69,51.53c0,.24-.26.4-.65.49a1.84,1.84,0,0,0-.88.4l-2.79,3.22v2.61a1.56,1.56,0,0,0,.21.76,1.42,1.42,0,0,1,.21.6,1.12,1.12,0,0,1-.12.46,1.16,1.16,0,0,1-1.18.65,1.27,1.27,0,0,1-1-.39.94.94,0,0,1-.24-.66,3.15,3.15,0,0,1,0-.44c0-.21,0-.37,0-.5V52.31a.78.78,0,0,0-.14-.37.75.75,0,0,1-.13-.36.49.49,0,0,1,.07-.24c.14-.28.61-.42,1.38-.42.61,0,1,.15,1,.43a1,1,0,0,1,.06.3.36.36,0,0,1-.14.29c-.09.07-.14.13-.14.2l0,.62,1.47-1.56c.17-.2.35-.39.54-.58a1,1,0,0,1,.66-.33,1.91,1.91,0,0,1,1.13.26.9.9,0,0,1,.54.8A1.1,1.1,0,0,1,90.69,51.53Z"/><path class="cls-3" d="M96.71,52.49a1.34,1.34,0,0,1-.43-.12,1.45,1.45,0,0,0-.44-.11.69.69,0,0,0-.24.05l-.64.33v5.87a1.65,1.65,0,0,0,.35.84,1.16,1.16,0,0,1,.29.82.93.93,0,0,1-.51.6,1.88,1.88,0,0,1-.9.23,1.24,1.24,0,0,1-1.25-.81,6.09,6.09,0,0,1-.12-1.53c0-.57,0-1.46,0-2.67,0-1.38,0-2.25,0-2.61a1.3,1.3,0,0,0-.35.23.77.77,0,0,1-.48.2,1.58,1.58,0,0,1-.48-.11q-1.2-.41-1.2-.84a.63.63,0,0,1,0-.22.51.51,0,0,1,.45-.31,2.22,2.22,0,0,0,.6-.12,14.48,14.48,0,0,0,1.44-.74V50a1.6,1.6,0,0,0-.09-.45,1.34,1.34,0,0,1-.1-.42.55.55,0,0,1,.09-.3,1.38,1.38,0,0,1,1.2-.68,1.31,1.31,0,0,1,1.24.68,1.12,1.12,0,0,1,.13.45.67.67,0,0,1-.2.43.65.65,0,0,0-.21.41v.84a2.66,2.66,0,0,0,.69-.46.84.84,0,0,1,.49-.24l.19,0a1.28,1.28,0,0,1,1.08,1.31,1.07,1.07,0,0,1-.19.61A.59.59,0,0,1,96.71,52.49Z"/><path class="cls-3" d="M109.34,59.55a1.18,1.18,0,0,1-1.27.85,1.21,1.21,0,0,1-.55-.12,1.16,1.16,0,0,1-.38-.76,11.36,11.36,0,0,0-.41-1.53,3,3,0,0,1-1,1.92,2.86,2.86,0,0,1-2,1c-.84,0-1.42-.56-1.74-1.67a4.53,4.53,0,0,1-.17-1.17,3.28,3.28,0,0,1,1.63-2.72c.9-.53,1.79-1,2.7-1.56a3,3,0,0,0,.07-.57c0-.36-.1-.56-.3-.63a1.71,1.71,0,0,0-.49-.09.85.85,0,0,0-.6.23l-.43.44a2.32,2.32,0,0,0-.54.63.8.8,0,0,1-.56.43.94.94,0,0,1-.81-.31,1.15,1.15,0,0,1-.36-.84,1,1,0,0,1,.14-.5,3.47,3.47,0,0,1,1.18-1.13,5.76,5.76,0,0,1,3-.72A1.57,1.57,0,0,1,108,51.8a11.34,11.34,0,0,1,.42,2.76,30,30,0,0,0,.37,3.59,1.42,1.42,0,0,0,.29.56,1,1,0,0,1,.26.6A1,1,0,0,1,109.34,59.55Zm-3-4.22-1,.57a3.54,3.54,0,0,0-.93.77,2,2,0,0,0-.62,1.2,1.49,1.49,0,0,0,.31.86.47.47,0,0,0,.38.24c.29,0,.62-.33,1-1A11.53,11.53,0,0,0,106.35,55.33Z"/><path class="cls-3" d="M116.06,52.49a1.34,1.34,0,0,1-.43-.12,1.45,1.45,0,0,0-.44-.11.69.69,0,0,0-.24.05l-.64.33v5.87a1.65,1.65,0,0,0,.35.84,1.16,1.16,0,0,1,.29.82.93.93,0,0,1-.51.6,1.88,1.88,0,0,1-.9.23,1.24,1.24,0,0,1-1.25-.81,6.09,6.09,0,0,1-.12-1.53c0-.57,0-1.46,0-2.67q0-2.07,0-2.61a1.3,1.3,0,0,0-.34.23.77.77,0,0,1-.48.2,1.47,1.47,0,0,1-.48-.11c-.8-.27-1.21-.55-1.21-.84a.49.49,0,0,1,.06-.22.51.51,0,0,1,.44-.31,2.22,2.22,0,0,0,.6-.12,12.53,12.53,0,0,0,1.44-.74V50a1.6,1.6,0,0,0-.09-.45,1.58,1.58,0,0,1-.09-.42.54.54,0,0,1,.08-.3,1.38,1.38,0,0,1,1.2-.68,1.29,1.29,0,0,1,1.24.68,1.12,1.12,0,0,1,.13.45.63.63,0,0,1-.2.43.65.65,0,0,0-.21.41v.84a2.66,2.66,0,0,0,.69-.46.84.84,0,0,1,.5-.24l.19,0a1.28,1.28,0,0,1,1.08,1.31,1.08,1.08,0,0,1-.2.61A.59.59,0,0,1,116.06,52.49Z"/><path class="cls-3" d="M128.28,57.63a1,1,0,0,1,.1.47,1.5,1.5,0,0,1-.26.82,1.31,1.31,0,0,1-.62.52,3,3,0,0,1-1,.13,3.49,3.49,0,0,0-.94.09,1.51,1.51,0,0,0-.67.53,1.86,1.86,0,0,1-1.13.48,1.31,1.31,0,0,1-1-.34,2.11,2.11,0,0,1-.71-1,.89.89,0,0,1,0-.22.79.79,0,0,1,.25-.5.7.7,0,0,0,.23-.48l-.72-10.39a.81.81,0,0,0-.18-.32.8.8,0,0,1-.18-.42.58.58,0,0,1,.26-.46,1.47,1.47,0,0,1,1-.33,2.54,2.54,0,0,1,1.08.24,1.26,1.26,0,0,1,.67.57.88.88,0,0,1,.08.32.45.45,0,0,1-.15.31.35.35,0,0,0-.14.29l.62,9.47,1-.41.66-.3a1.42,1.42,0,0,1,.55-.15C127.51,56.53,127.9,56.9,128.28,57.63Z"/><path class="cls-3" d="M137,59.55a1.18,1.18,0,0,1-1.27.85,1.21,1.21,0,0,1-.55-.12,1.16,1.16,0,0,1-.38-.76,10,10,0,0,0-.41-1.53,3,3,0,0,1-1,1.92,2.86,2.86,0,0,1-2,1c-.84,0-1.41-.56-1.73-1.67a4.17,4.17,0,0,1-.18-1.17,3.28,3.28,0,0,1,1.63-2.72c.9-.53,1.79-1,2.7-1.56a3,3,0,0,0,.07-.57c0-.36-.1-.56-.3-.63a1.71,1.71,0,0,0-.49-.09.85.85,0,0,0-.6.23l-.43.44a2.16,2.16,0,0,0-.53.63.83.83,0,0,1-.57.43.94.94,0,0,1-.81-.31,1.15,1.15,0,0,1-.36-.84,1,1,0,0,1,.14-.5,3.47,3.47,0,0,1,1.18-1.13,5.78,5.78,0,0,1,3-.72,1.57,1.57,0,0,1,1.57,1.1,11.34,11.34,0,0,1,.42,2.76,30,30,0,0,0,.37,3.59,1.34,1.34,0,0,0,.3.56,1.06,1.06,0,0,1,.25.6A1,1,0,0,1,137,59.55Zm-3-4.22-1,.57a3.54,3.54,0,0,0-.93.77,2,2,0,0,0-.62,1.2,1.49,1.49,0,0,0,.31.86.47.47,0,0,0,.38.24c.29,0,.62-.33,1-1A12.07,12.07,0,0,0,134,55.33Z"/><path class="cls-3" d="M146.6,58.94a1.94,1.94,0,0,1,0,.24,1.4,1.4,0,0,1-1.15,1.39,1.61,1.61,0,0,1-.4.07.74.74,0,0,1-.56-.3,4.8,4.8,0,0,0-.48-.48l-3.09-2.16v1.44a1.12,1.12,0,0,0,.09.39.9.9,0,0,1,.1.35.59.59,0,0,1-.19.4,1.67,1.67,0,0,1-1.24.44.9.9,0,0,1-1.06-1,4.3,4.3,0,0,0,.07-.6V47.82a5.16,5.16,0,0,1,.07-.93c.1-.25.42-.37.94-.37.69,0,1.13.12,1.32.37a.71.71,0,0,1,.16.45,2.4,2.4,0,0,1-.13.58,2.07,2.07,0,0,0-.13.62q0,1,0,5.61c.64-.62,1.46-1.42,2.47-2.42a4.24,4.24,0,0,0,.53-.74,1,1,0,0,1,.57-.41.88.88,0,0,1,.24,0,1.75,1.75,0,0,1,1,.37,1.05,1.05,0,0,1,.52.81.9.9,0,0,1-.34.58q-.34.34-.69.66l-2.84,3,3.05,2.19a4,4,0,0,0,.69.28A.66.66,0,0,1,146.6,58.94Z"/><path class="cls-3" d="M153.81,58.47a2.78,2.78,0,0,1-.93,1.39,2.3,2.3,0,0,1-.94.5,4,4,0,0,1-1.63.31,2.45,2.45,0,0,1-2-1.48,6.82,6.82,0,0,1-.67-3.15,7.93,7.93,0,0,1,.76-3.55,3.06,3.06,0,0,1,2.25-1.89,4.91,4.91,0,0,1,.53,0c1.36,0,2.11.84,2.25,2.51a3.76,3.76,0,0,1-.91,2.5,5.81,5.81,0,0,1-2.82,2.1,9.28,9.28,0,0,0,.29.89.73.73,0,0,0,.66.43,1.48,1.48,0,0,0,.84-.31,1.62,1.62,0,0,0,.51-.5c.05,0,.09-.15.14-.38a.65.65,0,0,1,.36-.51.6.6,0,0,1,.24,0,1.12,1.12,0,0,1,.8.4A1,1,0,0,1,153.81,58.47Zm-2.7-6c-.45,0-.83.33-1.11,1a5.29,5.29,0,0,0-.46,2.58A3.17,3.17,0,0,0,151,54.78a2.9,2.9,0,0,0,.68-1.68C151.71,52.66,151.51,52.43,151.11,52.43Z"/><path class="cls-3" d="M168.42,56.78a.65.65,0,0,1-.53.27l-.73,0a4.91,4.91,0,0,0,.89,1.93,1,1,0,0,1,.44.85c0,.56-.34.84-1,.84a1.54,1.54,0,0,1-1.33-.49,1,1,0,0,1-.16-.47,2.68,2.68,0,0,0,0-.39,13.69,13.69,0,0,1-.92-2c-.94.14-2.1.33-3.47.58a10.81,10.81,0,0,0-.44,1.44,2,2,0,0,1,0,.33.84.84,0,0,1-.31.71,1.11,1.11,0,0,1-.74.25,1.34,1.34,0,0,1-.89-.36,1.1,1.1,0,0,1-.41-.84,1,1,0,0,1,.39-.77,54.16,54.16,0,0,1,3.13-10.81,2,2,0,0,1,0-.41,1.14,1.14,0,0,1,.59-1.14,1.72,1.72,0,0,1,.61-.1,3,3,0,0,1,1.2.22,1,1,0,0,1,.62.93,1.68,1.68,0,0,1-.31,1,42.62,42.62,0,0,0,1.41,6.73l.7-.17a2.26,2.26,0,0,1,.55-.11A.57.57,0,0,1,168,55a1.38,1.38,0,0,1,.6,1.13A1.33,1.33,0,0,1,168.42,56.78Zm-4.11-1.31c-.2-.72-.51-2.1-.93-4.15a15.83,15.83,0,0,0-1.44,4.56Z"/><path class="cls-3" d="M176.4,51.53c0,.24-.26.4-.65.49a1.74,1.74,0,0,0-.87.4l-2.8,3.22v2.61a1.56,1.56,0,0,0,.21.76,1.34,1.34,0,0,1,.22.6,1.12,1.12,0,0,1-.12.46,1.18,1.18,0,0,1-1.19.65,1.25,1.25,0,0,1-1-.39.94.94,0,0,1-.24-.66c0-.09,0-.24,0-.44s0-.37,0-.5V52.31a.75.75,0,0,0-.13-.37.79.79,0,0,1-.14-.36.49.49,0,0,1,.07-.24c.15-.28.61-.42,1.39-.42.6,0,.95.15,1,.43a1.33,1.33,0,0,1,0,.3.36.36,0,0,1-.14.29c-.09.07-.14.13-.14.2l0,.62,1.47-1.56.54-.58a1,1,0,0,1,.67-.33,1.89,1.89,0,0,1,1.12.26.9.9,0,0,1,.54.8A1.1,1.1,0,0,1,176.4,51.53Z"/><path class="cls-3" d="M184.14,51.53c0,.24-.26.4-.65.49a1.84,1.84,0,0,0-.88.4l-2.79,3.22v2.61A1.56,1.56,0,0,0,180,59a1.47,1.47,0,0,1,.22.6,1.12,1.12,0,0,1-.12.46,1.18,1.18,0,0,1-1.19.65,1.27,1.27,0,0,1-1-.39.94.94,0,0,1-.24-.66,3.15,3.15,0,0,1,0-.44c0-.21,0-.37,0-.5V52.31a.69.69,0,0,0-.14-.37.75.75,0,0,1-.13-.36.49.49,0,0,1,.07-.24c.14-.28.61-.42,1.39-.42.6,0,.94.15,1,.43a1,1,0,0,1,.06.3.36.36,0,0,1-.14.29c-.09.07-.14.13-.14.2l0,.62,1.47-1.56c.17-.2.35-.39.54-.58a1,1,0,0,1,.66-.33,1.91,1.91,0,0,1,1.13.26.9.9,0,0,1,.54.8A1.1,1.1,0,0,1,184.14,51.53Z"/><path class="cls-3" d="M189.85,51.42A5.48,5.48,0,0,1,191,55.35a7.79,7.79,0,0,1-.8,3.66,2.78,2.78,0,0,1-2.51,1.69,2.68,2.68,0,0,1-2.44-1.52,6.9,6.9,0,0,1-.75-3.4,8.61,8.61,0,0,1,.58-3.26,2.73,2.73,0,0,1,1.58-1.82,3.94,3.94,0,0,1,1-.14A2.9,2.9,0,0,1,189.85,51.42Zm-1.95.83c-.38,0-.71.32-1,1.06a6.27,6.27,0,0,0-.36,2.13,12.14,12.14,0,0,0,.14,2.28q.24,1.2,1,1.32c.32.05.62-.39.89-1.32a9.86,9.86,0,0,0,.4-2.87C189,53.18,188.62,52.31,187.9,52.25Z"/><path class="cls-3" d="M204.76,50.91a.62.62,0,0,1,.05.25,1.13,1.13,0,0,1-.31.67,2.78,2.78,0,0,0-.46.72l-1.89,5.7a2.46,2.46,0,0,0-.08.65v.38c0,.16,0,.28,0,.36a1.09,1.09,0,0,1-.43.94,1.63,1.63,0,0,1-1,.31,1.74,1.74,0,0,1-1.37-.61,1,1,0,0,1-.28-.71,5.38,5.38,0,0,0,0-.74L198,55l-1,3.43a4.52,4.52,0,0,0-.08.72,1.72,1.72,0,0,1-.19.68,1.89,1.89,0,0,1-1.6,1.07,1.09,1.09,0,0,1-.6-.19,1,1,0,0,1-.41-.69c-.05-.31-.09-.61-.14-.91l-1.51-5.86a4.65,4.65,0,0,0-.31-.83,2.12,2.12,0,0,1-.2-.79,1.36,1.36,0,0,1,.08-.44c.11-.32.52-.48,1.24-.48a1.31,1.31,0,0,1,.81.17,1,1,0,0,1,.27.72c0,.5,0,.78,0,.82l1,4.12,1.45-4.22a1,1,0,0,0,0-.24,1.37,1.37,0,0,0,0-.3,1.53,1.53,0,0,1-.05-.3.65.65,0,0,1,.42-.59,1.72,1.72,0,0,1,1.69.09,1.22,1.22,0,0,1,.54.88c0,.36.06.72.08,1.08l1,4.11,1.65-4.94a.78.78,0,0,0,0-.22,1.51,1.51,0,0,0-.05-.37,2.06,2.06,0,0,1,0-.35.59.59,0,0,1,.07-.29c.17-.31.62-.47,1.35-.47S204.64,50.6,204.76,50.91Z"/><path class="cls-3" d="M213,58.83a3,3,0,0,1,.1.55.67.67,0,0,1-.42.59,1.78,1.78,0,0,1-.9.24.9.9,0,0,1-.94-.55,1.08,1.08,0,0,1-.09-.38.82.82,0,0,1,.2-.48.82.82,0,0,0,.2-.48,12.78,12.78,0,0,0,.2-2.57c0-2-.13-2.94-.41-3s-.54.29-1,1a11.17,11.17,0,0,0-1.21,2.42,7.16,7.16,0,0,0-.48,2.78.49.49,0,0,0-.05.2,1.13,1.13,0,0,0,.14.44,1.17,1.17,0,0,1,.14.45.52.52,0,0,1-.12.33c-.31.45-.62.67-.93.67s-.63-.25-.93-.75a23.9,23.9,0,0,1-.25-5.13q0-1.73.08-7.81c0-.07,0-.18,0-.32a2.19,2.19,0,0,1,0-.33.63.63,0,0,1,.1-.31.84.84,0,0,1,.81-.36,1.85,1.85,0,0,1,1,.29.61.61,0,0,1,.35.69.51.51,0,0,1-.16.24.38.38,0,0,0-.15.27V53a3.42,3.42,0,0,1,2.89-2.34c.68,0,1.23.47,1.64,1.55a10.07,10.07,0,0,1,.57,3.62A11.27,11.27,0,0,1,213,58.83Z"/><path class="cls-3" d="M221.06,58.47a2.78,2.78,0,0,1-.93,1.39,2.3,2.3,0,0,1-.94.5,3.94,3.94,0,0,1-1.63.31,2.44,2.44,0,0,1-2-1.48,6.7,6.7,0,0,1-.67-3.15,7.93,7.93,0,0,1,.75-3.55,3.06,3.06,0,0,1,2.25-1.89,4.91,4.91,0,0,1,.53,0c1.36,0,2.11.84,2.25,2.51a3.71,3.71,0,0,1-.91,2.5,5.79,5.79,0,0,1-2.81,2.1,5.66,5.66,0,0,0,.29.89.71.71,0,0,0,.65.43,1.48,1.48,0,0,0,.84-.31,1.62,1.62,0,0,0,.51-.5c.05,0,.1-.15.14-.38a.7.7,0,0,1,.36-.51.6.6,0,0,1,.24,0,1.1,1.1,0,0,1,.8.4A.9.9,0,0,1,221.06,58.47Zm-2.69-6c-.46,0-.83.33-1.12,1a5.29,5.29,0,0,0-.46,2.58,3.13,3.13,0,0,0,1.49-1.21A2.93,2.93,0,0,0,219,53.1C219,52.66,218.77,52.43,218.37,52.43Z"/><path class="cls-3" d="M230.07,59.55a1.18,1.18,0,0,1-1.27.85,1.21,1.21,0,0,1-.55-.12,1.16,1.16,0,0,1-.38-.76,11.36,11.36,0,0,0-.41-1.53,3.06,3.06,0,0,1-1,1.92,2.86,2.86,0,0,1-2,1c-.84,0-1.42-.56-1.74-1.67a4.53,4.53,0,0,1-.17-1.17,3.28,3.28,0,0,1,1.63-2.72q1.33-.8,2.7-1.56a2.91,2.91,0,0,0,.06-.57c0-.36-.09-.56-.29-.63a1.71,1.71,0,0,0-.49-.09.85.85,0,0,0-.6.23l-.43.44a2.32,2.32,0,0,0-.54.63.8.8,0,0,1-.56.43.94.94,0,0,1-.81-.31,1.15,1.15,0,0,1-.36-.84,1,1,0,0,1,.14-.5,3.47,3.47,0,0,1,1.18-1.13,5.75,5.75,0,0,1,3-.72,1.57,1.57,0,0,1,1.58,1.1,11.34,11.34,0,0,1,.42,2.76,30,30,0,0,0,.37,3.59,1.42,1.42,0,0,0,.29.56,1,1,0,0,1,.26.6A1,1,0,0,1,230.07,59.55Zm-3-4.22-1,.57a3.54,3.54,0,0,0-.93.77,2,2,0,0,0-.62,1.2,1.49,1.49,0,0,0,.31.86.47.47,0,0,0,.37.24c.3,0,.62-.33,1-1A11.53,11.53,0,0,0,227.08,55.33Z"/><path class="cls-3" d="M237.65,60.17c-.14.31-.56.47-1.27.47a1.12,1.12,0,0,1-.89-.28.32.32,0,0,1-.09-.24,1.31,1.31,0,0,1,.09-.38,1.84,1.84,0,0,0,.1-.39,2.25,2.25,0,0,1-1.85,1.11,2.19,2.19,0,0,1-2.08-1.61,8.73,8.73,0,0,1-.49-3.21,7,7,0,0,1,.77-3.31c.57-1.08,1.27-1.63,2.11-1.63.47,0,.95.38,1.44,1.13V49.62a1.72,1.72,0,0,0-.22-.7,1.68,1.68,0,0,1-.23-.65.76.76,0,0,1,.09-.35,1.41,1.41,0,0,1,1.41-.77,1,1,0,0,1,1.06.62,1.46,1.46,0,0,1,.07.39,1.74,1.74,0,0,1-.11.51,1.56,1.56,0,0,0-.12.54V59a1,1,0,0,0,.14.45,1.09,1.09,0,0,1,.14.44A.65.65,0,0,1,237.65,60.17Zm-2.37-4.53a6.71,6.71,0,0,0-.32-1.85c-.24-.75-.48-1.13-.71-1.13s-.47.35-.63,1a8.86,8.86,0,0,0-.19,1.94c0,.13,0,.33,0,.62v.64c0,1.29.28,1.93.84,1.93q.41,0,.72-1.11A7.09,7.09,0,0,0,235.28,55.64Z"/><path class="cls-3" d="M11.09,3.62a2.57,2.57,0,0,1,2.45-.24,2.21,2.21,0,0,1,.27.17V1.37l-.09,0A4.57,4.57,0,0,0,8.93,3,4.62,4.62,0,0,0,8.49,7.8a4.69,4.69,0,0,0,2.84,2.33A3.36,3.36,0,0,0,13.75,10l.06-.05V8l-.11.08a2.61,2.61,0,0,1-2,.12A2.68,2.68,0,0,1,10,6.13,2.58,2.58,0,0,1,11.09,3.62Z"/><polygon class="cls-3" points="17.45 1.21 15.53 1.21 15.54 10.01 19.83 10.01 19.83 8.22 17.45 8.22 17.45 1.21"/><path class="cls-3" d="M25.57,1.19,27.71,10h-2.1l-.4-1.76H23.26L22.77,10H20.83L23.19,1.2ZM23.71,6.43h1l-.51-2"/><path class="cls-3" d="M5.22,7.37c0,.46-.2.8-.76.8a.74.74,0,0,1-.76-.8v-6H1.82V7.21A4.57,4.57,0,0,0,2,8.4a2.72,2.72,0,0,0,2.47,1.73A2.76,2.76,0,0,0,6.93,8.39a4,4,0,0,0,.18-1.18V1.4H5.22Z"/><path class="cls-3" d="M28.51,2.61A1.31,1.31,0,1,1,29.82,1.3,1.31,1.31,0,0,1,28.51,2.61Zm0-2.38A1.08,1.08,0,1,0,29.59,1.3,1.07,1.07,0,0,0,28.51.23Z"/><path class="cls-3" d="M29.09,1c0-.32-.25-.4-.52-.4h-.64V2.06h.22V1.37h.28l.39.69h.25l-.39-.69A.39.39,0,0,0,29.09,1Zm-.71.2h-.23V.77h.38c.18,0,.34,0,.34.2S28.59,1.15,28.38,1.15Z"/></g></g></svg>
