<svg xmlns="http://www.w3.org/2000/svg" viewBox="0 0 252.37 45"><defs><style>.cls-1{fill:#3284bf;}.cls-2{fill:#ffc425;}.cls-3{fill:#fff;}</style></defs><title>logo-mobile</title><g id="Layer_2" data-name="Layer 2"><g id="Layer_1-2" data-name="Layer 1"><path class="cls-1" d="M114.12,15.55c-1.12-1.12-3.16-1.1-4.38-1.09h-.44c-1.1,0-3.14,0-4.22,1.07a2.47,2.47,0,0,0-.72,1.84,2.39,2.39,0,0,0,1.28,2.3,1.75,1.75,0,0,1,.91,1.1,14.45,14.45,0,0,1,.28,3.57c0,1.86-.4,1.91-.4,1.91-.16,0-.55-.23-1.55-1.29l-7.82-8.57c-1.54-1.72-2-1.93-4.15-1.93h-.22c-1.3,0-4,0-5.31,1.29h0c-1.42-1.29-4.25-1.29-5.52-1.29s-4.77.13-6.57,1.38c-1.08-1.38-3.75-1.38-4.78-1.38h-.12c-1.16,0-3.55,0-4.73,1.17a2.33,2.33,0,0,0-.68,1.7,2,2,0,0,0,1.31,2c.73.4,1.48.81,1.48,3V32.5a5.73,5.73,0,0,1-1.35,4.13,4.21,4.21,0,0,1-3.1,1.13c-3,0-4.46-2.51-4.46-7.46V22.86c.09-2.51.7-2.79,1.3-3.06s1.23-.66,1.23-2.1c0-2.27-2-3.24-6.79-3.24-3.16,0-5.16.48-6.13,1.47a2.29,2.29,0,0,0-.64,1.73v.08a2.87,2.87,0,0,0,1.07,2.11,2.68,2.68,0,0,1,1,2.3v9.36a.68.68,0,0,1,0,.12c-.15,2.35,0,6.76,2.94,9.87,2,2.16,5,3.26,8.86,3.26,4.89,0,8.32-1.79,10.17-5.31a14.4,14.4,0,0,0,1.45-6.68V21.83c0-1.82.6-2.19,1.23-2.59l0,0a4,4,0,0,0,.77.76,4,4,0,0,1,.87.91c.3.48.61,1.65.61,6.65v4c0,4.48-.2,6.86-.63,7.49a2.92,2.92,0,0,1-.59.57,2.33,2.33,0,0,0-1.11,2c0,2,2,3.08,5.89,3.08,4.63,0,6.57-.76,7.35-1.81.72,1.17,2.38,1.81,4.87,1.81,3.42,0,5.3-1.21,5.3-3.4a2,2,0,0,0-1.07-1.91,2.29,2.29,0,0,1-1.14-1.78,21.19,21.19,0,0,1-.22-3.61c0-2.91.59-3,.6-3,.48,0,1.32,1,1.64,1.35l10,11.23a2.91,2.91,0,0,0,2,1.16,1.6,1.6,0,0,0,1.17-.5c1.29-1.3,1.27-5,1.25-6.9V26.33a23.47,23.47,0,0,1,.41-5.39,1.78,1.78,0,0,1,1-1.15,2.27,2.27,0,0,0,1.29-2.3A2.61,2.61,0,0,0,114.12,15.55ZM89.55,37.37a2.27,2.27,0,0,1-1.08,1.84,3.25,3.25,0,0,0-.65.59,3.48,3.48,0,0,0-.91-.76l-.45-.31-.11-.08c-.42-.29-.75-.53-.75-7.1v-4c0-2,0-6.3.57-7.12a3,3,0,0,1,.86-.74c.12-.09.26-.18.38-.28.15.12.31.21.46.31.67.41,1.36.83,1.62,2.86a73.07,73.07,0,0,1,.35,8.74A55.31,55.31,0,0,1,89.55,37.37Z"/><path class="cls-1" d="M50.37,39.54c-.56-.19-1.08-.37-1.27-2.16-.46-4.5-1.5-6.5-4-7.64l-.09,0c-.39-.19-.48-.27-.48-.53s0-.24.27-.4l0,0c1.84-1.1,3-3.5,3-6.25,0-5.43-4.19-7.86-8.35-7.86-.71,0-1.43,0-2.13.07l-1,.05h-.08c-1.05.08-2,.15-3,.15a15.64,15.64,0,0,1-2-.16l-.67-.05c-.44,0-.9-.07-1.36-.07-2.71,0-4.27,1.08-4.27,3A1.73,1.73,0,0,0,26,19.39c.63.36,1.41.8,1.41,4.38V35.32c0,3-.8,3.63-1.44,4.12a2.93,2.93,0,0,0-.67.65,10.93,10.93,0,0,0,1.25-5.17,7.48,7.48,0,0,0-3.86-6.59l-.08,0c-.3-.18-.37-.25-.37-.46s.11-.41.36-.68l.1-.1a7.82,7.82,0,0,0,1.9-5.33c0-2.13-.77-7.09-7.89-7.09-.52,0-1.05,0-1.56.07l-.76.05a20,20,0,0,1-2.22.16c-1.19,0-2.4-.08-3.58-.16l-1.2-.05c-.79,0-1.61-.07-2.42-.07A2.72,2.72,0,0,0,2.2,17.33a1.86,1.86,0,0,0,1.22,2c.69.34,1.48.73,1.37,4.11L4.43,35.1C4.32,39,3.57,39.59,3,40a1.86,1.86,0,0,0-.88,1.82,2.53,2.53,0,0,0,2.58,2.59c1.15,0,2.25,0,3.36-.12s2.19-.08,3.32-.08,2,0,2.91.08,2,.12,3.12.12c3.94,0,6.39-1.74,7.75-4.06a2,2,0,0,0-.19.91c0,3.4,5,3.4,6.6,3.4,4.68,0,6.51-.84,6.51-3a2.24,2.24,0,0,0-1.09-2,1.66,1.66,0,0,1-.83-1.26A32.41,32.41,0,0,1,36,34.47c0-2.23.16-2.23.53-2.23,1.34,0,1.87,1.33,2.25,3.32l0,.16C39.74,40.91,40.51,45,46,45c4.13,0,5.59-1.94,5.59-3.6C51.6,40.07,51,39.77,50.37,39.54Zm-37.15-21c.32,0,.61.45.82,1.16,1.67,0,1.8,2.8,1.8,3.65,0,2.48-.56,3.49-1.95,3.49a.54.54,0,0,1-.34-.08,2.54,2.54,0,0,1-.16-1.25.35.35,0,0,1-.17,0c-.61,0-1.1-1.57-1.1-3.5S12.61,18.56,13.22,18.56Zm1.35,20.65c-.48,0-.86,0-1.05-1.48h0c-.87,0-1.57-1.57-1.57-3.5s.7-3.5,1.57-3.5c.44,0,.83.39,1.11,1,.77.1,2,.69,2,4.2C16.62,39.21,15.08,39.21,14.57,39.21ZM36.22,27.06a.53.53,0,0,1-.35-.09c-.14-.15-.1-.66-.07-1.12v-.16c-.67-.2-1.2-1.76-1.2-3.65s.61-3.67,1.35-3.67c.47,0,.88.64,1.12,1.62.72.13,1.49.78,1.49,3.54C38.56,26,37.88,27.06,36.22,27.06Z"/><path class="cls-1" d="M140.19,32.57c-.16-.45-.42-1.7-.94-1.7s-.84,1.05-1.68,3.64l-2,6.12c-.68,2.11-1,3.61-3.11,3.61-1.82,0-2.3-1.42-2.89-3.28l-6-19.25c-.91-2.92-2.21-1.42-2.21-3.89,0-2.79,4.38-2.88,5.87-2.88,4.73,0,5.54.94,5.54,2.6,0,1.21-.74,1.38-.74,2.63a25.77,25.77,0,0,0,1.13,4.62c.16.65.88,3.48,1.62,3.48s1.52-2.91,1.69-3.52a9.18,9.18,0,0,0,.42-1.58c0-.37-.68-2.88-1.66-3.57a2.22,2.22,0,0,1-1.19-2c0-.24-.46-2.68,6.32-2.68,6.28,0,6.15,1.83,6.15,2.52,0,1.33-1.45,1.7-1.45,2.71s1.1,3.61,1.42,4.5c.23.65.94,3.16,1.72,3.16,1.1,0,2.5-6.89,2.5-7.46,0-1.74-2.11-.85-2.11-3.08,0-2.47,3.3-2.35,4.63-2.35s3.76.21,3.76,2.48c0,2-1.36,1.45-2.23,4.29l-5.58,18.23c-.68,2.19-1.42,4.3-3.27,4.3-1.62,0-2.14-1.1-2.72-2.8Z"/><path class="cls-1" d="M145.9,44.66c-1.92,0-2.53-1.34-3.12-3.08l-3-8.87c0-.09-.06-.21-.1-.34s-.3-1-.48-1.09a7.47,7.47,0,0,0-.9,2.3c-.1.32-.21.68-.34,1.06l-2.11,6.54c-.59,1.87-1.11,3.48-3.38,3.48s-2.74-1.82-3.29-3.58l-6-19.24A2.89,2.89,0,0,0,121.91,20c-.59-.4-1-.76-1-2.14s1.09-3.3,6.29-3.3c4.4,0,6,.79,6,3a2.91,2.91,0,0,1-.41,1.49,2.08,2.08,0,0,0-.33,1.14,21.07,21.07,0,0,0,1,4l.17.55c.65,2.61,1.12,3.09,1.22,3.16s.56-.46,1.22-3l.06-.23a7.86,7.86,0,0,0,.39-1.42c0-.36-.67-2.66-1.47-3.22a2.61,2.61,0,0,1-1.38-2.33,2,2,0,0,1,.58-1.56c1-1,3-1.54,6.17-1.54s5.09.44,6,1.35a2,2,0,0,1,.58,1.55,2.59,2.59,0,0,1-.93,1.89c-.33.35-.53.57-.53.86a14.93,14.93,0,0,0,1.12,3.63l.28.72c0,.09.06.2.11.33.65,2,1,2.47,1.19,2.55.76-.51,2.08-6.29,2.09-7,0-.53-.22-.67-.72-.93a2.1,2.1,0,0,1-1.38-2.15,2.34,2.34,0,0,1,.67-1.72c1.07-1.06,3.1-1.05,4.21-1.05h.17c3.46,0,4.19,1.58,4.19,2.9a2.66,2.66,0,0,1-.92,2.13,4.89,4.89,0,0,0-1.34,2.29l-5.57,18.23C149,42,148.15,44.66,145.9,44.66Zm-6.65-14.21c.74,0,1,1,1.25,1.67a2.25,2.25,0,0,0,.09.3h0l3,8.88c.58,1.7,1,2.51,2.32,2.51,1.5,0,2.19-1.82,2.87-4l5.57-18.23A5.86,5.86,0,0,1,155.88,19a1.81,1.81,0,0,0,.68-1.54c0-1.38-1.09-2.05-3.34-2.05H153c-1,0-2.79,0-3.6.8a1.49,1.49,0,0,0-.43,1.12,1.3,1.3,0,0,0,.92,1.4,1.75,1.75,0,0,1,1.19,1.68c0,.08-1.23,7.88-2.92,7.88-.82,0-1.38-1.2-2-3.14,0-.12-.07-.23-.1-.3s-.16-.42-.27-.7a14.79,14.79,0,0,1-1.18-3.94,2.12,2.12,0,0,1,.77-1.45,1.79,1.79,0,0,0,.69-1.26v-.05a1.2,1.2,0,0,0-.33-.95c-.5-.5-1.84-1.09-5.4-1.09s-5,.69-5.56,1.27a1.15,1.15,0,0,0-.35.91v.07a1.8,1.8,0,0,0,1,1.63c1.17.82,1.85,3.52,1.85,3.92a8.7,8.7,0,0,1-.44,1.71l0,.15c-.67,2.61-1.26,3.67-2.05,3.67-.53,0-1.19-.46-2-3.81,0-.08-.08-.27-.15-.51a19.85,19.85,0,0,1-1-4.21,2.94,2.94,0,0,1,.43-1.54,2,2,0,0,0,.32-1.09c0-1.23-.38-2.17-5.12-2.17-2.48,0-5.45.42-5.45,2.45,0,1,.21,1.17.61,1.45A3.65,3.65,0,0,1,124,21.59l6,19.24c.59,1.91,1,3,2.48,3s1.94-.89,2.57-2.9l2.12-6.54.33-1.05C138.15,31.29,138.42,30.45,139.25,30.45Z"/><path class="cls-1" d="M156,29.49c0-8.59,5.47-14.67,12.54-14.67,8.95,0,12.38,9.85,12.38,15.07,0,8.72-6.16,14.47-12.77,14.47C161.26,44.36,156,38.12,156,29.49ZM167,20.86c-1.82,0-2.72,2.35-2.72,4.34,0,3.44,1.94,13.12,5.44,13.12,2,0,2.82-2.15,2.82-4.33C172.54,30.3,170.79,20.86,167,20.86Z"/><path class="cls-1" d="M168.1,44.78c-7.17,0-12.58-6.57-12.58-15.29s5.58-15.09,13-15.09c9.58,0,12.8,10.64,12.8,15.49C181.29,39.21,174.59,44.78,168.1,44.78Zm.39-29.53c-7,0-12.12,6-12.12,14.24s5,14.45,11.73,14.45c6.07,0,12.35-5.26,12.35-14C180.45,25.31,177.44,15.25,168.49,15.25Zm1.23,23.5c-4,0-5.87-10.4-5.87-13.55,0-2.31,1.11-4.76,3.15-4.76,4.19,0,6,9.69,6,13.55C173,36.88,171.69,38.75,169.72,38.75ZM167,21.28c-1.59,0-2.3,2.29-2.3,3.92,0,3.66,2,12.7,5,12.7,1.77,0,2.4-2.11,2.4-3.91C172.12,30.3,170.32,21.28,167,21.28Z"/><path class="cls-1" d="M180.84,29.49c0-8.59,5.48-14.67,12.54-14.67,9,0,12.38,9.85,12.38,15.07,0,8.72-6.16,14.47-12.77,14.47C186.15,44.36,180.84,38.12,180.84,29.49Zm11-8.63c-1.81,0-2.72,2.35-2.72,4.34,0,3.44,1.94,13.12,5.44,13.12,2,0,2.82-2.15,2.82-4.33C197.43,30.3,195.68,20.86,191.89,20.86Z"/><path class="cls-1" d="M193,44.78c-7.17,0-12.57-6.57-12.57-15.29s5.57-15.09,13-15.09c9.58,0,12.81,10.64,12.81,15.49C206.19,39.21,199.48,44.78,193,44.78Zm.39-29.53c-7,0-12.12,6-12.12,14.24s5,14.45,11.73,14.45c6.07,0,12.35-5.26,12.35-14C205.34,25.31,202.33,15.25,193.38,15.25Zm1.23,23.5c-4,0-5.86-10.4-5.86-13.55,0-2.31,1.1-4.76,3.14-4.76,4.19,0,6,9.69,6,13.55C197.86,36.88,196.58,38.75,194.61,38.75Zm-2.72-17.47c-1.59,0-2.3,2.29-2.3,3.92,0,3.66,2,12.7,5,12.7,1.77,0,2.4-2.11,2.4-3.91C197,30.3,195.22,21.28,191.89,21.28Z"/><path class="cls-1" d="M208.32,22c.07-4.17-2.36-2.14-2.36-4.78,0-1.86,1.88-2.14,3-2.14h10.57c9,0,12,7,12,14.26C231.5,36.9,228,44,219.77,44c-1.4,0-2.57,0-3.57-.12s-1.88-.08-2.79-.08-1.85,0-2.75.08-1.82.12-2.76.12a2.34,2.34,0,0,1-2.49-2.3c0-2.92,2.56.32,2.65-5.6Zm7.78,14.83c0,2.07.26,2.92,2,2.92,4.09,0,4.8-5.23,4.8-9.28,0-9.48-2.85-11-5.35-11-1.36,0-1.46.69-1.46,2.23Z"/><path class="cls-1" d="M219.77,44.42c-1.4,0-2.58,0-3.6-.13h-.31c-.88,0-1.65-.07-2.45-.07s-1.75,0-2.73.09-1.83.12-2.78.12A2.75,2.75,0,0,1,205,41.69c0-1.4.57-1.71,1.24-1.95s1.37-.48,1.42-3.65L207.9,22c0-2.07-.54-2.38-1.14-2.71a2,2,0,0,1-1.22-2.07c0-1.63,1.25-2.57,3.43-2.57h10.57c7.87,0,12.38,5.36,12.38,14.69C231.92,36.31,228.74,44.42,219.77,44.42Zm-6.36-1.05c.82,0,1.59,0,2.48.07h.33c1,.08,2.17.12,3.55.12,8.34,0,11.31-7.65,11.31-14.2,0-5.17-1.5-13.84-11.54-13.84H209c-1.18,0-2.59.3-2.59,1.72,0,.91.29,1.07.78,1.33.89.48,1.62,1.07,1.59,3.46h0l-.26,14.06c-.06,3.48-1,4.09-2,4.44-.46.16-.67.24-.67,1.15a1.94,1.94,0,0,0,2.07,1.88c.93,0,1.81,0,2.72-.12S212.53,43.37,213.41,43.37Zm4.7-3.17c-2.25,0-2.43-1.44-2.43-3.34V21.75c0-1.3,0-2.65,1.88-2.65,3.94,0,5.77,3.62,5.77,11.4C223.33,38.52,220.49,40.2,218.11,40.2ZM217.56,20c-.92,0-1,.2-1,1.8V36.86c0,2.08.26,2.5,1.58,2.5,2.91,0,4.38-3,4.38-8.86C222.49,21,219.68,20,217.56,20Z"/><path class="cls-1" d="M232,24.26a9.44,9.44,0,0,1,9.53-9.44c2.08,0,4.41,1.18,4.9,1.18s.9-.49,1.58-.49c1.11,0,3.57,3,3.57,6.4,0,1.38-.71,2.76-1.91,2.76-2.17,0-3.44-4.62-6.81-4.62a1.93,1.93,0,0,0-2.07,2c0,3.2,4.44,2.35,8.2,5.47a8,8,0,0,1,3,6.72c0,4.74-3.11,10.09-10.66,10.09-2.14,0-5.81-.69-7.65-2-1.56-1.09-2.3-5.38-2.3-7.45,0-1.09.38-2.19,1.36-2.19,2.3,0,1.91,6.44,7.87,6.44.72,0,2.5-.44,2.5-2,0-2.92-4.44-2.19-8-5.8A10.11,10.11,0,0,1,232,24.26Z"/><path class="cls-1" d="M241.29,44.78c-2,0-5.87-.64-7.89-2-1.76-1.23-2.49-5.69-2.49-7.8,0-1.59.7-2.61,1.79-2.61s1.7,1.08,2.34,2.34c.94,1.83,2.11,4.1,5.53,4.1.41,0,2.08-.28,2.08-1.56s-.9-1.64-2.77-2.39a14.23,14.23,0,0,1-5.15-3.11,10.55,10.55,0,0,1-3.2-7.47,9.84,9.84,0,0,1,9.95-9.86,12.73,12.73,0,0,1,4,.91,7.81,7.81,0,0,0,.86.27,1.24,1.24,0,0,0,.44-.17,2.6,2.6,0,0,1,1.14-.32c1.47,0,4,3.37,4,6.82,0,1.54-.82,3.18-2.33,3.18-1.16,0-2-1-3-2.08-1.07-1.25-2.18-2.54-3.86-2.54a1.52,1.52,0,0,0-1.65,1.61c0,1.46,1,1.88,3.11,2.61a15.16,15.16,0,0,1,4.94,2.53,8.39,8.39,0,0,1,3.16,7.05C252.37,39.33,248.9,44.78,241.29,44.78ZM232.7,33.19c-.92,0-.94,1.59-.94,1.77,0,2.29.82,6.2,2.12,7.11,1.79,1.22,5.45,1.87,7.41,1.87,7.07,0,10.24-4.86,10.24-9.67a7.62,7.62,0,0,0-2.86-6.4A14.2,14.2,0,0,0,244,25.49c-2-.69-3.68-1.29-3.68-3.41a2.35,2.35,0,0,1,2.5-2.45c2.06,0,3.36,1.5,4.5,2.83.82,1,1.53,1.79,2.31,1.79.93,0,1.49-1.19,1.49-2.34,0-3.29-2.38-6-3.15-6a1.87,1.87,0,0,0-.77.24,1.88,1.88,0,0,1-.81.25,4,4,0,0,1-1.14-.32,12.09,12.09,0,0,0-3.76-.85,9,9,0,0,0-9.11,9,9.72,9.72,0,0,0,3,6.88,13.4,13.4,0,0,0,4.87,2.91c1.77.71,3.29,1.32,3.29,3.18s-2,2.41-2.92,2.41c-3.93,0-5.29-2.64-6.28-4.56C233.69,33.91,233.29,33.19,232.7,33.19Z"/><path class="cls-2" d="M138.62,31c-.17-.44-.43-1.7-.94-1.7S136.83,30.36,136,33l-2,6.12c-.68,2.1-1,3.6-3.11,3.6-1.81,0-2.3-1.42-2.88-3.28l-6-19.24c-.91-2.92-2.21-1.42-2.21-3.89,0-2.8,4.38-2.88,5.87-2.88,4.73,0,5.54.93,5.54,2.59,0,1.22-.74,1.38-.74,2.64a26,26,0,0,0,1.13,4.62c.16.64.88,3.48,1.62,3.48s1.53-2.92,1.69-3.53a8.16,8.16,0,0,0,.42-1.58c0-.36-.68-2.87-1.65-3.56a2.22,2.22,0,0,1-1.2-2c0-.24-.46-2.67,6.32-2.67,6.29,0,6.16,1.82,6.16,2.51,0,1.34-1.46,1.7-1.46,2.72s1.1,3.6,1.42,4.49c.23.65.94,3.16,1.72,3.16,1.1,0,2.5-6.88,2.5-7.45,0-1.74-2.11-.85-2.11-3.08,0-2.47,3.31-2.35,4.64-2.35s3.76.2,3.76,2.47c0,2-1.37,1.46-2.24,4.3l-5.58,18.23c-.68,2.19-1.42,4.29-3.27,4.29-1.62,0-2.14-1.09-2.72-2.79Z"/><path class="cls-1" d="M144.32,43.52c-2.37,0-3-2-3.52-3.37l-3-8.87a3,3,0,0,1-.11-.35l-.08-.26c-.15.39-.32.93-.5,1.48-.1.32-.21.67-.34,1.06l-2.1,6.53c-.62,1.94-1.21,3.78-3.79,3.78s-3.12-2.06-3.69-3.88l-6-19.24a2.49,2.49,0,0,0-1.09-1.65,2.47,2.47,0,0,1-1.15-2.49c0-1.7,1.16-3.72,6.71-3.72,3.34,0,5.6.41,6.22,2.27a2.51,2.51,0,0,1,.43-.61c1.06-1.12,3.18-1.66,6.48-1.66s5.31.48,6.3,1.46a2.4,2.4,0,0,1,.7,1.85,3,3,0,0,1-1,2.18c-.21.23-.42.44-.42.58a15.31,15.31,0,0,0,1.09,3.47l.29.73.11.34a12.58,12.58,0,0,0,.77,2,28.85,28.85,0,0,0,1.69-6.34c0-.26,0-.29-.49-.54a2.5,2.5,0,0,1-1.61-2.52,2.75,2.75,0,0,1,.8-2c1.19-1.19,3.34-1.18,4.5-1.18h.18c4,0,4.6,2.07,4.6,3.31a3.1,3.1,0,0,1-1,2.43A4.44,4.44,0,0,0,154,20.39L148.4,38.63C147.76,40.69,146.88,43.52,144.32,43.52Zm-6.64-15.06c1,0,1.41,1.19,1.64,2,0,.11.06.2.09.28v0l3,8.87c.62,1.8,1,2.22,1.92,2.22,1.11,0,1.72-1.3,2.47-3.7l5.57-18.23A6.17,6.17,0,0,1,154,17.11a1.42,1.42,0,0,0,.57-1.26c0-.44,0-1.63-2.91-1.63h-.19c-.85,0-2.61,0-3.3.68a1.08,1.08,0,0,0-.3.83c0,.67.18.76.69,1A2.14,2.14,0,0,1,150,18.81,29.7,29.7,0,0,1,149.1,23c-.94,3.45-1.64,4.14-2.48,4.14-1.2,0-1.82-1.63-2.42-3.43,0-.12-.07-.22-.09-.3l-.27-.68a14.33,14.33,0,0,1-1.21-4.09,2.49,2.49,0,0,1,.89-1.74c.37-.39.57-.62.57-1v0a.77.77,0,0,0-.21-.65c-.36-.37-1.5-1-5.1-1s-4.85.72-5.25,1.14a.71.71,0,0,0-.23.6v.09a1.37,1.37,0,0,0,.81,1.27l0,0c1.31.93,2,3.79,2,4.25a8.45,8.45,0,0,1-.45,1.83l0,.14c-.63,2.46-1.26,4-2.46,4-.84,0-1.58-.7-2.44-4.12l-.14-.48a19,19,0,0,1-1-4.34,3.35,3.35,0,0,1,.48-1.74,1.64,1.64,0,0,0,.27-.9c0-.82,0-1.75-4.7-1.75-2.29,0-5,.36-5,2,0,.81.09.87.42,1.09a4.13,4.13,0,0,1,1.75,2.54l6,19.25c.66,2.08,1,2.69,2.08,2.69,1.29,0,1.55-.63,2.18-2.6l2.11-6.54.33-1C136.2,29.52,136.53,28.46,137.68,28.46Zm-5.87-11.29a4.5,4.5,0,0,1-.24.49,1.72,1.72,0,0,0-.28.95,20.82,20.82,0,0,0,.94,3.84l.17.56a13.58,13.58,0,0,0,.83,2.54,13.22,13.22,0,0,0,.79-2.4l.08-.28a9.48,9.48,0,0,0,.36-1.26,6.49,6.49,0,0,0-1.28-2.87A3.25,3.25,0,0,1,131.81,17.17Z"/><path class="cls-2" d="M154.37,27.93c0-8.59,5.48-14.67,12.54-14.67,9,0,12.38,9.84,12.38,15.07,0,8.71-6.15,14.46-12.77,14.46C159.68,42.79,154.37,36.56,154.37,27.93Zm11-8.63c-1.81,0-2.72,2.35-2.72,4.33,0,3.44,1.94,13.13,5.44,13.13,2,0,2.82-2.15,2.82-4.34C171,28.74,169.21,19.3,165.42,19.3Z"/><path class="cls-1" d="M166.52,43.64c-7.41,0-13-6.76-13-15.71s5.76-15.52,13.39-15.52c9.9,0,13.23,10.93,13.23,15.92C180.14,37.91,173.22,43.64,166.52,43.64Zm.39-29.54c-6.78,0-11.7,5.82-11.7,13.83s4.87,14,11.31,14c5.87,0,11.93-5.09,11.93-13.62C178.45,23.87,175.54,14.1,166.91,14.1Zm1.23,23.5c-4.39,0-6.29-10.6-6.29-14,0-2.51,1.25-5.18,3.57-5.18,4.86,0,6.39,10.89,6.39,14S170.37,37.6,168.14,37.6Zm-2.72-17.46c-1.16,0-1.88,1.81-1.88,3.49,0,4,2.13,12.28,4.6,12.28,1.46,0,2-1.88,2-3.49C170.12,28.22,168.14,20.14,165.42,20.14Z"/><path class="cls-2" d="M179.26,27.93c0-8.59,5.48-14.67,12.54-14.67,8.95,0,12.39,9.84,12.39,15.07,0,8.71-6.16,14.46-12.77,14.46C184.58,42.79,179.26,36.56,179.26,27.93Zm11.05-8.63c-1.81,0-2.72,2.35-2.72,4.33,0,3.44,1.95,13.13,5.45,13.13,2,0,2.82-2.15,2.82-4.34C195.86,28.74,194.11,19.3,190.31,19.3Z"/><path class="cls-1" d="M191.42,43.64c-7.42,0-13-6.76-13-15.71s5.75-15.52,13.38-15.52c9.9,0,13.23,10.93,13.23,15.92C205,37.91,198.11,43.64,191.42,43.64Zm.38-29.54c-6.77,0-11.69,5.82-11.69,13.83S185,42,191.42,42c5.86,0,11.92-5.09,11.92-13.62C203.34,23.87,200.44,14.1,191.8,14.1ZM193,37.6c-4.4,0-6.29-10.6-6.29-14,0-2.51,1.25-5.18,3.56-5.18,4.86,0,6.39,10.89,6.39,14S195.26,37.6,193,37.6Zm-2.73-17.46c-1.16,0-1.87,1.81-1.87,3.49,0,4,2.13,12.28,4.6,12.28,1.45,0,2-1.88,2-3.49C195,28.22,193,20.14,190.31,20.14Z"/><path class="cls-2" d="M206.75,20.47c.06-4.17-2.37-2.15-2.37-4.78,0-1.86,1.88-2.15,3-2.15H218c9,0,12,7,12,14.26,0,7.54-3.53,14.63-11.73,14.63-1.4,0-2.56,0-3.57-.12s-1.88-.08-2.78-.08-1.85,0-2.76.08-1.81.12-2.75.12a2.35,2.35,0,0,1-2.5-2.31c0-2.92,2.56.32,2.66-5.59Zm7.78,14.83c0,2.07.25,2.92,2,2.92,4.09,0,4.8-5.23,4.8-9.28,0-9.48-2.85-11-5.35-11-1.36,0-1.45.69-1.45,2.23Z"/><path class="cls-1" d="M218.19,43.27c-1.41,0-2.6,0-3.63-.12h-.32c-.87,0-1.62-.07-2.4-.07s-1.88,0-2.72.08-1.83.12-2.79.12A3.19,3.19,0,0,1,203,40.12a2.08,2.08,0,0,1,1.53-2.34c.51-.18,1.08-.38,1.13-3.26l.26-14.06c0-1.82-.39-2-.92-2.33a2.37,2.37,0,0,1-1.44-2.44c0-1.87,1.44-3,3.86-3H218c8.14,0,12.81,5.5,12.81,15.1C230.77,34.94,227.47,43.27,218.19,43.27Zm-6.35-1.89c.81,0,1.62,0,2.47.07h.35c1,.09,2.17.13,3.53.13,8,0,10.89-7.12,10.89-13.79,0-5-1.45-13.41-11.12-13.41H207.4c-2.18,0-2.18,1-2.18,1.3,0,.66.11.71.56,1,.94.51,1.85,1.22,1.81,3.84h0l-.26,14.06c-.05,3.39-.87,4.34-2.26,4.83-.38.13-.4.13-.4.74a1.53,1.53,0,0,0,1.66,1.47c.91,0,1.78,0,2.68-.12S210.88,41.38,211.84,41.38Zm4.69-2.32c-2.85,0-2.85-2.17-2.85-3.76V20.19c0-1.3,0-3.08,2.3-3.08,4.17,0,6.2,3.87,6.2,11.83C222.18,37.31,219.11,39.06,216.53,39.06ZM216,18.8c-.39,0-.48.07-.48.07a4.07,4.07,0,0,0-.13,1.32V35.3c0,2.07.25,2.07,1.16,2.07,2.63,0,4-2.84,4-8.43C220.49,18.8,217.22,18.8,216,18.8Z"/><path class="cls-2" d="M230.37,22.7a9.44,9.44,0,0,1,9.53-9.44c2.08,0,4.41,1.17,4.9,1.17s.91-.48,1.59-.48c1.1,0,3.56,3,3.56,6.4,0,1.38-.71,2.75-1.91,2.75-2.17,0-3.44-4.62-6.81-4.62a1.93,1.93,0,0,0-2.07,2c0,3.2,4.44,2.35,8.2,5.47a8,8,0,0,1,3,6.73c0,4.74-3.11,10.08-10.66,10.08-2.14,0-5.8-.68-7.65-1.94-1.56-1.09-2.3-5.39-2.3-7.45,0-1.1.39-2.19,1.36-2.19,2.3,0,1.91,6.44,7.88,6.44.71,0,2.49-.45,2.49-2,0-2.91-4.44-2.18-8-5.79A10.11,10.11,0,0,1,230.37,22.7Z"/><path class="cls-1" d="M239.71,43.64c-2.1,0-6-.65-8.13-2.09s-2.67-6.19-2.67-8.16.87-3,2.21-3,2.07,1.31,2.72,2.57c.93,1.82,2,3.87,5.16,3.87,0,0,1.65-.1,1.65-1.14s-.65-1.25-2.5-2a14.54,14.54,0,0,1-5.29-3.2,11,11,0,0,1-3.33-7.77A10.23,10.23,0,0,1,239.9,12.41a13.16,13.16,0,0,1,4.19.93,6.63,6.63,0,0,0,.72.24,1.6,1.6,0,0,0,.25-.11,2.88,2.88,0,0,1,1.33-.37c1.84,0,4.41,3.65,4.41,7.25,0,1.74-1,3.6-2.76,3.6-1.36,0-2.33-1.13-3.27-2.23s-2.06-2.39-3.54-2.39A1.09,1.09,0,0,0,240,20.51c0,1.13.69,1.47,2.83,2.22a15.48,15.48,0,0,1,5.07,2.6,8.8,8.8,0,0,1,3.32,7.38C251.22,38,247.62,43.64,239.71,43.64Zm-8.59-11.59c-.32,0-.52.68-.52,1.34,0,2.18.82,6,2,6.77,1.57,1.07,5,1.79,7.16,1.79,6.78,0,9.82-4.64,9.82-9.24a7.15,7.15,0,0,0-2.71-6.08,13.89,13.89,0,0,0-4.55-2.31c-2-.71-4-1.38-4-3.81a2.78,2.78,0,0,1,2.92-2.87c2.26,0,3.68,1.65,4.82,3,.73.84,1.41,1.64,2,1.64s1.07-1,1.07-1.91c0-3-2.08-5.44-2.75-5.56a1.41,1.41,0,0,0-.56.2,2.39,2.39,0,0,1-1,.29,4.2,4.2,0,0,1-1.27-.34,11.59,11.59,0,0,0-3.63-.84,8.58,8.58,0,0,0-8.68,8.6,9.27,9.27,0,0,0,2.83,6.57,12.91,12.91,0,0,0,4.73,2.83c1.83.73,3.56,1.42,3.56,3.56,0,2-2,2.83-3.34,2.83-4.2,0-5.68-2.88-6.66-4.78C231.92,32.89,231.49,32.05,231.12,32.05Z"/><path class="cls-2" d="M20.65,25.21a1.52,1.52,0,0,0-.58,1.09c0,.53.35.69.68.9a7.06,7.06,0,0,1,3.63,6.2c0,4.05-2.18,9-8.69,9-1.1,0-2.11,0-3.08-.12s-1.94-.08-2.95-.08-2.24,0-3.34.08-2.2.12-3.34.12A2.11,2.11,0,0,1,.84,40.28c0-2.51,2.11,0,2.31-6.68L3.5,21.93C3.7,15.81.91,18.61.91,15.81a2.29,2.29,0,0,1,2.33-2.27c1.2,0,2.4.08,3.6.12s2.4.17,3.6.17a21.07,21.07,0,0,0,2.27-.17c.74,0,1.52-.12,2.27-.12,5.93,0,7.45,3.53,7.45,6.65A7.33,7.33,0,0,1,20.65,25.21Zm-9.43-1.78c0,1.58-.07,2.35.94,2.35,1.94,0,2.4-1.7,2.4-3.93,0-1.83-.49-4.09-2.27-4.09-1.2,0-1.07,1.21-1.07,2.39Zm0,9.88c0,4.7.61,4.83,1.62,4.83,1.84,0,2.49-1.58,2.49-3.69,0-2.47-.58-4.66-2.85-4.66-1,0-1.23.65-1.26,1.5Z"/><path class="cls-1" d="M15.69,43.27c-1.11,0-2.14,0-3.15-.12s-1.9-.08-2.88-.08-2.28,0-3.31.08-2.21.12-3.37.12a3,3,0,0,1-3-3,2.25,2.25,0,0,1,1.05-2.14c.45-.33,1.14-.83,1.25-4.57L2.66,21.9c.1-3.12-.56-3.44-1.15-3.73A2.26,2.26,0,0,1,.06,15.81,3.12,3.12,0,0,1,3.24,12.7c.82,0,1.65,0,2.44.07l1.19.05c1.19.08,2.39.16,3.57.16a19.62,19.62,0,0,0,2.18-.16h0l.72-.05c.52,0,1.06-.07,1.6-.07,7.49,0,8.3,5.23,8.3,7.49a8.21,8.21,0,0,1-2,5.6l-.1.11c-.23.25-.25.29-.25.4l.18.12.06,0a7.89,7.89,0,0,1,4.07,6.93C25.22,38,22.72,43.27,15.69,43.27Zm-6-1.89c1,0,2,0,3,.08h0c1,.08,1.94.12,3,.12,7.46,0,7.84-6.83,7.84-8.2A6.28,6.28,0,0,0,20.38,28l-.16-.09a1.72,1.72,0,0,1-1-1.56,2.12,2.12,0,0,1,.71-1.55l.12-.13a6.61,6.61,0,0,0,1.54-4.43c0-2.65-1.15-5.8-6.61-5.8-.48,0-1,0-1.48.07l-.72,0a21.68,21.68,0,0,1-2.34.16c-1.24,0-2.47-.08-3.66-.16l-1.17,0c-.78,0-1.59-.07-2.37-.07a1.45,1.45,0,0,0-1.49,1.42c0,.6.06.63.51.85,1.17.57,2.21,1.41,2.09,5.3L4,33.62c-.12,4.23-1,5.2-1.95,5.89-.3.21-.35.25-.35.77A1.26,1.26,0,0,0,3,41.59c1.12,0,2.19,0,3.28-.12S8.52,41.38,9.66,41.38ZM12.84,39c-2.13,0-2.47-1.67-2.47-5.67v-2c.08-1.95,1.19-2.35,2.11-2.35,1.69,0,3.7,1,3.7,5.51C16.18,38.39,14.08,39,12.84,39Zm-.36-8.35c-.3,0-.39,0-.42.69v2c0,3.33.34,3.87.44,4a1.83,1.83,0,0,0,.34,0c.45,0,1.65,0,1.65-2.84C14.49,30.63,13,30.63,12.48,30.63Zm-.32-4a1.69,1.69,0,0,1-1.25-.45c-.54-.55-.54-1.36-.54-2.47V19.84A3.21,3.21,0,0,1,11,17.42a1.78,1.78,0,0,1,1.33-.51c2,0,3.11,1.85,3.11,4.94C15.4,23,15.4,26.62,12.16,26.62Zm-.05-1.69h.05c.75,0,1.55-.24,1.55-3.08,0-.33,0-3.25-1.42-3.25a.29.29,0,0,0-.14,0,3.94,3.94,0,0,0-.09,1.2V23.7A8.44,8.44,0,0,0,12.11,24.93Z"/><path class="cls-2" d="M26.13,22.25c0-6.28-2.47-3.68-2.47-6.2,0-2.22,2.53-2.51,3.83-2.51.68,0,1.33.08,2,.12a16.54,16.54,0,0,0,2,.17c1,0,2.08-.09,3.15-.17s2.11-.12,3.14-.12c3.67,0,7.91,2,7.91,7.42,0,2.43-.94,4.78-2.75,5.87-.3.2-.52.33-.52.81s.42.77.81,1c2.27,1.06,3.27,2.92,3.73,7.3.38,3.77,2.49,1.5,2.49,4,0,1.54-1.49,3.16-5.15,3.16-5.19,0-5.84-3.73-6.84-9.08-.36-1.86-.91-3.68-2.69-3.68-.71,0-1,.12-1,2.67A32,32,0,0,0,34,36.88c.26,1.86,1.92,1.3,1.92,3.24,0,1.46-.82,2.55-6.07,2.55-1.55,0-6.15,0-6.15-3,0-2.11,2.43-.65,2.43-5.92ZM33.65,24c-.07,1.05-.23,1.94.84,1.94,2.11,0,2.79-1.46,2.79-4,0-2-.39-4-2.27-4-1.2,0-1.17.93-1.23,2.19Z"/><path class="cls-1" d="M44.28,43.88c-5.84,0-6.63-4.24-7.64-9.6l0-.16c-.42-2.19-.92-3-1.86-3h0A9.19,9.19,0,0,0,34.62,33a31.32,31.32,0,0,0,.22,3.81,1.27,1.27,0,0,0,.67,1,2.66,2.66,0,0,1,1.25,2.37c0,2.82-2.76,3.4-6.91,3.4-1.73,0-7,0-7-3.8A2.43,2.43,0,0,1,24,37.6c.61-.46,1.29-1,1.29-3.8V22.25c0-3.35-.67-3.72-1.21-4a2.13,2.13,0,0,1-1.25-2.17c0-2.1,1.74-3.35,4.67-3.35.48,0,.94,0,1.39.07l.67.05h.05a16,16,0,0,0,1.87.15c1,0,2-.07,3-.15h.07l1.05-.05c.71,0,1.44-.07,2.16-.07,4.36,0,8.76,2.55,8.76,8.26a7.59,7.59,0,0,1-3.14,6.58l0,0-.1.06h0s0,.05,0,.05l.25.12.1.05c2.56,1.19,3.7,3.35,4.18,8,.15,1.53.52,1.66,1,1.82a2,2,0,0,1,1.51,2.24C50.28,41.87,48.42,43.88,44.28,43.88ZM34.75,29.43c2.68,0,3.25,3,3.52,4.37l0,.16c1.07,5.71,1.72,8.23,6,8.23,3,0,4.31-1.16,4.31-2.31a1.08,1.08,0,0,0-.08-.53l-.29-.12c-.94-.32-1.88-.84-2.12-3.24-.47-4.51-1.51-5.8-3.25-6.61l-.12-.06a1.83,1.83,0,0,1-1.18-1.68,1.63,1.63,0,0,1,.83-1.47l.1-.06c1.45-.87,2.35-2.85,2.35-5.15,0-4.85-3.81-6.57-7.07-6.57-.67,0-1.38,0-2.07.07l-1,0h0c-1.07.08-2.08.16-3.13.16a16.19,16.19,0,0,1-2-.17l-.67-.05c-.44,0-.85-.06-1.26-.06-1.36,0-3,.29-3,1.66,0,.48,0,.49.39.7C26,17.36,27,18.24,27,22.25V33.8c0,3.36-.92,4.35-1.95,5.14-.4.31-.48.37-.48.78,0,1.42,1.74,2.11,5.31,2.11,5.22,0,5.22-1.07,5.22-1.71s-.16-.7-.57-1A2.93,2.93,0,0,1,33.17,37a31.18,31.18,0,0,1-.24-4C32.93,31.06,32.93,29.43,34.75,29.43Zm-.26-2.6a1.69,1.69,0,0,1-1.29-.5,2.61,2.61,0,0,1-.41-2.09V24l.14-4.07c.06-1.1.14-2.77,2.07-2.77,1.42,0,3.11.85,3.11,4.86C38.12,23.2,38.12,26.83,34.49,26.83Zm0-1.7h0c1,0,1.94-.25,1.94-3.13,0-3.17-1-3.17-1.42-3.17a.61.61,0,0,0-.24,0A4,4,0,0,0,34.63,20v.23l-.15,4.13A5.14,5.14,0,0,0,34.45,25.13Z"/><path class="cls-2" d="M66.48,20.83c0-4.33-2.79-2.67-2.79-5,0-2.51,3.76-2.43,5.09-2.43s4.8,0,4.8,2.35-2.43.89-2.43,4.58V31.25c0,1.82,0,11.54-11.18,11.54-12.78,0-11.35-12.31-11.35-12.8V20.63c.13-2.55-2.07-2.55-2.07-4.41,0-.57-.36-2.84,6.32-2.84,5.28,0,6.35,1.22,6.35,2.8,0,2.91-2.37.2-2.53,5.14v7.46c0,4.82,1.46,7.9,4.9,7.9,5.12,0,4.89-5.31,4.89-5.76Z"/><path class="cls-1" d="M60,43.64c-4,0-7-1.14-9.16-3.39-3-3.21-3.2-7.75-3-10.17V20.59a2.29,2.29,0,0,0-.89-2,3.21,3.21,0,0,1-1.19-2.39v-.07a2.61,2.61,0,0,1,.75-2c1-1.07,3.15-1.59,6.42-1.59,3.56,0,7.19.43,7.19,3.64a2.25,2.25,0,0,1-1.47,2.47c-.48.22-1,.44-1.05,2.7v7.43c0,4.68,1.36,7,4.05,7a3.83,3.83,0,0,0,2.82-1A5.31,5.31,0,0,0,65.64,31V20.83c0-2-.59-2.32-1.28-2.69a2.41,2.41,0,0,1-1.51-2.33,2.71,2.71,0,0,1,.8-2c1.3-1.3,3.8-1.3,5-1.3h.12c3.75,0,5.64,1.07,5.64,3.19A2.49,2.49,0,0,1,73,18.07c-.58.36-1,.64-1,2.24V31.25a14.84,14.84,0,0,1-1.49,6.87C69.17,40.64,66.26,43.64,60,43.64Zm-10.5-23V30s0,.1,0,.2c-.14,2.15,0,6.16,2.59,8.9C53.82,41,56.49,42,60,42c4.38,0,7.42-1.55,9-4.62a13.17,13.17,0,0,0,1.3-6.07v-11c0-2.34.91-3.1,1.84-3.68.48-.3.59-.37.59-.9,0-1-1.29-1.51-4-1.51h-.12c-.9,0-3,0-3.82.8a1,1,0,0,0-.3.79c0,.5.11.56.64.85,1.08.6,2.14,1.41,2.14,4.17V31a7,7,0,0,1-1.72,5,5.44,5.44,0,0,1-4,1.51c-2.62,0-5.74-1.52-5.74-8.74V21.32c.1-3.09,1-3.75,2-4.21.4-.18.47-.21.47-.93s0-2-5.5-2c-3.61,0-4.81.69-5.21,1.09a1,1,0,0,0-.27.8v.11c0,.48.23.73.7,1.2A3.94,3.94,0,0,1,49.47,20.65Z"/><path class="cls-2" d="M75.56,26c0-5.14-.33-6.32-.69-6.89-.74-1.17-2-1.29-2-2.83,0-2.92,6.61-2.92,7.26-2.92,1.94,0,5.93.08,5.93,2.84,0,1.45-1.23,1.37-2,2.43-.62.89-.65,4.53-.65,7.37v4c0,7.21.39,7,1,7.54.81.61,1.59.81,1.59,2.06s-.29,3-7.39,3c-1.36,0-5.45,0-5.45-2.63,0-1.3,1.1-1.5,1.62-2.27.39-.57.72-2.07.72-7.74Z"/><path class="cls-1" d="M78.67,43.52c-4.18,0-6.29-1.17-6.29-3.48a2.74,2.74,0,0,1,1.26-2.27,2.3,2.3,0,0,0,.5-.47c.38-.55.57-3,.57-7.27V26c0-3.79-.17-5.84-.55-6.44a3.79,3.79,0,0,0-.79-.81A2.94,2.94,0,0,1,72,16.3c0-3.4,5.67-3.76,8.11-3.76,1.67,0,6.77,0,6.77,3.68a2.51,2.51,0,0,1-1.38,2.27,2.5,2.5,0,0,0-.75.65c-.49.71-.49,5.35-.49,6.88v4c0,6.36.31,6.59.57,6.77l.13.09.42.3a2.63,2.63,0,0,1,1.5,2.44C86.9,42.36,84.44,43.52,78.67,43.52Zm1.46-29.3c-3.19,0-6.42.72-6.42,2.08,0,.53.19.72.74,1.17a5.16,5.16,0,0,1,1.14,1.21c.43.68.81,1.75.81,7.34v4c0,6.43-.43,7.58-.86,8.22a3.93,3.93,0,0,1-.84.84c-.47.37-.63.53-.63.95,0,1.48,2.5,1.79,4.6,1.79,6.54,0,6.54-1.54,6.54-2.2s-.14-.64-.73-1L84,38.24l-.09-.06c-1-.68-1.28-1.26-1.28-8.15V26c0-4.34.12-6.88.79-7.85a4.5,4.5,0,0,1,1.2-1.09c.52-.34.63-.43.63-.86C85.21,14.86,83.6,14.22,80.13,14.22Z"/><path class="cls-2" d="M102.68,23.59c.39.41,1.43,1.58,2,1.58.81,0,.85-1.66.85-2.35a18,18,0,0,0-.29-3.69c-.46-1.7-2.18-1.09-2.18-3.28,0-2.59,3.31-2.47,4.67-2.47s5-.2,5,2.59c0,2.31-1.72,1.46-2.27,3.33a24,24,0,0,0-.42,5.51V35.3c0,1.82.19,7.37-2,7.37a2.46,2.46,0,0,1-1.68-1l-10-11.22c-.45-.53-1.29-1.5-2-1.5-1,0-1,2.63-1,3.48a23.39,23.39,0,0,0,.22,3.69c.49,2.59,2.21,1.62,2.21,3.61,0,2.71-3.34,3-4.86,3s-4.83-.24-4.83-2.87c0-2.15,1.88-1.3,2.2-3.89a53.73,53.73,0,0,0,.29-6.12A73.74,73.74,0,0,0,88.2,21c-.52-4.05-2.86-2.47-2.86-4.91,0-2.87,4.38-2.71,5.84-2.71,2,0,2.36.16,3.82,1.78Z"/><path class="cls-1" d="M108,43.52a3.22,3.22,0,0,1-2.3-1.29L95.7,31a5.26,5.26,0,0,0-1.22-1.17,6.66,6.66,0,0,0-.32,2.59A20.33,20.33,0,0,0,94.38,36a1.87,1.87,0,0,0,1,1.51,2.37,2.37,0,0,1,1.24,2.25c0,1.14-.55,3.8-5.7,3.8-3.61,0-5.68-1.36-5.68-3.72a2.67,2.67,0,0,1,1.29-2.43,1.9,1.9,0,0,0,.92-1.57,54.26,54.26,0,0,0,.29-6,72.24,72.24,0,0,0-.35-8.69c-.24-1.84-.82-2.19-1.43-2.57a2.52,2.52,0,0,1-1.43-2.44,2.91,2.91,0,0,1,.87-2.15c1.43-1.43,4.25-1.41,5.59-1.41h.22c2.26,0,2.84.26,4.45,2.06l7.81,8.56a8.45,8.45,0,0,0,1.12,1.06,5.36,5.36,0,0,0,.13-1.4,14.42,14.42,0,0,0-.26-3.46c-.12-.46-.36-.61-.74-.87a2.76,2.76,0,0,1-1.46-2.64,2.92,2.92,0,0,1,.83-2.13c1.21-1.2,3.35-1.19,4.51-1.19H108c1.29,0,3.42,0,4.66,1.21a3,3,0,0,1,.88,2.23,2.66,2.66,0,0,1-1.5,2.65,1.42,1.42,0,0,0-.81.91,23.47,23.47,0,0,0-.39,5.28V35.72c0,2.79-.08,5.87-1.38,7.18A2,2,0,0,1,108,43.52ZM94.35,28.09c1,0,1.87.93,2.62,1.8L107,41.1c.28.31.71.73,1,.73a.33.33,0,0,0,.26-.12c.91-.92.89-4.6.88-6V24.81a24.38,24.38,0,0,1,.45-5.75,3,3,0,0,1,1.56-1.89c.49-.29.68-.4.68-1.2a1.34,1.34,0,0,0-.38-1c-.74-.74-2.51-.73-3.46-.72h-.46c-.9,0-2.6,0-3.3.7a1.24,1.24,0,0,0-.34.93,1.15,1.15,0,0,0,.7,1.23,3,3,0,0,1,1.44,1.84,16.56,16.56,0,0,1,.32,3.9c0,.79,0,3.2-1.69,3.2-.82,0-1.64-.81-2.48-1.7l-.15-.16-7.68-8.43c-1.31-1.45-1.43-1.51-3.2-1.51H91c-1,0-3.46,0-4.39.92a1.26,1.26,0,0,0-.37.95c0,.62.12.69.62,1,.75.46,1.89,1.16,2.22,3.8a72.1,72.1,0,0,1,.37,8.9A56.53,56.53,0,0,1,89.1,36a3.47,3.47,0,0,1-1.59,2.7c-.46.34-.61.45-.61,1.08,0,1.68,2.17,2,4,2s4-.37,4-2.11c0-.51-.08-.57-.49-.85a3.51,3.51,0,0,1-1.7-2.6,23,23,0,0,1-.24-3.85C92.47,31.24,92.47,28.09,94.35,28.09Z"/><path class="cls-3" d="M11.71,3.82a2.71,2.71,0,0,1,2.59-.25,2.61,2.61,0,0,1,.29.18V1.45l-.1,0A4.82,4.82,0,0,0,9.43,3.13,4.89,4.89,0,0,0,9,8.24a5,5,0,0,0,3,2.46,3.52,3.52,0,0,0,2.56-.15l.07-.05V8.45l-.12.08a2.75,2.75,0,0,1-2.09.13,2.82,2.82,0,0,1-1.85-2.19A2.73,2.73,0,0,1,11.71,3.82Z"/><polygon class="cls-3" points="18.43 1.28 16.4 1.28 16.41 10.57 20.94 10.57 20.94 8.68 18.43 8.68 18.43 1.28"/><path class="cls-3" d="M27,1.26l2.26,9.31H27.05l-.43-1.86H24.57L24,10.57H22l2.49-9.31ZM25,6.79h1.09L25.6,4.68"/><path class="cls-3" d="M5.51,7.78c0,.49-.21.85-.8.85a.78.78,0,0,1-.8-.85V1.48h-2V7.61A4.67,4.67,0,0,0,2.1,8.87,2.87,2.87,0,0,0,4.71,10.7a2.88,2.88,0,0,0,2.6-1.84,4.08,4.08,0,0,0,.2-1.25V1.47h-2Z"/><path class="cls-3" d="M30.11,2.76a1.38,1.38,0,1,1,1.38-1.38A1.38,1.38,0,0,1,30.11,2.76Zm0-2.52a1.14,1.14,0,1,0,1.13,1.14A1.14,1.14,0,0,0,30.11.24Z"/><path class="cls-3" d="M30.72,1c0-.33-.26-.42-.55-.42h-.68v1.6h.24V1.44H30l.41.74h.27l-.41-.74A.41.41,0,0,0,30.72,1ZM30,1.21h-.24V.81h.39c.2,0,.37,0,.37.22S30.19,1.21,30,1.21Z"/></g></g></svg>
